<svg width="50" height="59" viewBox="0 0 50 59" fill="none" xmlns="http://www.w3.org/2000/svg">
<path d="M34.4322 36.6162C35.0895 36.6162 35.6224 36.1041 35.6224 35.4723C35.6224 34.8405 35.0895 34.3284 34.4322 34.3284C33.7748 34.3284 33.2419 34.8405 33.2419 35.4723C33.2419 36.1041 33.7748 36.6162 34.4322 36.6162Z" fill="#F4F0EA"/>
<path d="M46.1081 0H18.2709C16.1248 0 14.3788 1.6781 14.3788 3.74072V4.49106H13.4516C11.3056 4.49106 9.55957 6.16916 9.55957 8.23178V9.07368H8.72638C6.5803 9.07368 4.83431 10.7518 4.83431 12.8144V13.6662H3.8923C1.74611 13.6662 0.00012207 15.3443 0.00012207 17.4071V54.715C0.00012207 56.7777 1.74611 58.4558 3.8923 58.4558H31.7301C33.8763 58.4558 35.6223 56.7777 35.6223 54.715V53.8628H36.5635C38.7101 53.8628 40.4567 52.1847 40.4567 50.1221V49.2813H41.2899C43.4361 49.2813 45.182 47.6032 45.182 45.5406V44.789H46.1081C48.2543 44.789 50.0001 43.1109 50.0001 41.0483V3.74072C50.0001 1.6781 48.2541 0 46.1081 0V0ZM38.0763 50.1222C38.0763 50.9233 37.3976 51.575 36.5635 51.575H35.6223V40.6101C35.6223 39.9783 35.0894 39.4661 34.432 39.4661C33.7747 39.4661 33.2417 39.9783 33.2417 40.6101V54.7151C33.2417 55.5162 32.5637 56.168 31.73 56.168H3.8923C3.05875 56.168 2.38057 55.5162 2.38057 54.7151V17.4072C2.38057 16.606 3.05863 15.9542 3.8923 15.9542H31.7302C32.5638 15.9542 33.2418 16.606 33.2418 17.4072V30.3149C33.2418 30.9467 33.7747 31.4589 34.4321 31.4589C35.0894 31.4589 35.6224 30.9467 35.6224 30.3149V17.4072C35.6224 15.3445 33.8764 13.6664 31.7303 13.6664H7.21476V12.8145C7.21476 12.0134 7.89282 11.3617 8.72638 11.3617H36.5646C37.3982 11.3617 38.0763 12.0134 38.0763 12.8145V50.1222ZM42.8015 45.5407C42.8015 46.3417 42.1235 46.9935 41.2899 46.9935H40.4567V12.8145C40.4567 10.7519 38.7107 9.0738 36.5646 9.0738H11.9399V8.2319C11.9399 7.43075 12.618 6.77906 13.4515 6.77906H41.2899C42.1235 6.77906 42.8015 7.43075 42.8015 8.2319V45.5407ZM47.6197 41.0484C47.6197 41.8494 46.9416 42.5012 46.1081 42.5012H45.182V8.2319C45.182 6.16927 43.436 4.49117 41.2899 4.49117H16.7592V3.74084C16.7592 2.93969 17.4373 2.288 18.2709 2.288H46.1081C46.9416 2.288 47.6197 2.93969 47.6197 3.74084V41.0484Z" fill="#F4F0EA"/>
<path d="M13.701 23.988C14.7988 22.9329 15.2367 21.6402 14.9024 20.4411C14.6189 19.4243 13.7855 18.6234 12.7276 18.3509C11.7835 18.1077 10.7841 18.2894 9.8781 18.8492C9.30054 18.4947 8.68187 18.2946 8.05062 18.2623C7.14234 18.2155 6.26198 18.5357 5.63333 19.14C4.46383 20.264 4.21889 22.3045 6.01358 24.0294L8.99406 26.894C9.45236 27.3345 10.219 27.3345 10.6773 26.894L13.701 23.988ZM7.69698 22.4116C7.3235 22.0528 7.11609 21.6827 7.0972 21.3417C7.08449 21.1134 7.16242 20.9059 7.31661 20.7578C7.45987 20.6201 7.65647 20.5456 7.87433 20.5456C7.89072 20.5456 7.90736 20.546 7.9241 20.5468C8.27893 20.565 8.66382 20.7643 9.0373 21.1233C9.50213 21.5701 10.2557 21.5701 10.7206 21.1233C11.4494 20.4226 12.1014 20.4223 12.4243 20.7325C12.57 20.8726 12.6425 21.0719 12.6282 21.2936C12.6066 21.6301 12.3898 22.0124 12.0177 22.3701L9.83558 24.4673L7.69698 22.4116Z" fill="#F4F0EA"/>
<path d="M26.4927 45.2157C26.0278 44.7689 25.2743 44.7689 24.8095 45.2157L21.7858 48.1219C20.688 49.177 20.2502 50.4698 20.5844 51.6688C20.8679 52.6857 21.7013 53.4866 22.7593 53.7591C23.0337 53.8298 23.3128 53.8645 23.593 53.8645C24.276 53.8645 24.9651 53.658 25.6074 53.2617C27.1878 54.2369 28.8626 53.9223 29.8537 52.9699C31.023 51.8459 31.2681 49.8054 29.4733 48.0804L26.4927 45.2157ZM28.3628 51.0291C28.2929 51.2801 28.0953 51.4699 27.8342 51.5372C27.427 51.6421 26.9226 51.4413 26.4495 50.9866C25.9845 50.5399 25.2311 50.5399 24.7662 50.9866C24.0373 51.6873 23.3853 51.6877 23.0625 51.3774C22.7398 51.0672 22.7401 50.4405 23.4691 49.74L25.6512 47.6427L27.79 49.6984C28.2629 50.1529 28.4719 50.6379 28.3628 51.0291Z" fill="#F4F0EA"/>
<path d="M25.4249 34.7485C25.5027 33.5358 25.0508 32.363 24.1852 31.531C23.3195 30.6991 22.1 30.2644 20.8375 30.3397C19.8052 30.4009 18.7861 30.7853 17.8447 31.4624C16.9015 30.7876 15.878 30.4084 14.8387 30.3551C13.5758 30.2905 12.3507 30.734 11.4788 31.572C9.84104 33.1461 9.5272 36.0313 12.096 38.5001L16.9338 43.1499C17.3921 43.5903 18.1588 43.5903 18.6171 43.1499L23.5252 38.4327C24.6848 37.3184 25.3416 36.0443 25.4249 34.7485ZM23.0489 34.6076C23.0021 35.3378 22.5847 36.1012 21.842 36.815L17.7757 40.7233L13.7796 36.8825C12.2393 35.4021 12.3596 33.9612 13.1622 33.1898C13.5358 32.8308 14.0393 32.6367 14.5905 32.6367C14.6308 32.6367 14.6714 32.6377 14.7122 32.6398C15.4739 32.6787 16.2664 33.0741 17.0041 33.7832C17.469 34.2299 18.2226 34.2299 18.6874 33.7832C20.2327 32.2978 21.7168 32.3943 22.5019 33.1488C22.8909 33.5228 23.0852 34.0409 23.0489 34.6076Z" fill="#F4F0EA"/>
</svg>
