<svg width="66" height="38" viewBox="0 0 66 38" fill="none" xmlns="http://www.w3.org/2000/svg">
<path d="M48.1504 35.6457H7.54712C4.49199 35.6457 2.0065 33.257 2.0065 30.3207V7.25368C2.0065 4.31734 4.49199 1.92848 7.54712 1.92848H13.7375C14.2916 1.92848 14.7408 1.49686 14.7408 0.964242C14.7408 0.431623 14.2916 0 13.7375 0H7.54712C3.38558 0 0 3.25395 0 7.25368V30.3207C0 34.3204 3.38558 37.5742 7.54712 37.5742H48.1504C48.7045 37.5742 49.1537 37.1426 49.1537 36.61C49.1537 36.0774 48.7045 35.6457 48.1504 35.6457Z" fill="#F4F0EA"/>
<path d="M57.9045 0H17.7506C17.1965 0 16.7473 0.431623 16.7473 0.964242C16.7473 1.49686 17.1965 1.92848 17.7506 1.92848H57.9045C60.9596 1.92848 63.4451 4.31734 63.4451 7.25368V30.3207C63.4451 33.257 60.9596 35.6457 57.9045 35.6457H52.1635C51.6095 35.6457 51.1603 36.0774 51.1603 36.61C51.1603 37.1426 51.6095 37.5742 52.1635 37.5742H57.9045C62.066 37.5742 65.4516 34.3203 65.4516 30.3207V7.25368C65.4516 3.25395 62.066 0 57.9045 0Z" fill="#F4F0EA"/>
<path d="M57.9045 4.50006H7.54706C5.96714 4.50006 4.68176 5.73556 4.68176 7.25389V30.3203C4.68176 31.8387 5.96714 33.0741 7.54706 33.0741H57.9045C59.4844 33.0741 60.7696 31.8387 60.7696 30.3203V7.25389C60.7696 5.73544 59.4844 4.50006 57.9045 4.50006ZM58.763 30.3203C58.763 30.7754 58.3778 31.1457 57.9043 31.1457H7.54706C7.07356 31.1457 6.68826 30.7754 6.68826 30.3203V26.646H58.763V30.3203ZM58.763 24.7175H6.68826V12.8567H58.763V24.7175ZM58.763 10.9282H6.68826V7.25389C6.68826 6.79881 7.07356 6.4285 7.54706 6.4285H57.9045C58.3778 6.4285 58.763 6.79881 58.763 7.25389V10.9282Z" fill="#F4F0EA"/>
<path d="M12.8246 14.0334H10.4555L8.8075 23.9328H10.2937L10.5733 22.1368H12.5597L12.8393 23.9328H14.4726L12.8246 14.0334ZM10.7792 20.7931L11.5591 15.7869L12.3391 20.7931H10.7792Z" fill="#F4F0EA"/>
<path d="M19.5784 18.6576C20.2994 18.3324 20.6231 17.6818 20.6231 16.6636V16.31C20.6231 14.7827 19.9021 14.0331 18.2247 14.0331H15.7821V23.9325H18.3277C19.9462 23.9326 20.785 23.1123 20.785 21.585V20.7788C20.7851 19.7324 20.4467 18.9828 19.5784 18.6576ZM17.4008 15.4475H18.1807C18.7545 15.4475 19.0047 15.7586 19.0047 16.4658V17.0172C19.0047 17.8091 18.6368 18.0638 18.0335 18.0638H17.4008V15.4475ZM19.1666 21.5428C19.1666 22.2781 18.8723 22.5186 18.3278 22.5186H17.4008V19.478H18.1218C18.8575 19.478 19.1664 19.7608 19.1664 20.68V21.5428H19.1666Z" fill="#F4F0EA"/>
<path d="M27.0091 17.3708V16.4092C27.0091 14.8251 26.1851 13.9201 24.596 13.9201C23.0069 13.9201 22.1829 14.8253 22.1829 16.4092V21.5571C22.1829 23.1411 23.0068 24.0461 24.596 24.0461C26.1851 24.0461 27.0091 23.1409 27.0091 21.5571V20.2419H25.4788V21.6561C25.4788 22.3632 25.1552 22.6176 24.6401 22.6176C24.1251 22.6176 23.8014 22.3632 23.8014 21.6561V16.3101C23.8014 15.603 24.1251 15.3343 24.6401 15.3343C25.1552 15.3343 25.4788 15.603 25.4788 16.3101V17.3708H27.0091Z" fill="#F4F0EA"/>
<path d="M34.2631 18.2758H31.3202V19.6898H34.2631V18.2758Z" fill="#F4F0EA"/>
<path d="M41.5465 14.0334C41.2963 14.6981 41.0167 15.2779 39.7659 15.2779V16.3809H41.0167V23.9328H42.6353V14.0334H41.5465Z" fill="#F4F0EA"/>
<path d="M46.77 22.5186C46.7553 22.4478 46.7553 22.3772 46.7553 22.3064C46.7553 20.68 49.9779 19.5203 49.9779 16.4091C49.9779 14.8251 49.1539 13.9201 47.5648 13.9201C45.9756 13.9201 45.1516 14.8253 45.1516 16.4091V17.3708H46.6818V16.3101C46.6818 15.603 47.0055 15.3343 47.5207 15.3343C48.0357 15.3343 48.3594 15.5747 48.3594 16.4656C48.3594 19.3224 45.1517 19.8033 45.1517 22.7165V23.9328H49.8308V22.5186H49.8306H46.77Z" fill="#F4F0EA"/>
<path d="M56.2754 16.6637V16.4091C56.2754 14.8251 55.4514 13.9201 53.8622 13.9201C52.2731 13.9201 51.4491 14.8253 51.4491 16.4091V16.9465H52.9793V16.3101C52.9793 15.603 53.3031 15.3343 53.8181 15.3343C54.3332 15.3343 54.6569 15.5747 54.6569 16.4656V17.017C54.6569 17.809 54.289 18.0637 53.6857 18.0637H53.0532V19.4779H53.5975C54.3332 19.4779 54.657 19.8175 54.657 20.7366V21.5144C54.657 22.3912 54.3333 22.6316 53.8183 22.6316C53.3032 22.6316 52.9794 22.3629 52.9794 21.6558V20.7366H51.4492V21.5568C51.4492 23.1408 52.2733 24.0458 53.8624 24.0458C55.4515 24.0458 56.2755 23.1407 56.2755 21.5568V20.7789C56.2755 19.7749 55.9518 19.0394 55.1425 18.7001C55.9222 18.3891 56.2754 17.7244 56.2754 16.6637Z" fill="#F4F0EA"/>
<path d="M16.4828 9.7515C17.0898 9.7515 17.5819 9.27854 17.5819 8.69512C17.5819 8.11169 17.0898 7.63873 16.4828 7.63873C15.8758 7.63873 15.3837 8.11169 15.3837 8.69512C15.3837 9.27854 15.8758 9.7515 16.4828 9.7515Z" fill="#F4F0EA"/>
<path d="M16.4828 29.9567C17.0898 29.9567 17.5819 29.4838 17.5819 28.9005C17.5819 28.3171 17.0898 27.8442 16.4828 27.8442C15.8758 27.8442 15.3837 28.3171 15.3837 28.9005C15.3837 29.4838 15.8758 29.9567 16.4828 29.9567Z" fill="#F4F0EA"/>
<path d="M48.9692 9.7515C49.5763 9.7515 50.0684 9.27854 50.0684 8.69512C50.0684 8.11169 49.5763 7.63873 48.9692 7.63873C48.3622 7.63873 47.8701 8.11169 47.8701 8.69512C47.8701 9.27854 48.3622 9.7515 48.9692 9.7515Z" fill="#F4F0EA"/>
<path d="M48.9692 29.9567C49.5763 29.9567 50.0684 29.4838 50.0684 28.9005C50.0684 28.3171 49.5763 27.8442 48.9692 27.8442C48.3622 27.8442 47.8701 28.3171 47.8701 28.9005C47.8701 29.4838 48.3622 29.9567 48.9692 29.9567Z" fill="#F4F0EA"/>
</svg>
