<svg width="78" height="78" viewBox="0 0 78 78" fill="none" xmlns="http://www.w3.org/2000/svg">
<g clip-path="url(#clip0_303_3586)">
<path d="M22.1597 28.8951C21.7412 28.4766 21.0608 28.4749 20.6427 28.893C20.2253 29.3104 20.2263 29.9915 20.6448 30.41C21.0641 30.8293 21.7445 30.8295 22.1619 30.4121C22.5799 29.9941 22.579 29.3144 22.1597 28.8951Z" fill="#F4F0EA"/>
<path d="M62.9384 53.3985C62.938 53.1163 62.8239 52.8399 62.6234 52.6394L25.2517 15.2677C25.0519 15.0679 24.7749 14.953 24.4926 14.9527C24.2105 14.9522 23.9338 15.0664 23.7346 15.2656L15.375 23.6252C15.1757 23.8245 15.0623 24.1004 15.0619 24.3834C15.0623 24.6655 15.1772 24.9426 15.377 25.1423L17.2266 26.9919C17.6459 27.4112 18.3263 27.4114 18.7437 26.9941C19.1617 26.576 19.1608 25.8963 18.7415 25.477L17.6515 24.387L24.4962 17.5423L27.2892 20.3353L25.3281 22.2965C24.91 22.7145 24.9117 23.395 25.3302 23.8135C25.7487 24.2321 26.4292 24.2337 26.8472 23.8156L28.8084 21.8545L31.6014 24.6475L28.2131 28.0358C27.7957 28.4532 27.796 29.1335 28.2153 29.5528C28.6338 29.9713 29.315 29.9723 29.7323 29.5549L33.1206 26.1666L35.9136 28.9596L33.9524 30.9208C33.5343 31.3389 33.5353 32.0186 33.9545 32.4379C34.3731 32.8564 35.0535 32.8581 35.4716 32.44L37.4328 30.4788L40.2258 33.2718L36.8375 36.6601C36.4201 37.0775 36.4203 37.7579 36.8396 38.1772C37.2581 38.5957 37.9393 38.5966 38.3567 38.1793L41.745 34.791L43.8186 36.8647L41.8574 38.8259C41.4394 39.2439 41.441 39.9244 41.8596 40.3429C42.2789 40.7622 42.9585 40.7631 43.3766 40.345L45.3378 38.3838L48.1311 41.1772L41.2864 48.0219L25.5778 32.3133C25.1593 31.8948 24.4788 31.8931 24.0608 32.3112C23.6434 32.7286 23.6444 33.4097 24.0629 33.8282L52.7487 62.514C52.9485 62.7138 53.2255 62.8287 53.5077 62.8291C53.7899 62.8295 54.0666 62.7153 54.2658 62.5161L62.6255 54.1565C62.8246 53.9573 62.9388 53.6806 62.9384 53.3985ZM49.6503 42.6963L52.4432 45.4893L45.5985 52.334L42.8056 49.541L49.6503 42.6963ZM53.5041 60.2395L47.1177 53.8531L53.9625 47.0084L56.7552 49.8011L53.3669 53.1894C52.9495 53.6068 52.9505 54.2879 53.3691 54.7065C53.7884 55.1258 54.4688 55.1259 54.8861 54.7086L58.2744 51.3203L60.3488 53.3947L53.5041 60.2395Z" fill="#F4F0EA"/>
</g>
<defs>
<clipPath id="clip0_303_3586">
<rect width="55" height="55" fill="white" transform="translate(39.0002) rotate(45)"/>
</clipPath>
</defs>
</svg>
