<svg width="55" height="55" viewBox="0 0 55 55" fill="none" xmlns="http://www.w3.org/2000/svg">
<g clip-path="url(#clip0_303_3634)">
<path d="M37.5977 48.5547C37.3151 48.5547 37.038 48.6695 36.8382 48.8694C36.6384 49.0692 36.5234 49.3464 36.5234 49.6289C36.5234 49.9114 36.6384 50.1886 36.8382 50.3883C37.038 50.5881 37.3151 50.7031 37.5977 50.7031C37.8802 50.7031 38.1573 50.5882 38.3571 50.3883C38.5569 50.1886 38.6719 49.9114 38.6719 49.6289C38.6719 49.3464 38.5569 49.0692 38.3571 48.8694C38.1573 48.6696 37.8802 48.5547 37.5977 48.5547Z" fill="#F4F0EA"/>
<path d="M14.7705 32.4414H5.80078C5.20749 32.4414 4.72656 32.9224 4.72656 33.5156C4.72656 34.1088 5.20749 34.5898 5.80078 34.5898H14.7705C15.3638 34.5898 15.8447 34.1088 15.8447 33.5156C15.8447 32.9224 15.3638 32.4414 14.7705 32.4414Z" fill="#F4F0EA"/>
<path d="M14.7705 27.7148H5.80078C5.20749 27.7148 4.72656 28.1959 4.72656 28.7891C4.72656 29.3822 5.20749 29.8633 5.80078 29.8633H14.7705C15.3638 29.8633 15.8447 29.3822 15.8447 28.7891C15.8447 28.1959 15.3638 27.7148 14.7705 27.7148Z" fill="#F4F0EA"/>
<path d="M24.4922 34.5898C26.3876 34.5898 27.9297 33.0478 27.9297 31.1523C27.9297 29.2569 26.3876 27.7148 24.4922 27.7148H22.1289C20.2334 27.7148 18.6914 29.2569 18.6914 31.1523C18.6914 33.0478 20.2334 34.5898 22.1289 34.5898H24.4922ZM20.8398 31.1523C20.8398 30.4415 21.4181 29.8633 22.1289 29.8633H24.4922C25.203 29.8633 25.7812 30.4415 25.7812 31.1523C25.7812 31.8632 25.203 32.4414 24.4922 32.4414H22.1289C21.4181 32.4414 20.8398 31.8632 20.8398 31.1523Z" fill="#F4F0EA"/>
<path d="M49.6289 0H25.5664C22.6048 0 20.1953 2.40947 20.1953 5.37109V15.6836H3.22266C1.44568 15.6836 0 17.1293 0 18.9062V36.0938C0 37.8707 1.44568 39.3164 3.22266 39.3164H20.1953V49.6289C20.1953 52.5905 22.6048 55 25.5664 55H49.6289C52.5905 55 55 52.5905 55 49.6289V5.37109C55 2.40947 52.5905 0 49.6289 0ZM3.22266 17.832H29.4336C30.0259 17.832 30.5078 18.3139 30.5078 18.9062V20.4102H2.14844V18.9062C2.14844 18.3139 2.63033 17.832 3.22266 17.832ZM2.14844 36.0938V22.5586H30.5078V36.0938C30.5078 36.6861 30.0259 37.168 29.4336 37.168H3.22266C2.63033 37.168 2.14844 36.6861 2.14844 36.0938ZM52.8516 49.6289C52.8516 51.4059 51.4059 52.8516 49.6289 52.8516H25.5664C23.7894 52.8516 22.3438 51.4059 22.3438 49.6289V39.3164H24.9219V45.332C24.9219 45.9252 25.4028 46.4062 25.9961 46.4062H49.1992C49.7925 46.4062 50.2734 45.9252 50.2734 45.332V32.3476C50.2734 31.7544 49.7925 31.2734 49.1992 31.2734C48.6059 31.2734 48.125 31.7544 48.125 32.3476V44.2578H27.0703V39.3164H29.4336C31.2106 39.3164 32.6562 37.8707 32.6562 36.0938V18.9062C32.6562 17.1293 31.2106 15.6836 29.4336 15.6836H27.0703V10.7422H48.125V22.6798C48.125 23.2729 48.6059 23.754 49.1992 23.754C49.7925 23.754 50.2734 23.2729 50.2734 22.6798V9.66797C50.2734 9.07479 49.7925 8.59375 49.1992 8.59375H25.9961C25.4028 8.59375 24.9219 9.07479 24.9219 9.66797V15.6836H22.3438V5.37109C22.3438 3.59412 23.7894 2.14844 25.5664 2.14844H49.6289C51.4059 2.14844 52.8516 3.59412 52.8516 5.37109V49.6289Z" fill="#F4F0EA"/>
<path d="M49.1992 26.4397C48.9156 26.4397 48.6395 26.5536 48.4397 26.7544C48.2399 26.9542 48.125 27.2314 48.125 27.5139C48.125 27.7964 48.2399 28.0725 48.4397 28.2734C48.6395 28.4731 48.9167 28.5881 49.1992 28.5881C49.4817 28.5881 49.7589 28.4732 49.9587 28.2734C50.1585 28.0736 50.2734 27.7964 50.2734 27.5139C50.2734 27.2303 50.1585 26.9542 49.9587 26.7544C49.7589 26.5535 49.4817 26.4397 49.1992 26.4397Z" fill="#F4F0EA"/>
</g>
<defs>
<clipPath id="clip0_303_3634">
<rect width="55" height="55" fill="white"/>
</clipPath>
</defs>
</svg>
