<svg width="55" height="55" viewBox="0 0 55 55" fill="none" xmlns="http://www.w3.org/2000/svg">
<g clip-path="url(#clip0_303_3647)">
<path d="M54.4199 33.9775C54.0654 33.8379 53.668 33.9238 53.4102 34.1924L49.5 38.3066V13.8682L53.2383 9.83985C53.582 9.46387 53.5605 8.88379 53.1846 8.54004L51.8418 7.29395L53.7109 5.27442C54.0547 4.89844 54.0332 4.31836 53.6572 3.97461L49.6289 0.247074C49.2529 -0.0966758 48.6729 -0.0751914 48.3291 0.300785L41.8086 7.33692H10.0869C10.0869 4.80176 8.03516 2.76075 5.5 2.75H4.58691C2.05176 2.75 0 4.80176 0 7.33692V46.75C0 47.2549 0.408203 47.6631 0.913086 47.6631H14.792L12.8691 49.9727C12.5469 50.3594 12.6006 50.9395 12.9873 51.2617L17.209 54.7852C17.5957 55.1074 18.1758 55.0537 18.498 54.667L23.1924 49.0273C23.5146 48.6406 23.7295 48.168 23.7939 47.6631H40.5947L35.084 53.4531C34.7402 53.8184 34.751 54.3984 35.1162 54.7529C35.2881 54.9141 35.5137 55.0107 35.75 55H54.0869C54.5918 55 55 54.5918 55 54.0869V34.8369C55 34.4609 54.7744 34.1172 54.4199 33.9775ZM51.2725 9.25977L49.5 11.1719V9.82911L50.5957 8.63672L51.2725 9.25977ZM47.6631 9.08789L39.9072 17.4775L37.2109 14.9854L46.5459 4.8877L49.2422 7.37989L47.6631 9.08789ZM38.1562 18.3477L36.0508 18.96L36.502 16.8115L38.1562 18.3477ZM49.0488 2.21289L51.7451 4.70508L50.499 6.0586L47.8027 3.55567L49.0488 2.21289ZM4.58691 4.57618H5.5C7.01465 4.57618 8.25 5.81153 8.25 7.32618V42.1846C7.46582 41.583 6.49902 41.25 5.5 41.2393H4.58691C3.58789 41.2393 2.62109 41.5723 1.83691 42.1846V7.33692C1.83691 5.81153 3.06152 4.57618 4.58691 4.57618ZM4.58691 43.0762H5.5C7.01465 43.0762 8.25 44.3115 8.25 45.8262H1.83691C1.83691 44.3115 3.06152 43.0762 4.58691 43.0762ZM21.7852 47.8564L21.1943 48.5654L18.3799 46.2236L18.9707 45.5147C19.293 45.1279 19.873 45.0742 20.2598 45.3965L21.667 46.5674C22.0645 46.8897 22.1074 47.4697 21.7852 47.8564ZM17.6816 52.7871L14.8672 50.4453L17.209 47.6309L20.0234 49.9727L17.6816 52.7871ZM23.4072 45.8262C23.2568 45.5684 23.0635 45.3428 22.8379 45.1494L21.4307 43.9785C20.2598 43.0117 18.5303 43.1621 17.5527 44.333L16.3066 45.8262H10.0762V9.16309H40.1113L35.2451 14.416C35.1807 14.4912 35.1162 14.5879 35.084 14.6846C35.0732 14.7061 35.0625 14.7383 35.0518 14.7598C35.041 14.792 35.0303 14.8135 35.0195 14.8457L33.9346 20.0879C33.8271 20.582 34.1494 21.0654 34.6436 21.1729C34.7939 21.2051 34.9443 21.1943 35.084 21.1514L40.2188 19.6582C40.2402 19.6475 40.2617 19.6367 40.2832 19.626C40.3047 19.6152 40.3262 19.6045 40.3584 19.5938C40.4658 19.5508 40.5518 19.4863 40.6377 19.4004L47.6631 11.8057V40.2402L42.335 45.8369H23.4072V45.8262ZM53.1631 53.1631H37.8877L53.1631 37.125V53.1631Z" fill="#F4F0EA"/>
<path d="M43.1514 50.7676C43.291 51.1113 43.624 51.3369 44 51.3369H50.4131C50.9179 51.3369 51.3261 50.9287 51.3261 50.4238V44.0107C51.3261 43.5059 50.9179 43.0977 50.4131 43.0977C50.166 43.0977 49.9404 43.1943 49.7685 43.3662L43.3555 49.7793C43.0869 50.0264 43.0117 50.4238 43.1514 50.7676ZM49.5 46.2129V49.5H46.2129L49.5 46.2129Z" fill="#F4F0EA"/>
<path d="M40.3369 34.8369H33.9238V24.75C33.9238 24.5029 33.8271 24.2773 33.6553 24.1055L28.1445 18.5947C27.79 18.2402 27.21 18.2402 26.8447 18.5947L21.3447 24.0947C21.1729 24.2666 21.0762 24.5029 21.0762 24.7393V34.8262H14.6631C14.1582 34.8262 13.75 35.2344 13.75 35.7393C13.75 36.2441 14.1582 36.6523 14.6631 36.6523H40.3262C40.8311 36.6523 41.2393 36.2441 41.2393 35.7393C41.25 35.2451 40.8418 34.8369 40.3369 34.8369ZM27.5 20.5391L30.7871 23.8262H24.2129L27.5 20.5391ZM22.9131 25.6631H32.0762V34.8262H22.9131V25.6631Z" fill="#F4F0EA"/>
<path d="M26.5869 14.6631H28.4238V16.5H26.5869V14.6631Z" fill="#F4F0EA"/>
<path d="M26.5869 38.5H28.4238V40.3369H26.5869V38.5Z" fill="#F4F0EA"/>
</g>
<defs>
<clipPath id="clip0_303_3647">
<rect width="55" height="55" fill="white"/>
</clipPath>
</defs>
</svg>
