<svg width="55" height="53" viewBox="0 0 55 53" fill="none" xmlns="http://www.w3.org/2000/svg">
<path d="M36.6738 4.40845H18.3369V6.17407H36.6738V4.40845Z" fill="#F4F0EA"/>
<path d="M45.375 33.0384C45.375 31.3349 43.9356 29.9514 42.1631 29.9514H40.3262V17.624H38.4893V29.9617H36.2012C34.4287 29.9617 32.9893 31.3452 32.9893 33.0487C32.9893 33.916 33.3652 34.6903 33.9561 35.2478C33.3545 35.8054 32.9893 36.59 32.9893 37.4469C32.9893 38.0458 33.1719 38.593 33.4727 39.0576C32.377 39.5531 31.6143 40.6062 31.6143 41.8452C31.6143 42.3201 31.7324 42.764 31.9365 43.1667H24.7393C24.7393 40.472 23.332 38.0871 21.1943 36.652C23.2676 35.888 24.7393 33.9676 24.7393 31.7066C24.7393 31.2213 24.3311 30.829 23.8262 30.829H16.4893V22.0222H14.6523V30.829C13.1377 30.829 11.9023 32.0163 11.9023 33.472V52.8613H13.75V33.4824C13.75 32.9971 14.1582 32.6048 14.6631 32.6048H22.7949C22.3867 34.1225 20.9473 35.2478 19.25 35.2478H16.5C15.9951 35.2478 15.5869 35.6402 15.5869 36.1254C15.5869 36.6107 15.9951 37.003 16.5 37.003C20.0342 37.003 22.9131 39.7699 22.9131 43.1667V44.0443C22.9131 44.5295 23.3213 44.9218 23.8262 44.9218H29.1865C28.9824 45.3245 28.8643 45.7684 28.8643 46.2434C28.8643 47.9469 30.3037 49.3304 32.0762 49.3304V52.8613H33.9131V49.3407H37.5762H38.0381C39.8105 49.3407 41.25 47.9572 41.25 46.2537C41.25 45.7788 41.1211 45.3245 40.917 44.9218C42.625 44.8599 44 43.5074 44 41.8555C44 41.2567 43.8174 40.7095 43.5166 40.2449C44.6123 39.7493 45.375 38.6962 45.375 37.4573C45.375 36.59 44.999 35.8157 44.4082 35.2582C44.999 34.68 45.375 33.9057 45.375 33.0384ZM38.0381 47.5752H37.5762H32.9893H32.0762C31.3135 47.5752 30.7012 46.9867 30.7012 46.2537C30.7012 45.5207 31.3135 44.9322 32.0762 44.9322H34.8262H38.0381C38.8008 44.9322 39.4131 45.5207 39.4131 46.2537C39.4131 46.9867 38.8008 47.5752 38.0381 47.5752ZM40.7881 43.1667H38.0381H34.8262C34.0635 43.1667 33.4512 42.5782 33.4512 41.8452C33.4512 41.1121 34.0635 40.5236 34.8262 40.5236H36.2012H40.7881C41.5508 40.5236 42.1631 41.1121 42.1631 41.8452C42.1631 42.5782 41.5508 43.1667 40.7881 43.1667ZM42.1631 38.7685H40.7881H36.2012C35.4385 38.7685 34.8262 38.18 34.8262 37.4469C34.8262 36.7139 35.4385 36.1254 36.2012 36.1254H42.1631C42.9258 36.1254 43.5381 36.7139 43.5381 37.4469C43.5381 38.18 42.9258 38.7685 42.1631 38.7685ZM42.1631 34.3599H36.2012C35.4385 34.3599 34.8262 33.7714 34.8262 33.0384C34.8262 32.3054 35.4385 31.7169 36.2012 31.7169H42.1631C42.9258 31.7169 43.5381 32.3054 43.5381 33.0384C43.5381 33.7714 42.9258 34.3599 42.1631 34.3599Z" fill="#F4F0EA"/>
<path d="M13.75 11.2124C13.7285 10.9543 13.5996 10.7271 13.3847 10.5723L12.4287 9.88052C12.2031 8.76548 11.1826 7.9292 9.96874 7.9292C8.60448 7.9292 7.4873 9.00294 7.46581 10.3245C6.73534 10.2006 6.0371 9.93215 5.40332 9.52949L5.08105 9.323C4.80175 9.13716 4.43652 9.11651 4.13574 9.27138C3.83496 9.42625 3.65234 9.72566 3.65234 10.0457V10.7684C3.65234 11.8319 3.98535 12.8437 4.6084 13.6903L3.9209 14.3613C3.66309 14.6091 3.58789 14.9911 3.72754 15.3215C3.86719 15.6519 4.20019 15.8584 4.57617 15.8584H9.02342C10.7959 15.8584 12.2568 14.5575 12.4609 12.8953L13.4922 11.8938C13.6748 11.7183 13.7715 11.4705 13.75 11.2124ZM10.914 11.8938C10.7422 12.059 10.6455 12.2861 10.6455 12.5133C10.6455 13.3908 9.91502 14.1032 9.02342 14.1032H6.69238C6.84277 13.7832 6.77831 13.3908 6.49902 13.1327C6.06933 12.7198 5.76855 12.1932 5.60742 11.6254C6.47753 11.9764 7.42284 12.1622 8.37889 12.1622C8.88378 12.1622 9.29198 11.7699 9.29198 11.2847V10.3555C9.29198 9.99409 9.59276 9.69468 9.95799 9.69468C10.3232 9.69468 10.624 9.99409 10.624 10.3555C10.624 10.6342 10.7637 10.8923 10.9892 11.0575L11.4297 11.3776L10.914 11.8938Z" fill="#F4F0EA"/>
<path d="M30.25 14.9808V13.2153H27.5C26.9951 13.2153 26.5869 13.6077 26.5869 14.0929V16.736H24.75V18.5015H26.5869V22.0222H28.4238V18.5015H30.2607V16.736H28.4238V14.9705H30.25V14.9808Z" fill="#F4F0EA"/>
<path d="M33 9.69482H22C20.4854 9.69482 19.25 10.8821 19.25 12.3379V22.9102C19.25 24.3659 20.4854 25.5532 22 25.5532H33C34.5147 25.5532 35.75 24.3659 35.75 22.9102V12.3379C35.75 10.8821 34.5147 9.69482 33 9.69482ZM33.9131 22.9102C33.9131 23.3954 33.5049 23.7877 33 23.7877H22C21.4951 23.7877 21.0869 23.3954 21.0869 22.9102V12.3379C21.0869 11.8526 21.4951 11.4603 22 11.4603H33C33.5049 11.4603 33.9131 11.8526 33.9131 12.3379V22.9102Z" fill="#F4F0EA"/>
<path d="M13.75 4.40845H2.75C1.23535 4.40845 0 5.59576 0 7.05151V17.6238C0 19.0795 1.23535 20.2668 2.75 20.2668H13.75C15.2646 20.2668 16.5 19.0795 16.5 17.6238V7.05151C16.5 5.59576 15.2646 4.40845 13.75 4.40845ZM14.6631 17.6238C14.6631 18.109 14.2549 18.5014 13.75 18.5014H2.75C2.24512 18.5014 1.83691 18.109 1.83691 17.6238V7.05151C1.83691 6.56626 2.24512 6.17393 2.75 6.17393H13.75C14.2549 6.17393 14.6631 6.56626 14.6631 7.05151V17.6238Z" fill="#F4F0EA"/>
<path d="M52.25 0H41.25C39.7354 0 38.5 1.18731 38.5 2.64307V13.2153C38.5 14.6711 39.7354 15.8584 41.25 15.8584H52.25C53.7646 15.8584 55 14.6711 55 13.2153V2.64307C55 1.18731 53.7646 0 52.25 0ZM53.1631 13.2153C53.1631 13.7006 52.7549 14.0929 52.25 14.0929H41.25C40.7451 14.0929 40.3369 13.7006 40.3369 13.2153V8.80678H42.2598C42.6895 10.8097 44.5371 12.3274 46.75 12.3274C48.9629 12.3274 50.8105 10.8097 51.2402 8.80678H53.1631V13.2153ZM44 7.9292C44 6.47345 45.2354 5.28613 46.75 5.28613C48.2646 5.28613 49.5 6.47345 49.5 7.9292C49.5 9.38495 48.2646 10.5723 46.75 10.5723C45.2354 10.5723 44 9.38495 44 7.9292ZM53.1631 7.05162H51.2402C50.8105 5.04867 48.9629 3.53097 46.75 3.53097C44.5371 3.53097 42.6895 5.04867 42.2598 7.05162H40.3369V2.64307C40.3369 2.15782 40.7451 1.76549 41.25 1.76549H52.25C52.7549 1.76549 53.1631 2.15782 53.1631 2.64307V7.05162Z" fill="#F4F0EA"/>
<path d="M28.4238 36.1252H26.5869V37.8906H28.4238V36.1252Z" fill="#F4F0EA"/>
</svg>
