<svg width="55" height="53" viewBox="0 0 55 53" fill="none" xmlns="http://www.w3.org/2000/svg">
<path d="M28.4293 44.0544H26.592V45.8198H28.4293V44.0544Z" fill="#F4F0EA"/>
<path d="M54.0973 45.8097H53.184V14.0929C53.184 12.1416 51.5401 10.5723 49.5202 10.5723H44.0192V3.52065C44.0192 1.56932 42.3753 0 40.3554 0H14.6659C12.6352 0 11.0021 1.57965 11.0021 3.52065V10.5723H5.50105C3.47039 10.5723 1.83727 12.1519 1.83727 14.0929V45.8097H0.913261C0.408281 45.8097 0 46.202 0 46.6873V49.3304C0 51.2817 1.64387 52.8613 3.66379 52.8613H51.336C53.3667 52.8613 54.9998 51.2817 54.9998 49.3407V46.6976C55.0105 46.2124 54.6023 45.8097 54.0973 45.8097ZM12.8394 3.52065C12.8394 2.55015 13.6559 1.75516 14.6766 1.75516H40.3446C41.3546 1.75516 42.1819 2.53982 42.1819 3.52065V7.04129H12.8394V3.52065ZM12.8394 8.80678H42.1819V34.3599C42.1819 35.3304 41.3653 36.1253 40.3446 36.1253H14.6659C13.6559 36.1253 12.8286 35.3407 12.8286 34.3599L12.8394 8.80678ZM14.6659 37.8805H40.3339C42.3646 37.8805 43.9977 36.3009 43.9977 34.3599V15.8584H47.6615V40.5236H7.33832V15.8584H11.0021V34.3599C11.0021 36.3112 12.646 37.8805 14.6659 37.8805ZM3.66379 14.0929C3.66379 13.1224 4.48035 12.3274 5.50105 12.3274H11.0021V14.0929H6.41432C5.90934 14.0929 5.50105 14.4852 5.50105 14.9705V41.4012C5.50105 41.8864 5.90934 42.2787 6.41432 42.2787H48.5855C49.0905 42.2787 49.4987 41.8864 49.4987 41.4012V14.9705C49.4987 14.4852 49.0905 14.0929 48.5855 14.0929H43.9977V12.3274H49.4987C50.5087 12.3274 51.336 13.1121 51.336 14.0929V45.8097H35.7569C35.5097 45.8097 35.2841 45.9026 35.1122 46.0678L33.5435 47.5752H21.467L19.8983 46.0678C19.7264 45.9026 19.4901 45.8097 19.2537 45.8097H3.66379V14.0929ZM53.1733 49.3407C53.1733 50.3112 52.3567 51.1062 51.336 51.1062H3.66379C2.65383 51.1062 1.82652 50.3215 1.82652 49.3407V47.5752H18.8669L20.4356 49.0826C20.6075 49.2478 20.8438 49.3407 21.0802 49.3407H33.9196C34.1667 49.3407 34.3923 49.2478 34.5642 49.0826L36.1329 47.5752H53.1733V49.3407Z" fill="#F4F0EA"/>
<path d="M39.4313 28.196H15.5898V29.9614H39.4313V28.196Z" fill="#F4F0EA"/>
<path d="M37.5941 31.7166H15.5898V33.4822H37.5941V31.7166Z" fill="#F4F0EA"/>
<path d="M39.4313 24.665H21.0908V26.4307H39.4313V24.665Z" fill="#F4F0EA"/>
<path d="M16.5033 3.52075H14.666V5.28613H16.5033V3.52075Z" fill="#F4F0EA"/>
<path d="M20.1779 3.52075H18.3406V5.28613H20.1779V3.52075Z" fill="#F4F0EA"/>
<path d="M23.8414 3.52075H22.0042V5.28613H23.8414V3.52075Z" fill="#F4F0EA"/>
<path d="M19.2538 24.665H17.4165V26.4307H19.2538V24.665Z" fill="#F4F0EA"/>
<path d="M24.3894 14.8051L23.2935 13.3906L19.6297 16.0338C19.2214 16.3229 19.1462 16.8804 19.447 17.2624C19.5007 17.3243 19.5652 17.3863 19.6297 17.4379L23.2935 20.0811L24.3894 18.6666L21.7033 16.7255L24.3894 14.8051Z" fill="#F4F0EA"/>
<path d="M35.5742 16.2092C35.5205 16.1473 35.456 16.0853 35.3916 16.0337L31.7278 13.3906L30.6211 14.8051L33.3072 16.7461L30.6211 18.6871L31.717 20.1016L35.3808 17.4585C35.7998 17.1488 35.8751 16.6016 35.5742 16.2092Z" fill="#F4F0EA"/>
<path d="M28.4926 12.0036L24.8245 20.8124L26.5302 21.4682L30.1984 12.6595L28.4926 12.0036Z" fill="#F4F0EA"/>
</svg>
