<svg width="55" height="53" viewBox="0 0 55 53" fill="none" xmlns="http://www.w3.org/2000/svg">
<path d="M54.726 14.3515L40.064 0.262625C39.7955 0.00458732 39.4088 -0.0676631 39.0651 0.0768378C38.7214 0.211017 38.4958 0.530984 38.4958 0.892236V2.65721H36.659C36.1542 2.65721 35.746 3.04943 35.746 3.53454V5.29951H33.9092C33.544 5.29951 33.2003 5.51627 33.0607 5.84655C32.921 6.17684 32.9962 6.55874 33.254 6.80645L36.2723 9.70679H18.7102L21.7285 6.80645C21.9863 6.55874 22.0723 6.17684 21.9219 5.84655C21.7823 5.51627 21.4493 5.29951 21.0733 5.29951H19.2366V3.52422C19.2366 3.03911 18.8284 2.64689 18.3235 2.64689H16.4868V0.881914C16.4868 0.530984 16.2612 0.200696 15.9175 0.0665163C15.5738 -0.0676631 15.1763 0.00458732 14.9185 0.252303L0.26734 14.3515C0.00954786 14.5992 -0.0763829 14.9811 0.0739959 15.3114C0.213633 15.6417 0.546615 15.8584 0.922562 15.8584H2.75933V17.6234C2.75933 18.1085 3.1675 18.5007 3.67235 18.5007H5.50912V20.2657C5.50912 20.6166 5.73468 20.9469 6.07841 21.0811C6.19656 21.1224 6.31472 21.143 6.43287 21.143C6.66918 21.143 6.90549 21.0501 7.07735 20.885L10.0957 17.9846V51.9733C10.0957 52.2314 10.2138 52.4791 10.4287 52.6545C10.5898 52.7887 10.8046 52.861 11.0087 52.861C11.0624 52.861 11.1161 52.8506 11.1805 52.8403L40.4292 47.566C43.9524 46.8642 44.9191 44.5212 44.9191 44.0464V17.9846L47.9374 20.885C48.1093 21.0501 48.3456 21.143 48.5819 21.143C48.7001 21.143 48.8182 21.1224 48.9364 21.0811C49.2801 20.9469 49.5057 20.6269 49.5057 20.2657V18.5007H51.3424C51.8473 18.5007 52.2554 18.1085 52.2554 17.6234V15.8584H54.0922C54.4574 15.8584 54.8011 15.6417 54.9408 15.3114C55.0697 14.9811 54.9837 14.6095 54.726 14.3515ZM10.9979 9.69647C10.4931 9.69647 10.0849 10.0887 10.0849 10.5738V15.4972L7.33514 18.1395V17.6234C7.33514 17.1383 6.92697 16.7461 6.42213 16.7461H4.58536V14.9811C4.58536 14.496 4.17719 14.1038 3.67235 14.1038H3.13528L14.6607 3.00814V3.52422C14.6607 4.00933 15.0689 4.40154 15.5738 4.40154H17.4105V6.16652C17.4105 6.65163 17.8187 7.04385 18.3235 7.04385H18.8606L16.1108 9.68615L10.9979 9.69647ZM14.2848 11.4511L11.911 13.7322V11.4511H14.2848ZM25.155 48.5259L36.3153 45.0786C36.5946 45.4192 37.0135 45.8733 37.5076 46.2965L25.155 48.5259ZM43.0823 43.7884C43.0823 44.5006 41.4604 45.8011 40.3326 45.8011C39.3229 45.8011 37.9372 44.2838 37.4324 43.551C37.2068 43.2207 36.7772 43.0762 36.3905 43.2L11.9217 50.7554V16.2197L16.8842 11.4511H38.1198L43.0823 16.2197V43.7884ZM43.0823 13.7322L40.7085 11.4511H43.0823V13.7322ZM51.3317 14.0934C50.8268 14.0934 50.4187 14.4856 50.4187 14.9708V16.7357H48.5819C48.0771 16.7357 47.6689 17.128 47.6689 17.6131V18.1291L44.9191 15.4868V10.5635C44.9191 10.0784 44.5109 9.68615 44.0061 9.68615H38.8825L36.1327 7.04385H36.6698C37.1746 7.04385 37.5828 6.65163 37.5828 6.16652V4.41187H39.4195C39.9244 4.41187 40.3326 4.01965 40.3326 3.53454V3.01846L51.8688 14.1038H51.3317V14.0934Z" fill="#F4F0EA"/>
<path d="M34.8329 17.6235H20.1602C19.6554 17.6235 19.2472 18.0158 19.2472 18.5009V34.3548C19.2472 34.84 19.6554 35.2322 20.1602 35.2322H34.8221C35.327 35.2322 35.7351 34.84 35.7351 34.3548V18.5009C35.7459 18.0158 35.3377 17.6235 34.8329 17.6235ZM33.9091 33.4775H21.084V19.3782H33.9199L33.9091 33.4775Z" fill="#F4F0EA"/>
<path d="M21.084 13.2163H19.2472V15.8586H21.084V13.2163Z" fill="#F4F0EA"/>
<path d="M24.7467 13.2163H22.9099V15.8586H24.7467V13.2163Z" fill="#F4F0EA"/>
<path d="M28.4203 13.2163H26.5835V15.8586H28.4203V13.2163Z" fill="#F4F0EA"/>
<path d="M32.083 13.2163H30.2462V15.8586H32.083V13.2163Z" fill="#F4F0EA"/>
<path d="M35.746 13.2163H33.9092V15.8586H35.746V13.2163Z" fill="#F4F0EA"/>
<path d="M35.7459 36.9972H19.2472V38.7622H35.7459V36.9972Z" fill="#F4F0EA"/>
<path d="M23.8337 40.517H19.2472V42.2819H23.8337V40.517Z" fill="#F4F0EA"/>
<path d="M35.7459 40.517H25.6598V42.2819H35.7459V40.517Z" fill="#F4F0EA"/>
<path d="M25.6598 44.0468H19.2472V45.8119H25.6598V44.0468Z" fill="#F4F0EA"/>
</svg>
