<svg width="47" height="43" viewBox="0 0 47 43" fill="none" xmlns="http://www.w3.org/2000/svg">
<path fill-rule="evenodd" clip-rule="evenodd" d="M45.2516 15.0008C44.9041 15.3564 45.1703 16.36 45.2424 16.7891C45.8548 20.4309 45.1709 24.9338 43.5125 28.1502C42.4737 30.165 41.5284 31.4128 40.1404 32.7995C35.761 37.1744 29.1841 39.7349 21.9849 39.0473C19.5814 38.8177 17.3491 38.1912 15.3716 37.3506C12.472 36.1181 9.10019 33.5273 7.34407 31.2025C5.73314 29.0701 4.80101 27.5529 4.02563 24.6822C2.76792 20.0258 3.55047 15.7625 5.55559 11.8733C5.9874 11.0358 6.62643 10.0876 7.13912 9.41405C7.46199 8.98986 7.71968 8.70753 8.04101 8.32729C9.52566 6.5705 11.3014 5.01188 13.6077 3.84484C15.1727 3.05289 17.8028 2.06715 19.6503 1.61566C22.0758 1.02287 24.7463 1.0273 27.3749 0.937826L25.3436 0.520688C23.176 0.302584 20.943 0.460197 18.836 0.874805C16.3381 1.36629 13.9753 2.14514 11.8666 3.12684C9.44958 4.25204 8.31226 5.21028 6.51849 6.86305C4.97363 8.28644 3.57652 10.0981 2.57084 11.8619C-0.912509 17.9714 -1.02947 26.1612 3.29001 32.2745C7.16216 37.7547 13.1728 41.6771 20.7083 42.3095C25.7879 42.7358 31.8391 41.5466 35.7936 38.995C36.314 38.6592 36.6921 38.5175 37.2125 38.1206C38.0606 37.4739 39.0238 36.8424 39.7985 36.1285C41.7752 34.3071 43.3797 32.0832 44.4975 29.6438C46.6786 24.8841 46.6894 20.0864 45.2516 15.0008Z" fill="#FF7C1F"/>
<path fill-rule="evenodd" clip-rule="evenodd" d="M18.31 30.8617C19.6012 30.8516 21.1731 30.9232 22.4261 30.8422C22.9213 30.8101 23.3767 30.4233 23.6589 30.1689C23.8705 29.9781 23.9419 29.8348 24.1479 29.6574C24.3991 29.4411 24.4617 29.4846 24.7103 29.215C27.4144 26.2819 27.5306 22.0931 29.3047 18.4778C29.6287 17.8176 30.4684 16.568 30.8744 16.1765L32.9738 14.3335C32.9036 13.36 31.0333 11.4482 30.4614 11.1223C29.6186 11.3297 28.5533 12.3796 28.0983 12.8014C24.4172 16.2147 25.5976 21.5315 21.5484 26.1783C21.0413 26.7602 20.0258 27.6938 19.3817 28.114C17.8789 29.0944 18.2785 28.5754 18.31 30.8617Z" fill="#FF7C1F"/>
<path fill-rule="evenodd" clip-rule="evenodd" d="M14.708 24.6543C15.1848 25.4899 16.6168 27.2096 17.3012 27.9889C18.8883 27.0638 20.2363 26.0546 21.2934 24.5789C23.2662 21.8253 23.4713 19.0021 24.3239 16.5862C24.8432 15.1147 25.9845 13.06 27.0879 11.9875L29.2252 10.3114C29.1117 10.1398 29.2177 10.2357 28.9912 10.0518C28.9386 10.0091 28.7622 9.90437 28.6495 9.84412C27.8225 9.40201 27.5115 9.22713 26.5262 8.90603C24.596 8.27698 24.3373 8.42791 23.4647 9.31275C21.7078 11.0943 21.4071 12.7058 20.9115 14.7909C20.4327 16.8055 19.6661 18.8621 18.6613 20.4652C16.9929 23.1273 15.1182 24.1076 14.708 24.6543Z" fill="#FF7C1F"/>
<path fill-rule="evenodd" clip-rule="evenodd" d="M13.5459 8.88441C13.7073 9.0645 13.9693 8.71909 14.6219 8.31831C19.8883 5.08416 27.4235 4.96333 32.6325 8.22577C33.4652 8.74728 33.9665 9.14592 34.6551 9.67925C34.9984 9.94522 35.2322 10.1404 35.5335 10.4471C35.6945 10.6109 35.769 10.7139 35.9226 10.8746C37.1121 12.1194 36.8105 11.7235 37.8545 13.2793C38.6894 14.5235 39.4376 16.4187 39.7318 18.0867C40.0673 19.9881 39.8423 22.271 39.4153 24.0999C39.1499 25.2361 38.651 26.684 37.9521 27.6229C37.6023 28.0929 37.3003 28.1736 37.5925 28.6644C37.8155 28.5234 37.8551 28.3649 38.0403 28.1333C38.3455 27.7516 38.6186 27.5586 39.3803 26.5792C41.101 24.3666 42.1224 20.772 41.8881 17.8781C41.2457 9.94227 33.7088 3.47246 24.551 4.07872C21.4099 4.28673 18.0062 5.42318 15.6668 7.09736C14.6208 7.84598 14.1486 8.40934 13.5459 8.88441Z" fill="#FF7C1F"/>
<path fill-rule="evenodd" clip-rule="evenodd" d="M13.7913 23.7044C14.1671 23.5734 14.4594 23.3421 14.7232 23.1343C15.7339 22.3381 16.1004 22.2186 17.1028 20.9575C19.1791 18.3451 19.2062 13.6374 21.2122 10.3895L22.4104 8.55281C19.9003 8.26268 16.4292 10.1137 15.0747 11.5004C13.1709 13.4494 12.0776 15.8623 12.183 18.68C12.2682 20.9562 12.9197 21.9695 13.7913 23.7044Z" fill="#FF7C1F"/>
<path fill-rule="evenodd" clip-rule="evenodd" d="M24.9966 30.8937L27.8693 30.9047C28.0183 29.7252 27.7506 29.7067 28.4049 28.7499L30.8089 25.6447C32.0995 23.8165 33.3158 22.816 33.8231 20.4072C34.1885 18.6722 33.8778 17.2783 33.6613 15.6055C30.191 16.4772 29.0873 24.0041 27.5014 27.3264C26.3761 29.6836 25.4545 29.9402 24.9966 30.8937Z" fill="#FF7C1F"/>
<path fill-rule="evenodd" clip-rule="evenodd" d="M19.6169 34.6799C19.648 36.202 21.4158 37.4069 23.1934 37.404C25.0427 37.401 26.6402 36.2113 26.7587 34.6685L19.6169 34.6799Z" fill="#FF7C1F"/>
<path fill-rule="evenodd" clip-rule="evenodd" d="M18.4416 32.5895C19.4022 32.8825 22.67 32.7139 23.9433 32.6502C24.6815 32.6133 27.486 32.6694 27.8664 32.4371C28.1935 32.2374 28.183 31.7167 27.8864 31.4839C27.4731 31.1595 23.38 31.4007 22.5249 31.4158C21.6405 31.4313 20.7283 31.4437 19.8451 31.4767C18.7328 31.5182 18.0276 31.4767 18.4416 32.5895Z" fill="#FF7C1F"/>
<path fill-rule="evenodd" clip-rule="evenodd" d="M27.9571 33.9799C28.2614 33.7106 28.0988 33.1494 27.8138 33.016C27.5014 32.8697 26.8104 32.9259 26.4451 32.9345C24.9463 32.9698 18.8374 32.8862 18.4522 33.3452C18.1735 33.6772 18.3388 34.0941 18.6323 34.2326C19.0389 34.4245 27.6209 34.2777 27.9571 33.9799Z" fill="#FF7C1F"/>
</svg>
