<svg width="109" height="109" viewBox="0 0 109 109" fill="none" xmlns="http://www.w3.org/2000/svg">
<g clip-path="url(#clip0_303_3742)">
<g style="mix-blend-mode:screen" opacity="0.38">
<g style="mix-blend-mode:screen" opacity="0.38">
<path d="M75.5659 104.87L75.1796 105.033C74.6529 105.244 74.0757 105.296 73.5199 105.182C72.9641 105.067 72.4543 104.792 72.0539 104.39L4.7411 36.5207C4.34019 36.1196 4.06727 35.6087 3.95683 35.0526C3.84639 34.4965 3.9034 33.9201 4.12065 33.3964L4.28454 33.0103L75.5659 104.87Z" fill="url(#paint0_linear_303_3742)" fill-opacity="0.9616"/>
</g>
<g style="mix-blend-mode:screen" opacity="0.38">
<path d="M82.4026 101.418C81.8662 101.737 81.2383 101.868 80.6188 101.789C79.9994 101.711 79.424 101.428 78.9843 100.985L8.21797 29.6051C7.77658 29.1638 7.49625 28.5871 7.42195 27.9675C7.34766 27.3479 7.48369 26.7213 7.80824 26.1882L82.4026 101.418Z" fill="url(#paint1_linear_303_3742)" fill-opacity="0.9616"/>
</g>
<g style="mix-blend-mode:screen" opacity="0.38">
<path d="M88.49 97.1932C87.9164 97.6496 87.3193 98.0942 86.7691 98.5155L10.6763 21.8703C11.1095 21.2852 11.5543 20.7001 12.0109 20.1619L88.49 97.1932Z" fill="url(#paint2_linear_303_3742)" fill-opacity="0.9616"/>
</g>
<g style="mix-blend-mode:screen" opacity="0.38">
<path d="M59.0129 108.895L57.4091 109C57.0102 109.017 56.6123 108.949 56.2412 108.802C55.8701 108.655 55.5341 108.431 55.2551 108.146L0.831211 53.3006C0.547989 53.0162 0.327667 52.6755 0.18449 52.3006C0.0413132 51.9256 -0.0215263 51.5249 4.57764e-05 51.1241C4.57764e-05 50.5859 0.0702858 50.0593 0.117111 49.5327L59.0129 108.895Z" fill="url(#paint3_linear_303_3742)" fill-opacity="0.9616"/>
</g>
<g style="mix-blend-mode:screen" opacity="0.38">
<path d="M35.1899 105.583C33.4997 104.942 31.8431 104.216 30.2263 103.407C29.9384 103.265 29.677 103.075 29.4537 102.845L5.92348 79.1261C5.6927 78.8988 5.50264 78.6336 5.36156 78.3421C4.58113 76.7272 3.87093 75.0695 3.23097 73.3689L35.1899 105.583Z" fill="url(#paint4_linear_303_3742)" fill-opacity="0.9616"/>
</g>
<g style="mix-blend-mode:screen" opacity="0.38">
<path d="M67.8396 107.444L66.9382 107.666C66.4587 107.772 65.9602 107.755 65.4893 107.615C65.0184 107.476 64.5905 107.22 64.2457 106.871L2.20078 44.314C1.85348 43.9682 1.60024 43.5396 1.46503 43.0686C1.32983 42.5976 1.31713 42.0999 1.42815 41.6227C1.49838 41.3184 1.58033 41.0142 1.66227 40.71L67.8396 107.444Z" fill="url(#paint5_linear_303_3742)" fill-opacity="0.9616"/>
</g>
<g style="mix-blend-mode:screen" opacity="0.38">
<path d="M48.6292 108.825C47.7629 108.731 46.8966 108.614 46.0303 108.474C45.4291 108.377 44.875 108.09 44.4499 107.654L1.29944 64.1012C0.864254 63.6727 0.580677 63.114 0.49168 62.5098C0.3512 61.6439 0.245842 60.778 0.152187 59.9004L48.6292 108.825Z" fill="url(#paint6_linear_303_3742)" fill-opacity="0.9616"/>
</g>
<g style="mix-blend-mode:screen" opacity="0.38">
<path d="M98.5811 86.6618C98.1479 87.2468 97.7148 87.8319 97.2699 88.3936L20.9547 11.4676C21.5166 11.0229 22.1253 10.59 22.6873 10.1687L98.5811 86.6618Z" fill="url(#paint7_linear_303_3742)" fill-opacity="0.9616"/>
</g>
<g style="mix-blend-mode:screen" opacity="0.38">
<path d="M107.501 43.9043C107.929 44.3246 108.211 44.8695 108.309 45.4606C108.461 46.3499 108.578 47.2393 108.684 48.152L61.3073 0.38623C62.2087 0.503246 63.1101 0.631963 63.9998 0.784083C64.5837 0.891186 65.1198 1.17749 65.5334 1.60319L107.501 43.9043Z" fill="url(#paint8_linear_303_3742)" fill-opacity="0.9616"/>
</g>
<g style="mix-blend-mode:screen" opacity="0.38">
<path d="M102.14 28.1423C102.348 28.3471 102.522 28.5842 102.655 28.8444C103.593 30.5988 104.433 32.4036 105.172 34.2505L75.1796 4.02539C77.0213 4.77346 78.8192 5.62513 80.5646 6.57633C80.8211 6.71451 81.0542 6.89222 81.2553 7.1029L102.14 28.1423Z" fill="url(#paint9_linear_303_3742)" fill-opacity="0.9616"/>
</g>
<g style="mix-blend-mode:screen" opacity="0.38">
<path d="M108.157 54.9151C108.436 55.1935 108.654 55.5262 108.799 55.8925C108.944 56.2589 109.012 56.651 109 57.0448C109 57.6064 108.941 58.2149 108.894 58.7064L50.736 0.0932984C51.298 0.0932984 51.9067 0.0230891 52.3984 -0.000314018C52.793 -0.0101751 53.1854 0.0604892 53.5517 0.207361C53.9181 0.354232 54.2506 0.574227 54.529 0.8539L108.157 54.9151Z" fill="url(#paint10_linear_303_3742)" fill-opacity="0.9616"/>
</g>
<g style="mix-blend-mode:screen" opacity="0.38">
<path d="M104.458 71.8827C104.851 72.2789 105.121 72.7802 105.235 73.3263C105.349 73.8724 105.303 74.4399 105.102 74.9602C105.102 75.1124 104.985 75.2528 104.914 75.4049L34.0075 3.9201L34.4523 3.74458C34.9729 3.54427 35.5407 3.50069 36.0858 3.61922C36.6308 3.73774 37.1292 4.01319 37.5195 4.41157L104.458 71.8827Z" fill="url(#paint11_linear_303_3742)" fill-opacity="0.9616"/>
</g>
<g style="mix-blend-mode:screen" opacity="0.38">
<path d="M101.075 78.8336C101.513 79.2737 101.793 79.8474 101.869 80.464C101.946 81.0806 101.814 81.705 101.496 82.2387L27.054 7.31366C27.606 6.98579 28.2521 6.85256 28.8888 6.9353C29.5256 7.01805 30.1161 7.31197 30.5659 7.77002L101.075 78.8336Z" fill="url(#paint12_linear_303_3742)" fill-opacity="0.9616"/>
</g>
<g style="mix-blend-mode:screen" opacity="0.38">
<path d="M17.033 14.8259L93.875 92.2785C93.3833 92.7934 92.8799 93.2966 92.3531 93.7997L15.4994 16.3822C16.0028 15.8089 16.5179 15.3174 17.033 14.8259Z" fill="url(#paint13_linear_303_3742)" fill-opacity="0.9616"/>
</g>
<g style="mix-blend-mode:screen" opacity="0.38">
<path d="M106.916 64.0194C107.263 64.3635 107.516 64.7897 107.653 65.2583C107.791 65.7269 107.807 66.2226 107.7 66.6991C107.63 67.015 107.548 67.331 107.478 67.6469L41.8041 1.43951L42.764 1.17037C43.2373 1.06996 43.7284 1.09136 44.1912 1.23259C44.6539 1.37382 45.0732 1.63023 45.4097 1.97778L106.916 64.0194Z" fill="url(#paint14_linear_303_3742)" fill-opacity="0.9616"/>
</g>
</g>
</g>
<defs>
<linearGradient id="paint0_linear_303_3742" x1="39.7339" y1="33.0103" x2="39.7339" y2="105.241" gradientUnits="userSpaceOnUse">
<stop stop-color="white"/>
<stop offset="1" stop-color="#FF7C1F" stop-opacity="0"/>
</linearGradient>
<linearGradient id="paint1_linear_303_3742" x1="44.9024" y1="26.1882" x2="44.9024" y2="101.812" gradientUnits="userSpaceOnUse">
<stop stop-color="white"/>
<stop offset="1" stop-color="#FF7C1F" stop-opacity="0"/>
</linearGradient>
<linearGradient id="paint2_linear_303_3742" x1="49.5832" y1="20.1619" x2="49.5832" y2="98.5155" gradientUnits="userSpaceOnUse">
<stop stop-color="white"/>
<stop offset="1" stop-color="#FF7C1F" stop-opacity="0"/>
</linearGradient>
<linearGradient id="paint3_linear_303_3742" x1="29.5044" y1="49.5327" x2="29.5044" y2="109.003" gradientUnits="userSpaceOnUse">
<stop stop-color="white"/>
<stop offset="1" stop-color="#FF7C1F" stop-opacity="0"/>
</linearGradient>
<linearGradient id="paint4_linear_303_3742" x1="19.2105" y1="73.3689" x2="19.2105" y2="105.583" gradientUnits="userSpaceOnUse">
<stop stop-color="white"/>
<stop offset="1" stop-color="#FF7C1F" stop-opacity="0"/>
</linearGradient>
<linearGradient id="paint5_linear_303_3742" x1="34.5965" y1="40.71" x2="34.5965" y2="107.734" gradientUnits="userSpaceOnUse">
<stop stop-color="white"/>
<stop offset="1" stop-color="#FF7C1F" stop-opacity="0"/>
</linearGradient>
<linearGradient id="paint6_linear_303_3742" x1="24.3907" y1="59.9004" x2="24.3907" y2="108.825" gradientUnits="userSpaceOnUse">
<stop stop-color="white"/>
<stop offset="1" stop-color="#FF7C1F" stop-opacity="0"/>
</linearGradient>
<linearGradient id="paint7_linear_303_3742" x1="59.7679" y1="10.1687" x2="59.7679" y2="88.3936" gradientUnits="userSpaceOnUse">
<stop stop-color="white"/>
<stop offset="1" stop-color="#FF7C1F" stop-opacity="0"/>
</linearGradient>
<linearGradient id="paint8_linear_303_3742" x1="84.9956" y1="0.38623" x2="84.9956" y2="48.152" gradientUnits="userSpaceOnUse">
<stop stop-color="white"/>
<stop offset="1" stop-color="#FF7C1F" stop-opacity="0"/>
</linearGradient>
<linearGradient id="paint9_linear_303_3742" x1="90.1757" y1="4.02539" x2="90.1757" y2="34.2505" gradientUnits="userSpaceOnUse">
<stop stop-color="white"/>
<stop offset="1" stop-color="#FF7C1F" stop-opacity="0"/>
</linearGradient>
<linearGradient id="paint10_linear_303_3742" x1="79.8686" y1="-0.0012207" x2="79.8686" y2="58.7064" gradientUnits="userSpaceOnUse">
<stop stop-color="white"/>
<stop offset="1" stop-color="#FF7C1F" stop-opacity="0"/>
</linearGradient>
<linearGradient id="paint11_linear_303_3742" x1="69.6518" y1="3.55396" x2="69.6518" y2="75.4049" gradientUnits="userSpaceOnUse">
<stop stop-color="white"/>
<stop offset="1" stop-color="#FF7C1F" stop-opacity="0"/>
</linearGradient>
<linearGradient id="paint12_linear_303_3742" x1="64.4722" y1="6.91138" x2="64.4722" y2="82.2387" gradientUnits="userSpaceOnUse">
<stop stop-color="white"/>
<stop offset="1" stop-color="#FF7C1F" stop-opacity="0"/>
</linearGradient>
<linearGradient id="paint13_linear_303_3742" x1="54.6872" y1="14.8259" x2="54.6872" y2="93.7997" gradientUnits="userSpaceOnUse">
<stop stop-color="white"/>
<stop offset="1" stop-color="#FF7C1F" stop-opacity="0"/>
</linearGradient>
<linearGradient id="paint14_linear_303_3742" x1="74.7869" y1="1.10815" x2="74.7869" y2="67.6469" gradientUnits="userSpaceOnUse">
<stop stop-color="white"/>
<stop offset="1" stop-color="#FF7C1F" stop-opacity="0"/>
</linearGradient>
<clipPath id="clip0_303_3742">
<rect width="109" height="109" fill="white" transform="matrix(-1 0 0 1 109 0)"/>
</clipPath>
</defs>
</svg>
