<svg width="38" height="24" viewBox="0 0 38 24" fill="none" xmlns="http://www.w3.org/2000/svg">
<path d="M34.71 21.9911C34.7085 21.6801 34.7892 21.3756 34.9418 21.1162C35.0944 20.8568 35.312 20.6542 35.567 20.534C35.8221 20.4139 36.1031 20.3816 36.3745 20.4413C36.6459 20.501 36.8954 20.6499 37.0915 20.8693C37.2875 21.0886 37.4213 21.3685 37.4757 21.6734C37.5302 21.9783 37.503 22.2945 37.3975 22.582C37.292 22.8695 37.113 23.1153 36.8832 23.2883C36.6534 23.4612 36.3831 23.5536 36.1066 23.5536C35.9235 23.5547 35.7421 23.515 35.5727 23.437C35.4033 23.359 35.2492 23.244 35.1195 23.0988C34.9897 22.9536 34.8867 22.781 34.8164 22.5909C34.7462 22.4008 34.71 22.1969 34.71 21.9911Z" fill="url(#paint0_linear_303_3728)"/>
<path d="M22.8208 21.9866C22.8208 21.6799 22.9023 21.38 23.0549 21.1249C23.2076 20.8698 23.4246 20.671 23.6784 20.5536C23.9323 20.4362 24.2116 20.4055 24.4811 20.4654C24.7506 20.5252 24.9981 20.6729 25.1924 20.8899C25.3867 21.1068 25.519 21.3832 25.5726 21.684C25.6262 21.9849 25.5987 22.2968 25.4936 22.5802C25.3884 22.8636 25.2103 23.1059 24.9819 23.2763C24.7534 23.4468 24.4848 23.5377 24.2101 23.5377C23.8416 23.5377 23.4882 23.3743 23.2277 23.0834C22.9672 22.7925 22.8208 22.398 22.8208 21.9866Z" fill="url(#paint1_linear_303_3728)"/>
<path d="M34.71 12.0192C34.71 11.7097 34.7919 11.4071 34.9453 11.1497C35.0988 10.8923 35.3169 10.6917 35.5721 10.5732C35.8273 10.4548 36.1081 10.4238 36.379 10.4842C36.65 10.5446 36.8988 10.6936 37.0941 10.9125C37.2894 11.1314 37.4224 11.4103 37.4763 11.7139C37.5302 12.0175 37.5026 12.3322 37.3969 12.6182C37.2912 12.9041 37.1122 13.1486 36.8825 13.3206C36.6528 13.4925 36.3828 13.5843 36.1066 13.5843C35.9229 13.5854 35.7409 13.5457 35.571 13.4674C35.4011 13.3891 35.2468 13.2739 35.1169 13.1283C34.987 12.9828 34.8842 12.8098 34.8143 12.6194C34.7445 12.4291 34.709 12.2251 34.71 12.0192Z" fill="url(#paint2_linear_303_3728)"/>
<path d="M22.8206 12.0266C22.822 11.719 22.9047 11.4188 23.0583 11.1638C23.2118 10.9088 23.4293 10.7106 23.6833 10.594C23.9372 10.4774 24.2163 10.4477 24.4853 10.5087C24.7544 10.5697 25.0012 10.7186 25.1948 10.9367C25.3883 11.1548 25.5199 11.4322 25.573 11.734C25.626 12.0358 25.598 12.3485 25.4927 12.6325C25.3873 12.9165 25.2092 13.1592 24.9809 13.33C24.7526 13.5007 24.4843 13.5918 24.2099 13.5918C24.0268 13.5918 23.8455 13.5513 23.6765 13.4725C23.5075 13.3937 23.354 13.2783 23.2249 13.1329C23.0958 12.9874 22.9936 12.8148 22.9242 12.625C22.8548 12.4351 22.8196 12.2318 22.8206 12.0266Z" fill="url(#paint3_linear_303_3728)"/>
<path d="M34.71 1.56487C34.71 1.25537 34.7919 0.952817 34.9453 0.695475C35.0988 0.438134 35.3169 0.237561 35.5721 0.119119C35.8273 0.000678027 36.1081 -0.0303116 36.379 0.0300692C36.65 0.09045 36.8988 0.239489 37.0941 0.45834C37.2894 0.677191 37.4224 0.956024 37.4763 1.25958C37.5302 1.56313 37.5026 1.87778 37.3969 2.16372C37.2912 2.44966 37.1122 2.69406 36.8825 2.86601C36.6528 3.03796 36.3828 3.12974 36.1066 3.12974C35.9229 3.13083 35.7409 3.09109 35.571 3.01283C35.4011 2.93458 35.2468 2.81935 35.1169 2.67382C34.987 2.52829 34.8842 2.35535 34.8143 2.165C34.7445 1.97465 34.709 1.77068 34.71 1.56487Z" fill="url(#paint4_linear_303_3728)"/>
<path d="M22.8206 1.57237C22.822 1.26475 22.9047 0.964509 23.0583 0.709521C23.2118 0.454533 23.4293 0.256228 23.6833 0.139629C23.9372 0.0230289 24.2163 -0.00664058 24.4853 0.0543639C24.7544 0.115368 25.0012 0.264313 25.1948 0.482404C25.3883 0.700495 25.5199 0.97796 25.573 1.27979C25.626 1.58162 25.598 1.89428 25.4927 2.17833C25.3873 2.46238 25.2092 2.70509 24.9809 2.87583C24.7526 3.04657 24.4843 3.13769 24.2099 3.1377C24.0268 3.1377 23.8455 3.09715 23.6765 3.01839C23.5075 2.93962 23.354 2.82419 23.2249 2.67873C23.0958 2.53327 22.9936 2.36064 22.9242 2.17078C22.8548 1.98091 22.8196 1.77755 22.8206 1.57237Z" fill="url(#paint5_linear_303_3728)"/>
<path d="M11.8893 21.9911C11.8879 21.6801 11.9685 21.3756 12.1211 21.1162C12.2737 20.8568 12.4913 20.6542 12.7463 20.534C13.0014 20.4139 13.2824 20.3816 13.5538 20.4413C13.8252 20.501 14.0747 20.6499 14.2708 20.8693C14.4668 21.0886 14.6006 21.3685 14.6551 21.6734C14.7095 21.9783 14.6823 22.2945 14.5768 22.582C14.4713 22.8695 14.2923 23.1153 14.0625 23.2883C13.8327 23.4612 13.5624 23.5536 13.2859 23.5536C13.1028 23.5547 12.9214 23.515 12.752 23.437C12.5826 23.359 12.4286 23.244 12.2988 23.0988C12.169 22.9536 12.066 22.781 11.9957 22.5909C11.9255 22.4008 11.8893 22.1969 11.8893 21.9911Z" fill="url(#paint6_linear_303_3728)"/>
<path d="M1.90502e-05 21.9901C-0.00142659 21.6789 0.0794354 21.3743 0.232336 21.1149C0.385236 20.8555 0.603275 20.653 0.858762 20.5332C1.11425 20.4133 1.39566 20.3816 1.66725 20.4419C1.93883 20.5022 2.18835 20.6519 2.3841 20.8719C2.57986 21.0919 2.71302 21.3724 2.76667 21.6776C2.82032 21.9829 2.79205 22.2992 2.68544 22.5864C2.57883 22.8736 2.3987 23.1186 2.16792 23.2905C1.93713 23.4624 1.66612 23.5532 1.38928 23.5516C1.02083 23.5516 0.667462 23.3871 0.406925 23.0942C0.146387 22.8014 1.90502e-05 22.4042 1.90502e-05 21.9901Z" fill="url(#paint7_linear_303_3728)"/>
<path d="M11.8893 12.0192C11.8893 11.7097 11.9712 11.4071 12.1247 11.1497C12.2781 10.8923 12.4962 10.6917 12.7514 10.5732C13.0066 10.4548 13.2874 10.4238 13.5584 10.4842C13.8293 10.5446 14.0781 10.6936 14.2734 10.9125C14.4688 11.1314 14.6018 11.4103 14.6557 11.7139C14.7095 12.0175 14.6819 12.3322 14.5762 12.6182C14.4705 12.9041 14.2915 13.1486 14.0618 13.3206C13.8321 13.4925 13.5621 13.5843 13.2859 13.5843C13.1022 13.5854 12.9202 13.5457 12.7503 13.4674C12.5804 13.3891 12.4261 13.2739 12.2962 13.1283C12.1663 12.9828 12.0635 12.8098 11.9936 12.6194C11.9238 12.4291 11.8883 12.2251 11.8893 12.0192Z" fill="url(#paint8_linear_303_3728)"/>
<path d="M1.9244e-05 12.0182C2.30341e-05 11.7085 0.0821198 11.4057 0.235906 11.1484C0.389691 10.891 0.608243 10.6905 0.863864 10.5724C1.11948 10.4542 1.40067 10.4237 1.67178 10.4848C1.94289 10.5458 2.19172 10.6956 2.38675 10.9151C2.58177 11.1347 2.7142 11.4141 2.76726 11.7181C2.82032 12.022 2.79162 12.3368 2.68479 12.6224C2.57796 12.9081 2.39782 13.1518 2.16719 13.3226C1.93656 13.4935 1.66583 13.5839 1.3893 13.5823C1.20624 13.5823 1.02499 13.5417 0.855953 13.463C0.686919 13.3843 0.53344 13.269 0.404337 13.1237C0.275234 12.9783 0.173053 12.8058 0.103666 12.6161C0.0342796 12.4264 -0.000944231 12.2232 1.9244e-05 12.0182Z" fill="url(#paint9_linear_303_3728)"/>
<path d="M11.8893 1.56487C11.8893 1.25537 11.9712 0.952817 12.1247 0.695475C12.2781 0.438134 12.4962 0.237561 12.7514 0.119119C13.0066 0.000678027 13.2874 -0.0303116 13.5584 0.0300692C13.8293 0.09045 14.0781 0.239489 14.2734 0.45834C14.4688 0.677191 14.6018 0.956024 14.6557 1.25958C14.7095 1.56313 14.6819 1.87778 14.5762 2.16372C14.4705 2.44966 14.2915 2.69406 14.0618 2.86601C13.8321 3.03796 13.5621 3.12974 13.2859 3.12974C13.1022 3.13083 12.9202 3.09109 12.7503 3.01283C12.5804 2.93458 12.4261 2.81935 12.2962 2.67382C12.1663 2.52829 12.0635 2.35535 11.9936 2.165C11.9238 1.97465 11.8883 1.77068 11.8893 1.56487Z" fill="url(#paint10_linear_303_3728)"/>
<path d="M1.9244e-05 1.56394C2.30341e-05 1.25427 0.0821198 0.951574 0.235906 0.694207C0.389691 0.43684 0.608243 0.23639 0.863864 0.118262C1.11948 0.000133777 1.40067 -0.0303561 1.67178 0.0306565C1.94289 0.091669 2.19172 0.241437 2.38675 0.460982C2.58177 0.680526 2.7142 0.959963 2.76726 1.26388C2.82032 1.5678 2.79162 1.88251 2.68479 2.16814C2.57796 2.45377 2.39782 2.69746 2.16719 2.86832C1.93656 3.03918 1.66583 3.12953 1.3893 3.12791C1.20624 3.12791 1.02499 3.0874 0.855953 3.0087C0.686919 2.93001 0.53344 2.81468 0.404337 2.66934C0.275234 2.52401 0.173053 2.35153 0.103666 2.16183C0.0342796 1.97213 -0.000944231 1.76894 1.9244e-05 1.56394Z" fill="url(#paint11_linear_303_3728)"/>
<defs>
<linearGradient id="paint0_linear_303_3728" x1="36.1065" y1="20.4121" x2="36.1065" y2="23.5536" gradientUnits="userSpaceOnUse">
<stop stop-color="#FF7C1F"/>
<stop offset="1" stop-color="#F6C90E"/>
</linearGradient>
<linearGradient id="paint1_linear_303_3728" x1="24.2101" y1="20.4355" x2="24.2101" y2="23.5377" gradientUnits="userSpaceOnUse">
<stop stop-color="#FF7C1F"/>
<stop offset="1" stop-color="#F6C90E"/>
</linearGradient>
<linearGradient id="paint2_linear_303_3728" x1="36.1066" y1="10.4541" x2="36.1066" y2="13.5844" gradientUnits="userSpaceOnUse">
<stop stop-color="#FF7C1F"/>
<stop offset="1" stop-color="#F6C90E"/>
</linearGradient>
<linearGradient id="paint3_linear_303_3728" x1="24.2098" y1="10.4778" x2="24.2098" y2="13.5918" gradientUnits="userSpaceOnUse">
<stop stop-color="#FF7C1F"/>
<stop offset="1" stop-color="#F6C90E"/>
</linearGradient>
<linearGradient id="paint4_linear_303_3728" x1="36.1066" y1="0" x2="36.1066" y2="3.12976" gradientUnits="userSpaceOnUse">
<stop stop-color="#FF7C1F"/>
<stop offset="1" stop-color="#F6C90E"/>
</linearGradient>
<linearGradient id="paint5_linear_303_3728" x1="24.2098" y1="0.0234375" x2="24.2098" y2="3.1377" gradientUnits="userSpaceOnUse">
<stop stop-color="#FF7C1F"/>
<stop offset="1" stop-color="#F6C90E"/>
</linearGradient>
<linearGradient id="paint6_linear_303_3728" x1="13.2859" y1="20.4121" x2="13.2859" y2="23.5536" gradientUnits="userSpaceOnUse">
<stop stop-color="#FF7C1F"/>
<stop offset="1" stop-color="#F6C90E"/>
</linearGradient>
<linearGradient id="paint7_linear_303_3728" x1="1.39658" y1="20.4121" x2="1.39658" y2="23.5516" gradientUnits="userSpaceOnUse">
<stop stop-color="#FF7C1F"/>
<stop offset="1" stop-color="#F6C90E"/>
</linearGradient>
<linearGradient id="paint8_linear_303_3728" x1="13.2859" y1="10.4541" x2="13.2859" y2="13.5844" gradientUnits="userSpaceOnUse">
<stop stop-color="#FF7C1F"/>
<stop offset="1" stop-color="#F6C90E"/>
</linearGradient>
<linearGradient id="paint9_linear_303_3728" x1="1.39661" y1="10.4541" x2="1.39661" y2="13.5823" gradientUnits="userSpaceOnUse">
<stop stop-color="#FF7C1F"/>
<stop offset="1" stop-color="#F6C90E"/>
</linearGradient>
<linearGradient id="paint10_linear_303_3728" x1="13.2859" y1="0" x2="13.2859" y2="3.12976" gradientUnits="userSpaceOnUse">
<stop stop-color="#FF7C1F"/>
<stop offset="1" stop-color="#F6C90E"/>
</linearGradient>
<linearGradient id="paint11_linear_303_3728" x1="1.39661" y1="0" x2="1.39661" y2="3.12793" gradientUnits="userSpaceOnUse">
<stop stop-color="#FF7C1F"/>
<stop offset="1" stop-color="#F6C90E"/>
</linearGradient>
</defs>
</svg>
