<svg width="186" height="43" viewBox="0 0 186 43" fill="none" xmlns="http://www.w3.org/2000/svg">
<path fill-rule="evenodd" clip-rule="evenodd" d="M45.2516 15.0008C44.9041 15.3564 45.1703 16.36 45.2424 16.7891C45.8548 20.4309 45.1709 24.9338 43.5125 28.1502C42.4737 30.165 41.5284 31.4128 40.1404 32.7995C35.761 37.1744 29.1841 39.7349 21.9849 39.0473C19.5814 38.8177 17.3491 38.1912 15.3716 37.3506C12.472 36.1181 9.10019 33.5273 7.34407 31.2025C5.73314 29.0701 4.80101 27.5529 4.02563 24.6822C2.76792 20.0258 3.55047 15.7625 5.55559 11.8733C5.9874 11.0358 6.62643 10.0876 7.13912 9.41405C7.46199 8.98986 7.71968 8.70753 8.04101 8.32729C9.52566 6.5705 11.3014 5.01188 13.6077 3.84484C15.1727 3.05289 17.8028 2.06715 19.6503 1.61566C22.0758 1.02287 24.7463 1.0273 27.3749 0.937826L25.3436 0.520688C23.176 0.302584 20.943 0.460197 18.836 0.874805C16.3381 1.36629 13.9753 2.14514 11.8666 3.12684C9.44958 4.25204 8.31226 5.21028 6.51849 6.86305C4.97363 8.28644 3.57652 10.0981 2.57084 11.8619C-0.912509 17.9714 -1.02947 26.1612 3.29001 32.2745C7.16216 37.7547 13.1728 41.6771 20.7083 42.3095C25.7879 42.7358 31.8391 41.5466 35.7936 38.995C36.314 38.6592 36.6921 38.5175 37.2125 38.1206C38.0606 37.4739 39.0238 36.8424 39.7985 36.1285C41.7752 34.3071 43.3797 32.0832 44.4975 29.6438C46.6786 24.8841 46.6894 20.0864 45.2516 15.0008V15.0008Z" fill="#FF7C1F"/>
<path fill-rule="evenodd" clip-rule="evenodd" d="M18.31 30.8617C19.6012 30.8516 21.1731 30.9232 22.4261 30.8422C22.9213 30.8101 23.3767 30.4233 23.6589 30.1689C23.8705 29.9781 23.9419 29.8348 24.1479 29.6574C24.3991 29.4411 24.4617 29.4846 24.7103 29.215C27.4144 26.2819 27.5306 22.0931 29.3047 18.4778C29.6287 17.8176 30.4684 16.568 30.8744 16.1765L32.9738 14.3335C32.9036 13.36 31.0333 11.4482 30.4614 11.1223C29.6186 11.3297 28.5533 12.3796 28.0983 12.8014C24.4172 16.2147 25.5976 21.5315 21.5484 26.1783C21.0413 26.7602 20.0258 27.6938 19.3817 28.114C17.8789 29.0944 18.2785 28.5754 18.31 30.8617V30.8617Z" fill="#FF7C1F"/>
<path fill-rule="evenodd" clip-rule="evenodd" d="M14.708 24.6543C15.1848 25.4899 16.6168 27.2096 17.3012 27.9889C18.8883 27.0638 20.2363 26.0546 21.2934 24.5789C23.2662 21.8253 23.4713 19.0021 24.3239 16.5862C24.8432 15.1147 25.9845 13.06 27.0879 11.9875L29.2252 10.3114C29.1117 10.1398 29.2177 10.2357 28.9912 10.0518C28.9386 10.0091 28.7622 9.90437 28.6495 9.84412C27.8225 9.40201 27.5115 9.22713 26.5262 8.90603C24.596 8.27698 24.3373 8.42791 23.4647 9.31275C21.7078 11.0943 21.4071 12.7058 20.9115 14.7909C20.4327 16.8055 19.6661 18.8621 18.6613 20.4652C16.9929 23.1273 15.1182 24.1076 14.708 24.6543V24.6543Z" fill="#FF7C1F"/>
<path fill-rule="evenodd" clip-rule="evenodd" d="M13.5459 8.88441C13.7073 9.0645 13.9693 8.71909 14.6219 8.31831C19.8883 5.08416 27.4235 4.96333 32.6325 8.22577C33.4652 8.74728 33.9665 9.14592 34.655 9.67925C34.9984 9.94522 35.2322 10.1404 35.5335 10.4471C35.6945 10.6109 35.769 10.7139 35.9226 10.8746C37.1121 12.1194 36.8105 11.7235 37.8545 13.2793C38.6894 14.5235 39.4376 16.4187 39.7318 18.0867C40.0673 19.9881 39.8423 22.271 39.4153 24.0999C39.1499 25.2361 38.651 26.684 37.9521 27.6229C37.6023 28.0929 37.3003 28.1736 37.5925 28.6644C37.8155 28.5234 37.8551 28.3649 38.0403 28.1333C38.3455 27.7516 38.6186 27.5586 39.3803 26.5792C41.101 24.3666 42.1224 20.772 41.8881 17.8781C41.2457 9.94227 33.7088 3.47246 24.551 4.07872C21.4099 4.28673 18.0062 5.42318 15.6668 7.09736C14.6208 7.84598 14.1486 8.40934 13.5459 8.88441V8.88441Z" fill="#FF7C1F"/>
<path fill-rule="evenodd" clip-rule="evenodd" d="M13.7913 23.7044C14.1671 23.5734 14.4594 23.3421 14.7232 23.1343C15.7339 22.3381 16.1004 22.2186 17.1028 20.9575C19.1791 18.3451 19.2062 13.6374 21.2122 10.3895L22.4104 8.55281C19.9003 8.26268 16.4292 10.1137 15.0747 11.5004C13.1709 13.4494 12.0776 15.8623 12.183 18.68C12.2682 20.9562 12.9197 21.9695 13.7913 23.7044Z" fill="#FF7C1F"/>
<path fill-rule="evenodd" clip-rule="evenodd" d="M24.9966 30.8937L27.8693 30.9047C28.0183 29.7252 27.7506 29.7067 28.4049 28.7499L30.8089 25.6447C32.0995 23.8165 33.3158 22.816 33.8231 20.4072C34.1885 18.6722 33.8778 17.2783 33.6613 15.6055C30.191 16.4772 29.0873 24.0041 27.5014 27.3264C26.3761 29.6836 25.4545 29.9402 24.9966 30.8937Z" fill="#FF7C1F"/>
<path fill-rule="evenodd" clip-rule="evenodd" d="M19.6169 34.6799C19.648 36.202 21.4158 37.4069 23.1934 37.404C25.0427 37.401 26.6402 36.2113 26.7587 34.6685L19.6169 34.6799Z" fill="#FF7C1F"/>
<path fill-rule="evenodd" clip-rule="evenodd" d="M18.4416 32.5895C19.4022 32.8825 22.67 32.7139 23.9433 32.6502C24.6815 32.6133 27.486 32.6694 27.8664 32.4371C28.1935 32.2374 28.183 31.7167 27.8864 31.4839C27.4731 31.1595 23.38 31.4007 22.5249 31.4158C21.6405 31.4313 20.7283 31.4437 19.8451 31.4767C18.7328 31.5182 18.0276 31.4767 18.4416 32.5895V32.5895Z" fill="#FF7C1F"/>
<path fill-rule="evenodd" clip-rule="evenodd" d="M27.9571 33.9799C28.2614 33.7106 28.0988 33.1494 27.8138 33.016C27.5014 32.8697 26.8104 32.9259 26.4451 32.9345C24.9463 32.9698 18.8374 32.8862 18.4522 33.3452C18.1735 33.6772 18.3388 34.0941 18.6323 34.2326C19.0389 34.4245 27.6209 34.2777 27.9571 33.9799V33.9799Z" fill="#FF7C1F"/>
<path fill-rule="evenodd" clip-rule="evenodd" d="M66.3989 29.8511C66.8991 29.9497 69.9776 30.0587 70.4204 29.8528C71.0166 29.5753 70.7816 27.2836 70.7816 26.5139C70.7816 24.3785 70.5771 21.2281 70.825 19.214L74.0889 26.1991C74.3053 26.6992 74.294 26.8249 74.6922 27.0328C75.1618 27.2474 77.0582 27.2465 77.5193 27.0315C77.9917 26.7965 78.2896 25.8053 78.6315 25.072L81.3842 19.2199C81.6397 21.3717 80.991 29.4579 81.7643 29.8788C82.5199 30.0154 85.1497 29.986 85.8104 29.8518C86.1724 28.8776 85.9702 22.6521 85.9702 21.0172C85.9702 19.722 86.2378 12.7482 85.7414 12.2288C85.2468 11.8617 81.8274 11.9426 81.0288 12.1174C80.2986 12.5029 76.7792 21.5133 76.0585 22.2416C75.2956 20.5258 74.517 18.8484 73.7058 17.1442C73.353 16.403 71.7021 12.3731 71.2475 12.1543C70.5647 11.9047 67.3129 11.9382 66.4665 12.1254C65.9802 13.0126 66.2477 19.3915 66.2477 21.0172C66.2477 22.627 66.0616 28.908 66.3989 29.8511V29.8511Z" fill="#FF7C1F"/>
<path fill-rule="evenodd" clip-rule="evenodd" d="M110.468 15.9219C111.218 15.8585 113.615 15.7988 114.22 16.0013C115.029 16.2723 115.769 17.143 115.759 18.2101C115.736 20.69 112.992 20.6807 110.462 20.4232L110.468 15.9219ZM116.908 23.3391C117.637 22.7628 118.02 22.7836 118.936 21.7481C119.367 21.2609 119.934 20.289 120.153 19.4192C121.021 15.969 118.328 12.0549 113.405 12.0332C111.907 12.0266 107.081 11.8862 106.032 12.1397C105.759 13.1458 105.8 29.1372 106.078 29.8415C106.886 30.0259 109.553 30.0604 110.29 29.8028C110.677 28.9044 110.415 25.4091 110.478 24.0842L112.204 24.0844L114.888 27.2435C116.247 28.6603 116.789 29.9105 117.982 29.946C120.763 30.0285 122.929 30.2937 121.633 28.8403C121.38 28.5577 121.269 28.4298 120.976 28.0883L116.908 23.3391Z" fill="#FF7C1F"/>
<path fill-rule="evenodd" clip-rule="evenodd" d="M161.12 15.8905C163.666 15.8676 166.45 15.5567 166.414 18.2048C166.377 20.9995 163.133 20.4746 161.115 20.4538L161.12 15.8905ZM167.564 23.3363C168.083 22.816 168.745 22.5812 169.279 22.0119C171.052 20.1193 171.506 17.8938 170.323 15.5321C168.506 11.9039 164.816 12.0328 161.7 12.0328C157.072 12.0328 156.566 11.5622 156.575 13.1923L156.611 29.4207C156.915 30.4111 160.651 29.9117 160.947 29.8477C161.345 28.7504 161.043 25.5755 161.139 24.074C161.946 24.0718 162.657 23.9081 163.104 24.3846L166.073 27.8045C167.124 28.9536 167.555 29.8392 168.314 29.9248C169.112 30.0151 172.031 29.9961 172.642 29.8322C172.79 29.0994 172.016 28.5225 171.599 28.0538L167.564 23.3363Z" fill="white"/>
<path fill-rule="evenodd" clip-rule="evenodd" d="M143.477 23.2724C143.663 22.2768 144.229 20.8916 144.536 19.8987C144.787 19.0854 145.21 17.2862 145.661 16.7335L147.748 23.2759L143.477 23.2724ZM136.772 29.8277C137.101 30.0067 140.357 30.0456 140.898 29.9169C141.671 29.7329 141.885 27.9644 142.181 27.1542L149.042 27.1517C149.337 27.8866 149.592 29.7423 150.391 29.9197C150.926 30.0384 154.12 29.9628 154.62 29.8711C154.839 29.0626 153.64 26.332 153.282 25.3564L150.115 16.4989C149.84 15.745 149.595 15.0896 149.309 14.2918C149.173 13.9133 149.058 13.5911 148.911 13.1856C148.723 12.668 148.731 12.4377 148.381 12.1882C147.783 11.9121 143.648 11.9449 142.841 12.1474C142.478 12.3751 136.539 29.2809 136.538 29.3728C136.534 29.773 136.61 29.6906 136.772 29.8278V29.8277Z" fill="white"/>
<path fill-rule="evenodd" clip-rule="evenodd" d="M135.169 15.9082C135.174 15.8111 135.342 15.5723 135.365 15.1592C135.589 11.2396 135.308 12.0363 131.752 12.0363C130.397 12.0363 124.635 11.8143 123.886 12.1822C123.386 12.7131 123.648 15.53 123.648 16.4997C123.648 18.785 123.476 28.989 123.806 29.8005C124.616 30.0843 133.823 30.0165 135.374 29.871C135.577 28.455 135.623 27.4741 135.364 26.0681C133.368 25.7053 130.21 26.2439 128.196 25.9313L128.192 22.9108C129.496 22.5294 133.039 23.0867 134.567 22.7052L134.656 21.874C134.84 18.393 134.679 18.9462 132.021 18.9466C130.747 18.9468 129.474 18.9467 128.197 18.9468L128.195 16.0035C129.97 16.0001 133.729 16.1612 135.169 15.9082H135.169Z" fill="#FF7C1F"/>
<path fill-rule="evenodd" clip-rule="evenodd" d="M56.4354 15.9966C63.7228 15.9966 63.6262 16.5236 63.6067 14.5418C63.6014 14.0052 63.7775 12.4787 63.3853 12.1878C63.0241 11.9196 52.618 11.9264 52.1244 12.1824C51.6384 12.6987 51.8972 15.539 51.8972 16.4937V27.8531C51.8963 29.037 51.6958 29.4245 52.2087 29.7885C52.6327 30.0876 62.5244 30.0365 63.5771 29.8612C63.7764 29.4034 63.9641 26.775 63.6082 26.3323C63.4108 26.0449 63.5972 26.0574 63.0362 25.9732L56.428 25.9702L56.4266 22.8195C57.9036 22.8195 61.8513 23.0798 62.7903 22.5944C62.9769 21.8865 63.0668 19.675 62.7061 19.1653C61.9864 18.635 57.7382 18.9407 56.4284 18.9407L56.4354 15.9966Z" fill="#FF7C1F"/>
<path fill-rule="evenodd" clip-rule="evenodd" d="M93.856 15.9047C96.427 15.8247 99.1852 15.6133 99.1548 18.2126C99.1253 20.7337 96.3373 20.5424 93.8524 20.4513L93.856 15.9047ZM93.8714 24.3413C97.4255 24.2563 99.2266 24.5659 101.505 22.7069C105.243 19.6583 104.139 13.6007 98.6682 12.2499C97.5869 11.983 90.6204 11.88 89.5484 12.1355C89.0223 12.9447 89.3168 19.4847 89.3168 21.0221C89.3168 22.7295 89.1004 28.7781 89.4784 29.8508C90.1077 29.9876 93.0464 30.1244 93.5267 29.8032C93.9221 29.5251 93.8654 29.4028 93.8565 28.5982L93.8714 24.3413Z" fill="#FF7C1F"/>
<path fill-rule="evenodd" clip-rule="evenodd" d="M171.886 12.1629C171.712 12.7829 171.534 15.587 172.081 15.8971C172.453 16.108 175.601 16.0063 176.274 16.0129L176.279 28.3551C176.27 29.5388 176.152 29.4693 176.597 29.7928C177.021 30.1253 180.037 29.9853 180.644 29.8571C181.075 28.8595 180.775 18.1551 180.824 16.0086C181.599 16.0107 184.706 16.1576 185.088 15.819C185.413 15.5314 185.439 12.4695 185.074 12.1934C184.558 11.9318 172.734 11.9198 171.886 12.1629V12.1629Z" fill="white"/>
<path fill-rule="evenodd" clip-rule="evenodd" d="M130.94 35.7576C134.076 34.8328 135.27 38.9863 132.447 39.8332C129.291 40.7799 128.034 36.6148 130.94 35.7576ZM128.406 38.3605C129.064 42.0826 135.606 41.2795 134.955 37.3212C134.331 33.5228 127.67 34.1921 128.406 38.3605Z" fill="white"/>
<path fill-rule="evenodd" clip-rule="evenodd" d="M76.2151 38.2526C75.9525 36.9781 76.9324 35.8663 78.0741 35.6909C79.5103 35.4704 80.7029 36.3793 80.8884 37.4081C81.4301 40.4115 76.741 40.8044 76.2151 38.2526V38.2526ZM75.2611 38.2526C75.432 39.7207 77.086 40.997 78.9766 40.793C80.6611 40.6112 82.0649 39.1984 81.8342 37.4034C81.3538 33.6663 74.7739 34.0651 75.2611 38.2526V38.2526Z" fill="white"/>
<path fill-rule="evenodd" clip-rule="evenodd" d="M84.0068 36.5067C84.5446 36.8006 85.2969 37.937 85.9004 38.2209C86.1944 37.9055 87.3393 36.7025 87.6622 36.5222L87.6955 40.7772L88.5355 40.7626C88.5997 39.9247 88.6872 35.2807 88.4487 34.8191C87.4558 34.8423 86.6685 36.6582 85.7018 37.0484C85.3089 36.5063 85.0557 36.323 84.5256 35.8072C84.0588 35.353 83.9084 34.7108 83.1021 34.8616L83.1262 40.7714L83.9922 40.7589L84.0068 36.5067Z" fill="white"/>
<path fill-rule="evenodd" clip-rule="evenodd" d="M97.1633 36.7119C97.1702 36.7312 98.781 38.6753 98.9521 38.8608C99.3331 39.2744 99.5317 39.5343 99.8872 39.9663C100.264 40.4236 100.294 40.7758 101.032 40.7807L101.032 34.7823L100.148 34.7933L100.101 38.8909C100.059 38.7672 98.5678 37.0182 98.3256 36.7428C97.2153 35.4803 97.0653 34.8159 96.2329 34.7815L96.2767 40.7899L97.1232 40.7942L97.1633 36.7119Z" fill="white"/>
<path fill-rule="evenodd" clip-rule="evenodd" d="M112.952 36.1558L113.746 37.6645L112.303 37.6754L112.952 36.1558ZM111.921 38.4883L114.08 38.5118C114.357 38.837 115.004 40.3385 115.195 40.7887L116.087 40.7891C115.977 40.2377 114.439 37.0388 114.004 36.1113C113.864 35.8119 113.787 35.6065 113.659 35.3291C113.273 34.4903 112.7 34.5556 112.346 35.3345C111.858 36.4079 110.023 40.2753 109.933 40.7893L110.819 40.7846L111.921 38.4883Z" fill="white"/>
<path fill-rule="evenodd" clip-rule="evenodd" d="M124.85 36.1301L125.608 37.6717L124.192 37.6352L124.85 36.1301ZM123.771 38.4805L126.047 38.5064L127.118 40.8009L127.983 40.7907C127.811 39.8898 125.851 36.2204 125.332 34.7815L124.602 34.8126C124.274 35.1922 121.937 40.2587 121.863 40.7992L122.737 40.7918L123.771 38.4805Z" fill="white"/>
<path fill-rule="evenodd" clip-rule="evenodd" d="M89.9744 34.8655C89.9483 37.3005 89.3208 40.7921 92.3623 40.8177C93.5862 40.828 94.6557 39.8773 94.7593 38.854C94.8604 37.8544 94.8267 35.8792 94.753 34.8288L93.8526 34.8353C93.8339 35.9329 93.8517 37.0374 93.8512 38.1358C93.8512 39.2008 93.5749 39.9709 92.3598 39.9634C91.1358 39.9558 90.9113 39.0699 90.915 38.0137C90.9183 36.9548 90.9408 35.8731 90.906 34.8L89.9744 34.8655Z" fill="white"/>
<path fill-rule="evenodd" clip-rule="evenodd" d="M151.182 34.7987C151.112 36.8233 150.41 40.8389 153.606 40.7848C156.576 40.7345 156.039 37.2963 155.939 34.7815L155.051 34.7892C154.904 37.57 155.667 39.8927 153.602 39.9334C152.311 39.9589 152.085 39.1199 152.087 37.9848C152.089 36.9668 152.141 35.8435 152.07 34.8085L151.182 34.7987Z" fill="white"/>
<path fill-rule="evenodd" clip-rule="evenodd" d="M159.739 36.1277C160.095 36.4707 160.356 37.1521 160.501 37.6801L159.065 37.6616L159.739 36.1277ZM157.626 40.776C158.806 38.0418 158.253 38.4766 160.927 38.5076L161.981 40.8017L162.879 40.7799C162.749 40.1294 161.861 38.4092 161.519 37.6797C161.267 37.1444 161.067 36.6856 160.806 36.126C160.712 35.925 160.132 33.9415 159.27 35.0698L156.735 40.802L157.626 40.776Z" fill="white"/>
<path fill-rule="evenodd" clip-rule="evenodd" d="M121.679 35.2574C120.621 34.9137 119.626 34.4935 118.327 35.1304C116.148 36.199 115.442 39.4626 118.948 40.6988C119.616 40.9341 118.999 40.6357 119.912 41.5499C119.508 41.9734 119.816 41.5321 118.912 41.5294C119.259 43.0341 121.428 42.0399 120.024 40.8327C120.724 40.7459 121.144 40.5695 121.681 40.3856C121.553 39.9416 121.483 39.9175 121.224 39.6166C119.419 40.3632 117.417 39.7106 117.452 37.7657C117.468 36.8284 118.066 36.2057 118.66 35.9273C119.915 35.3395 120.556 36.0097 121.379 35.9201L121.679 35.2574Z" fill="white"/>
<path fill-rule="evenodd" clip-rule="evenodd" d="M149.892 35.5156C149.132 35.0871 148.215 34.3431 146.849 35.0634C145.845 35.5931 145.776 36.8981 146.723 37.5224C147.415 37.9785 149.112 38.2984 149.144 39.1179C149.168 39.7488 148.619 39.9683 147.943 39.9689C147.147 39.9698 146.948 39.7526 146.459 39.5289L145.838 40.0553C146.611 40.5362 147.536 41.1688 148.963 40.6524C149.96 40.2916 150.494 39.1553 149.758 38.2015C149.214 37.4967 147.645 37.2361 147.188 36.7302C146.855 36.3626 146.773 35.0885 149.302 36.0311L149.892 35.5156Z" fill="white"/>
<path fill-rule="evenodd" clip-rule="evenodd" d="M74.8405 35.2599C73.5559 34.8141 72.6492 34.4634 71.2409 35.2402C69.2762 36.3238 69.027 39.2197 71.3529 40.4092C72.7764 41.1373 73.5994 40.7721 74.8409 40.3358C74.7305 39.9741 74.6068 39.8841 74.4196 39.6044C73.5105 39.8773 72.8613 40.1721 71.8508 39.7092C69.2594 38.5224 71.0998 34.4984 74.3376 35.9906L74.8405 35.2599Z" fill="white"/>
<path fill-rule="evenodd" clip-rule="evenodd" d="M138.902 34.8121L138.094 34.8228C138.161 35.3844 140.104 40.482 140.386 40.8064L141.053 40.7898C141.486 39.8416 143.154 35.7069 143.265 34.8L142.391 34.8196C142.059 35.706 141.107 38.6845 140.643 39.2343L138.902 34.8121Z" fill="white"/>
<path fill-rule="evenodd" clip-rule="evenodd" d="M109.75 35.2831C107.294 33.9664 104.554 35.5111 104.601 37.8704C104.638 39.7122 106.559 41.5827 109.766 40.3143C109.623 39.9187 109.537 39.9261 109.353 39.5961C108.402 39.8492 107.864 40.1891 106.778 39.7147C105.375 39.1017 104.904 36.9877 106.695 35.9498C107.795 35.3128 108.38 35.7865 109.394 35.9613L109.75 35.2831Z" fill="white"/>
<path fill-rule="evenodd" clip-rule="evenodd" d="M163.745 40.7966C164.409 40.8476 165.08 40.8233 165.747 40.8244C166.833 40.8261 167.44 41.0095 167.577 40.5806C167.824 39.8047 166.975 39.9571 166.974 39.957L164.653 39.9683L164.652 34.8191L163.709 34.8278L163.745 40.7966Z" fill="white"/>
<path fill-rule="evenodd" clip-rule="evenodd" d="M143.822 40.7904L144.736 40.8006L144.729 34.8L143.792 34.8605L143.822 40.7904Z" fill="white"/>
<path fill-rule="evenodd" clip-rule="evenodd" d="M102.608 40.8063L103.503 40.8129L103.492 34.8003L102.559 34.8059L102.608 40.8063Z" fill="white"/>
<path fill-rule="evenodd" clip-rule="evenodd" d="M124.585 34.3174C125.11 34.2774 125.912 34.294 126.274 34.2553C126.384 32.923 125.823 33.6297 123.553 33.4892C123.496 34.3166 123.543 34.3969 124.585 34.3174V34.3174Z" fill="white"/>
</svg>
