<svg width="55" height="55" viewBox="0 0 55 55" fill="none" xmlns="http://www.w3.org/2000/svg">
<path d="M15.8984 27.5C16.1777 27.5 16.457 27.3818 16.6611 27.1885C16.8652 26.9951 16.9727 26.7158 16.9727 26.4258C16.9727 26.1357 16.8545 25.8672 16.6611 25.6631C16.4678 25.459 16.1885 25.3516 15.8984 25.3516C15.6084 25.3516 15.3398 25.4697 15.1357 25.6631C14.9316 25.8564 14.8242 26.1357 14.8242 26.4258C14.8242 26.7158 14.9424 26.9844 15.1357 27.1885C15.3291 27.3926 15.6191 27.5 15.8984 27.5Z" fill="#F4F0EA"/>
<path d="M40.7021 0H14.2979C13.707 0 13.2236 0.483398 13.2236 1.07422V5.37109C13.2236 5.96191 13.707 6.44531 14.2979 6.44531H14.8242V22.1289C14.8242 22.7197 15.3076 23.2031 15.8984 23.2031C16.4893 23.2031 16.9727 22.7197 16.9727 22.1289V6.44531H33.7305V12.708C33.7305 13.2988 34.2139 13.7822 34.8047 13.7822C35.3955 13.7822 35.8789 13.2988 35.8789 12.708V6.44531H38.0273V26.8877L36.2119 25.0723C35.793 24.6533 35.1162 24.6533 34.6973 25.0723L26.5117 33.2578L24.7178 31.4746C24.2988 31.0557 23.6221 31.0557 23.2031 31.4746L16.9727 37.7051V30.7227C16.9727 30.1318 16.4893 29.6484 15.8984 29.6484C15.3076 29.6484 14.8242 30.1318 14.8242 30.7227V48.5547H14.2979C13.707 48.5547 13.2236 49.0381 13.2236 49.6289V53.9258C13.2236 54.5166 13.707 55 14.2979 55H40.7129C41.3037 55 41.7871 54.5166 41.7871 53.9258V49.6289C41.7871 49.0381 41.3037 48.5547 40.7129 48.5547H40.1758V6.44531H40.7021C41.293 6.44531 41.7764 5.96191 41.7764 5.37109V1.07422C41.7764 0.483398 41.3037 0 40.7021 0ZM35.46 27.3496L38.0273 29.917V44.7734L28.0264 34.7725L35.46 27.3496ZM39.6279 52.8516H15.3721V50.7031H39.6387V52.8516H39.6279ZM16.9727 48.5547V40.7344L23.9551 33.752L38.0273 47.8242V48.5654H16.9727V48.5547ZM15.8984 4.29688H15.3721V2.14844H39.6387V4.29688H15.8984Z" fill="#F4F0EA"/>
<path d="M5.38184 9.36719C4.79102 9.36719 4.30762 9.85059 4.30762 10.4414V11.999C4.30762 12.5898 4.79102 13.0732 5.38184 13.0732C5.97266 13.0732 6.45605 12.5898 6.45605 11.999V10.4414C6.45605 9.85059 5.97266 9.36719 5.38184 9.36719Z" fill="#F4F0EA"/>
<path d="M9.75391 13.6104H7.99219C7.40137 13.6104 6.91797 14.0938 6.91797 14.6846C6.91797 15.2754 7.40137 15.7588 7.99219 15.7588H9.75391C10.3447 15.7588 10.8281 15.2754 10.8281 14.6846C10.8281 14.0938 10.3447 13.6104 9.75391 13.6104Z" fill="#F4F0EA"/>
<path d="M2.71777 13.6104H1.07422C0.483398 13.6104 0 14.0938 0 14.6846C0 15.2754 0.483398 15.7588 1.07422 15.7588H2.71777C3.30859 15.7588 3.79199 15.2754 3.79199 14.6846C3.79199 14.0938 3.30859 13.6104 2.71777 13.6104Z" fill="#F4F0EA"/>
<path d="M5.38184 16.6074C4.79102 16.6074 4.30762 17.0908 4.30762 17.6816V18.9277C4.30762 19.5186 4.79102 20.002 5.38184 20.002C5.97266 20.002 6.45605 19.5186 6.45605 18.9277V17.6816C6.45605 17.0908 5.97266 16.6074 5.38184 16.6074Z" fill="#F4F0EA"/>
<path d="M53.9258 41.626H52.3682C51.7773 41.626 51.2939 42.1094 51.2939 42.7002C51.2939 43.291 51.7773 43.7744 52.3682 43.7744H53.9258C54.5166 43.7744 55 43.291 55 42.7002C55 42.1094 54.5166 41.626 53.9258 41.626Z" fill="#F4F0EA"/>
<path d="M49.6826 37.2539C49.0918 37.2539 48.6084 37.7373 48.6084 38.3281V40.0898C48.6084 40.6807 49.0918 41.1641 49.6826 41.1641C50.2734 41.1641 50.7568 40.6807 50.7568 40.0898V38.3281C50.7568 37.7373 50.2734 37.2539 49.6826 37.2539Z" fill="#F4F0EA"/>
<path d="M49.6826 44.3008C49.0918 44.3008 48.6084 44.7842 48.6084 45.375V47.0186C48.6084 47.6094 49.0918 48.0928 49.6826 48.0928C50.2734 48.0928 50.7568 47.6094 50.7568 47.0186V45.375C50.7568 44.7734 50.2734 44.3008 49.6826 44.3008Z" fill="#F4F0EA"/>
<path d="M46.6855 41.626H45.4395C44.8486 41.626 44.3652 42.1094 44.3652 42.7002C44.3652 43.291 44.8486 43.7744 45.4395 43.7744H46.6855C47.2764 43.7744 47.7598 43.291 47.7598 42.7002C47.7598 42.1094 47.2764 41.626 46.6855 41.626Z" fill="#F4F0EA"/>
<path d="M28.6064 18.3047C28.6064 15.9736 26.7051 14.0723 24.374 14.0723C22.043 14.0723 20.1416 15.9736 20.1416 18.3047C20.1416 20.6357 22.043 22.5371 24.374 22.5371C26.7051 22.5371 28.6064 20.6357 28.6064 18.3047ZM22.29 18.3047C22.29 17.1553 23.2246 16.2207 24.374 16.2207C25.5234 16.2207 26.458 17.1553 26.458 18.3047C26.458 19.4541 25.5234 20.3887 24.374 20.3887C23.2246 20.3887 22.29 19.4541 22.29 18.3047Z" fill="#F4F0EA"/>
<path d="M35.5674 17.7139C35.7715 17.5098 35.8789 17.2412 35.8789 16.9512C35.8789 16.6719 35.7607 16.3926 35.5674 16.1885C35.374 15.9844 35.0947 15.877 34.8047 15.877C34.5146 15.877 34.2461 15.9951 34.042 16.1885C33.8379 16.3818 33.7305 16.6611 33.7305 16.9512C33.7305 17.2305 33.8486 17.5098 34.042 17.7139C34.2354 17.918 34.5146 18.0254 34.8047 18.0254C35.0947 18.0254 35.3633 17.918 35.5674 17.7139Z" fill="#F4F0EA"/>
</svg>
