<svg width="55" height="55" viewBox="0 0 55 55" fill="none" xmlns="http://www.w3.org/2000/svg">
<g clip-path="url(#clip0_303_3792)">
<path d="M49.6289 4.72656H44.5049V3.22266C44.5049 1.4502 43.0547 0 41.2822 0C39.5098 0 38.0596 1.4502 38.0596 3.22266V4.72656H20.0127V3.22266C20.0127 1.4502 18.5625 0 16.79 0C15.0176 0 13.5674 1.4502 13.5674 3.22266V4.76953C13.4814 4.74805 13.3848 4.72656 13.2773 4.72656H9.00195C6.03711 4.72656 3.63086 7.13281 3.63086 10.0977V28.3916C3.63086 28.9824 4.11426 29.4658 4.70508 29.4658C5.2959 29.4658 5.7793 28.9824 5.7793 28.3916V15.791H44.5049C45.0957 15.791 45.5791 15.3076 45.5791 14.7168C45.5791 14.126 45.0957 13.6426 44.5049 13.6426H5.7793V10.0977C5.7793 8.3252 7.22949 6.875 9.00195 6.875H13.2773C13.374 6.875 13.4707 6.86426 13.5674 6.83203V8.21777C13.5674 9.99023 15.0176 11.4404 16.79 11.4404C18.5625 11.4404 20.0127 9.99023 20.0127 8.21777V6.875H38.0596V8.21777C38.0596 9.99023 39.5098 11.4404 41.2822 11.4404C43.0547 11.4404 44.5049 9.99023 44.5049 8.21777V6.875H49.6289C51.4014 6.875 52.8516 8.3252 52.8516 10.0977V50.918C52.8516 51.9814 51.9814 52.8516 50.918 52.8516C49.8545 52.8516 48.9844 51.9814 48.9844 50.918V48.1357C48.9844 47.5449 48.501 47.0615 47.9102 47.0615H35.417C34.8262 47.0615 34.3428 47.5449 34.3428 48.1357C34.3428 48.7266 34.8262 49.21 35.417 49.21H46.8359V50.918C46.8359 51.6162 47.0078 52.2715 47.3193 52.8516H4.08203C3.01855 52.8516 2.14844 51.9814 2.14844 50.918V49.21H26.1895C26.7803 49.21 27.2637 48.7266 27.2637 48.1357C27.2637 47.5449 26.7803 47.0615 26.1895 47.0615H15.458C17.3379 45.4502 18.5303 43.0547 18.5303 40.3906C18.5303 35.5352 14.5771 31.582 9.72168 31.582C4.86621 31.582 0.913086 35.5352 0.913086 40.3906C0.913086 43.0547 2.10547 45.4502 3.98535 47.0615H1.07422C0.483398 47.0615 0 47.5449 0 48.1357V50.918C0 53.1738 1.82617 55 4.08203 55H50.918C53.1738 55 55 53.1738 55 50.918V10.0977C55 7.13281 52.5938 4.72656 49.6289 4.72656ZM17.8643 8.21777C17.8643 8.80859 17.3809 9.29199 16.79 9.29199C16.1992 9.29199 15.7158 8.80859 15.7158 8.21777V3.22266C15.7158 2.63184 16.1992 2.14844 16.79 2.14844C17.3809 2.14844 17.8643 2.63184 17.8643 3.22266V8.21777ZM42.3564 8.21777C42.3564 8.80859 41.873 9.29199 41.2822 9.29199C40.6914 9.29199 40.208 8.80859 40.208 8.21777V3.22266C40.208 2.63184 40.6914 2.14844 41.2822 2.14844C41.873 2.14844 42.3564 2.63184 42.3564 3.22266V8.21777ZM3.06152 40.3906C3.06152 36.7168 6.04785 33.7305 9.72168 33.7305C13.3955 33.7305 16.3818 36.7168 16.3818 40.3906C16.3818 44.0645 13.3955 47.0508 9.72168 47.0508C6.04785 47.0508 3.06152 44.0645 3.06152 40.3906Z" fill="#F4F0EA"/>
<path d="M50.3057 13.9541C50.1016 13.75 49.833 13.6426 49.543 13.6426C49.2637 13.6426 48.9844 13.7607 48.7803 13.9541C48.5762 14.1582 48.4688 14.4268 48.4688 14.7168C48.4688 15.0068 48.5869 15.2754 48.7803 15.4795C48.9736 15.6836 49.2529 15.791 49.543 15.791C49.8223 15.791 50.1016 15.6729 50.3057 15.4795C50.5098 15.2754 50.6172 15.0068 50.6172 14.7168C50.6172 14.4268 50.5098 14.1582 50.3057 13.9541Z" fill="#F4F0EA"/>
<path d="M32.0762 47.373C31.8721 47.1689 31.6035 47.0615 31.3135 47.0615C31.0234 47.0615 30.7549 47.1797 30.5508 47.373C30.3467 47.5771 30.2393 47.8457 30.2393 48.1357C30.2393 48.415 30.3574 48.6943 30.5508 48.8984C30.7549 49.1025 31.0234 49.21 31.3135 49.21C31.6035 49.21 31.8721 49.0918 32.0762 48.8984C32.2803 48.6943 32.3877 48.415 32.3877 48.1357C32.3984 47.8564 32.2803 47.5771 32.0762 47.373Z" fill="#F4F0EA"/>
<path d="M24.2988 32.6562C22.043 32.6562 20.2168 34.4824 20.2168 36.7383C20.2168 38.9941 22.043 40.8203 24.2988 40.8203C26.5547 40.8203 28.3809 38.9941 28.3809 36.7383C28.3809 34.4824 26.5547 32.6562 24.2988 32.6562ZM24.2988 38.6719C23.2354 38.6719 22.3652 37.8018 22.3652 36.7383C22.3652 35.6748 23.2354 34.8047 24.2988 34.8047C25.3623 34.8047 26.2324 35.6748 26.2324 36.7383C26.2324 37.8018 25.3731 38.6719 24.2988 38.6719Z" fill="#F4F0EA"/>
<path d="M34.332 32.6562C32.0762 32.6562 30.25 34.4824 30.25 36.7383C30.25 38.9941 32.0762 40.8203 34.332 40.8203C36.5879 40.8203 38.4141 38.9941 38.4141 36.7383C38.4141 34.4824 36.5771 32.6562 34.332 32.6562ZM34.332 38.6719C33.2686 38.6719 32.3984 37.8018 32.3984 36.7383C32.3984 35.6748 33.2686 34.8047 34.332 34.8047C35.3955 34.8047 36.2656 35.6748 36.2656 36.7383C36.2656 37.8018 35.3955 38.6719 34.332 38.6719Z" fill="#F4F0EA"/>
<path d="M44.3545 32.6562C42.0986 32.6562 40.2725 34.4824 40.2725 36.7383C40.2725 38.9941 42.0986 40.8203 44.3545 40.8203C46.6104 40.8203 48.4365 38.9941 48.4365 36.7383C48.4365 34.4824 46.6104 32.6562 44.3545 32.6562ZM44.3545 38.6719C43.291 38.6719 42.4209 37.8018 42.4209 36.7383C42.4209 35.6748 43.291 34.8047 44.3545 34.8047C45.418 34.8047 46.2881 35.6748 46.2881 36.7383C46.2881 37.8018 45.418 38.6719 44.3545 38.6719Z" fill="#F4F0EA"/>
<path d="M14.2764 21.4844C12.0205 21.4844 10.1943 23.3105 10.1943 25.5664C10.1943 27.8223 12.0205 29.6484 14.2764 29.6484C16.5322 29.6484 18.3584 27.8223 18.3584 25.5664C18.3584 23.3105 16.5322 21.4844 14.2764 21.4844ZM14.2764 27.5C13.2129 27.5 12.3428 26.6299 12.3428 25.5664C12.3428 24.5029 13.2129 23.6328 14.2764 23.6328C15.3398 23.6328 16.21 24.5029 16.21 25.5664C16.21 26.6299 15.3398 27.5 14.2764 27.5Z" fill="#F4F0EA"/>
<path d="M34.332 21.4844C32.0762 21.4844 30.25 23.3105 30.25 25.5664C30.25 27.8223 32.0762 29.6484 34.332 29.6484C36.5879 29.6484 38.4141 27.8223 38.4141 25.5664C38.4141 23.3105 36.5771 21.4844 34.332 21.4844ZM34.332 27.5C33.2686 27.5 32.3984 26.6299 32.3984 25.5664C32.3984 24.5029 33.2686 23.6328 34.332 23.6328C35.3955 23.6328 36.2656 24.5029 36.2656 25.5664C36.2656 26.6299 35.3955 27.5 34.332 27.5Z" fill="#F4F0EA"/>
<path d="M44.3545 21.4844C42.0986 21.4844 40.2725 23.3105 40.2725 25.5664C40.2725 27.8223 42.0986 29.6484 44.3545 29.6484C46.6104 29.6484 48.4365 27.8223 48.4365 25.5664C48.4365 23.3105 46.6104 21.4844 44.3545 21.4844ZM44.3545 27.5C43.291 27.5 42.4209 26.6299 42.4209 25.5664C42.4209 24.5029 43.291 23.6328 44.3545 23.6328C45.418 23.6328 46.2881 24.5029 46.2881 25.5664C46.2881 26.6299 45.418 27.5 44.3545 27.5Z" fill="#F4F0EA"/>
<path d="M24.2988 21.4844C22.043 21.4844 20.2168 23.3105 20.2168 25.5664C20.2168 27.8223 22.043 29.6484 24.2988 29.6484C26.5547 29.6484 28.3809 27.8223 28.3809 25.5664C28.3809 23.3105 26.5547 21.4844 24.2988 21.4844ZM24.2988 27.5C23.2354 27.5 22.3652 26.6299 22.3652 25.5664C22.3652 24.5029 23.2354 23.6328 24.2988 23.6328C25.3623 23.6328 26.2324 24.5029 26.2324 25.5664C26.2324 26.6299 25.3731 27.5 24.2988 27.5Z" fill="#F4F0EA"/>
<path d="M13.5459 37.7695C13.127 37.3506 12.4502 37.3506 12.0312 37.7695L8.5293 41.2715L7.33691 40.0791C6.91797 39.6602 6.24121 39.6602 5.82227 40.0791C5.40332 40.498 5.40332 41.1748 5.82227 41.5938L7.77734 43.5488C7.98145 43.7529 8.25 43.8604 8.54004 43.8604C8.83008 43.8604 9.09863 43.7422 9.30273 43.5488L13.5566 39.2949C13.9648 38.876 13.9648 38.1885 13.5459 37.7695Z" fill="#F4F0EA"/>
</g>
<defs>
<clipPath id="clip0_303_3792">
<rect width="55" height="55" fill="white"/>
</clipPath>
</defs>
</svg>
