<svg width="55" height="55" viewBox="0 0 55 55" fill="none" xmlns="http://www.w3.org/2000/svg">
<g clip-path="url(#clip0_303_3829)">
<path d="M50.9944 0H10.648C8.22989 0 6.26257 1.96732 6.26257 4.38548V18.0559L1.25699 23.0615C1.09297 23.2255 1 23.4491 1 23.6816V54.3799H2.75419V24.0447L6.26257 20.5363V22.8045C6.26257 23.2886 6.65551 23.6816 7.13967 23.6816H17.5534C17.1631 25.1928 15.7878 26.3129 14.1564 26.3129H10.648C10.1639 26.3129 9.77095 26.7058 9.77095 27.1899C9.77095 30.1405 7.45893 32.4525 4.50838 32.4525V34.2067C5.11708 34.2067 5.70298 34.1269 6.26257 33.9874V46.486C6.26257 48.9042 8.22989 50.8715 10.648 50.8715H13.2793V54.3799H15.0335V50.8715H29.067V52.6257C29.067 52.8581 29.1591 53.0818 29.324 53.2458L31.0782 55L32.3184 53.7598L30.8212 52.2626V46.8492L32.5754 45.0932V49.1173H34.3296V24.9955C34.3296 24.271 34.919 23.6816 35.647 23.6816C36.3715 23.6816 36.9609 24.271 36.9609 24.9955V37.2748V44.7318H38.7151V37.2748C38.7151 36.5503 39.3045 35.9609 40.0325 35.9609C40.757 35.9609 41.3464 36.5503 41.3464 37.2748V44.7318H43.1006V37.2748C43.1006 36.5503 43.69 35.9609 44.418 35.9609C45.1424 35.9609 45.7318 36.5503 45.7318 37.2748V44.7318H46.6089H47.486L47.4895 37.273C47.4895 36.5494 48.079 35.96 48.8034 35.96C49.5279 35.96 50.1173 36.5494 50.1173 37.2739V54.3799H51.8715V50.7829C53.8704 50.3751 55.3799 48.6033 55.3799 46.486V4.38548C55.3799 1.96732 53.4126 0 50.9944 0ZM53.6257 46.486C53.6257 47.628 52.8898 48.5928 51.8715 48.9559V37.2748C51.8715 35.5829 50.4953 34.2067 48.8034 34.2067C47.9439 34.2067 47.1677 34.5646 46.6107 35.1364C46.0529 34.5646 45.2758 34.2067 44.4145 34.2067C43.5558 34.2067 42.7804 34.5637 42.2235 35.1338C41.6656 34.5637 40.8894 34.2067 40.029 34.2067C39.5571 34.2067 39.115 34.3225 38.7151 34.5137V24.9955C38.7151 23.3035 37.3389 21.9274 35.6435 21.9274C33.9516 21.9274 32.5754 23.3035 32.5754 24.9955V42.611L29.3232 45.8659C29.1591 46.0308 29.067 46.2536 29.067 46.486V49.1173H10.648C9.19733 49.1173 8.01676 47.9368 8.01676 46.486V33.2884C9.89023 32.2262 11.2024 30.3308 11.4734 28.067H14.1564C17.0587 28.067 19.419 25.7068 19.419 22.8045C19.419 22.3203 19.0261 21.9274 18.5419 21.9274H8.01676V18.419V4.38548C8.01676 2.93476 9.19733 1.75419 10.648 1.75419H50.9944C52.4451 1.75419 53.6257 2.93476 53.6257 4.38548V46.486Z" fill="#F4F0EA"/>
<path d="M25.5587 3.5083H12.4022C11.9181 3.5083 11.5251 3.90124 11.5251 4.3854V8.77087C11.5251 9.25503 11.9181 9.64797 12.4022 9.64797H25.5587C26.0428 9.64797 26.4358 9.25503 26.4358 8.77087V4.3854C26.4358 3.90124 26.0428 3.5083 25.5587 3.5083ZM24.6816 7.89378H13.2793V5.26249H24.6816V7.89378Z" fill="#F4F0EA"/>
<path d="M49.2402 3.5083H36.0838C35.5996 3.5083 35.2067 3.90124 35.2067 4.3854V8.77087C35.2067 9.25503 35.5996 9.64797 36.0838 9.64797H49.2402C49.7243 9.64797 50.1173 9.25503 50.1173 8.77087V4.3854C50.1173 3.90124 49.7243 3.5083 49.2402 3.5083ZM48.3631 7.89378H36.9609V5.26249H48.3631V7.89378Z" fill="#F4F0EA"/>
<path d="M25.5587 29.8213H12.4022C11.9181 29.8213 11.5251 30.2142 11.5251 30.6984V35.0839C11.5251 35.568 11.9181 35.961 12.4022 35.961H25.5587C26.0428 35.961 26.4358 35.568 26.4358 35.0839V30.6984C26.4358 30.2142 26.0428 29.8213 25.5587 29.8213ZM24.6816 34.2068H13.2793V31.5755H24.6816V34.2068Z" fill="#F4F0EA"/>
<path d="M31.6983 3.5083H29.9441V20.1731H31.6983V3.5083Z" fill="#F4F0EA"/>
<path d="M21.1732 11.4023H11.5251V13.1565H21.1732V11.4023Z" fill="#F4F0EA"/>
<path d="M26.4359 11.4023H23.8046V13.1565H26.4359V11.4023Z" fill="#F4F0EA"/>
<path d="M21.1732 14.9106H11.5251V16.6648H21.1732V14.9106Z" fill="#F4F0EA"/>
<path d="M26.4359 14.9106H23.8046V16.6648H26.4359V14.9106Z" fill="#F4F0EA"/>
<path d="M21.1732 18.4189H11.5251V20.1731H21.1732V18.4189Z" fill="#F4F0EA"/>
<path d="M26.4359 18.4189H23.8046V20.1731H26.4359V18.4189Z" fill="#F4F0EA"/>
<path d="M26.4359 21.9275H23.8046V23.6817H26.4359V21.9275Z" fill="#F4F0EA"/>
<path d="M26.4359 25.4358H23.8046V27.19H26.4359V25.4358Z" fill="#F4F0EA"/>
<path d="M21.1732 37.7151H11.5251V39.4693H21.1732V37.7151Z" fill="#F4F0EA"/>
<path d="M26.4359 37.7151H23.8046V39.4693H26.4359V37.7151Z" fill="#F4F0EA"/>
<path d="M21.1732 41.2234H11.5251V42.9776H21.1732V41.2234Z" fill="#F4F0EA"/>
<path d="M26.4359 41.2234H23.8046V42.9776H26.4359V41.2234Z" fill="#F4F0EA"/>
<path d="M21.1732 44.7319H11.5251V46.4861H21.1732V44.7319Z" fill="#F4F0EA"/>
<path d="M26.4359 44.7319H23.8046V46.4861H26.4359V44.7319Z" fill="#F4F0EA"/>
<path d="M44.8547 11.4023H35.2067V13.1565H44.8547V11.4023Z" fill="#F4F0EA"/>
<path d="M50.1174 11.4023H47.4861V13.1565H50.1174V11.4023Z" fill="#F4F0EA"/>
<path d="M44.8547 14.9106H35.2067V16.6648H44.8547V14.9106Z" fill="#F4F0EA"/>
<path d="M50.1174 14.9106H47.4861V16.6648H50.1174V14.9106Z" fill="#F4F0EA"/>
<path d="M44.8547 18.4189H35.2067V20.1731H44.8547V18.4189Z" fill="#F4F0EA"/>
<path d="M50.1174 18.4189H47.4861V20.1731H50.1174V18.4189Z" fill="#F4F0EA"/>
<path d="M44.8547 21.9275H40.4692V23.6817H44.8547V21.9275Z" fill="#F4F0EA"/>
<path d="M50.1174 21.9275H47.4861V23.6817H50.1174V21.9275Z" fill="#F4F0EA"/>
<path d="M44.8547 25.4358H40.4692V27.19H44.8547V25.4358Z" fill="#F4F0EA"/>
<path d="M50.1174 25.4358H47.4861V27.19H50.1174V25.4358Z" fill="#F4F0EA"/>
<path d="M44.8547 28.9441H40.4692V30.6983H44.8547V28.9441Z" fill="#F4F0EA"/>
<path d="M50.1174 28.9441H47.4861V30.6983H50.1174V28.9441Z" fill="#F4F0EA"/>
</g>
<defs>
<clipPath id="clip0_303_3829">
<rect width="55" height="55" fill="white"/>
</clipPath>
</defs>
</svg>
