<svg width="55" height="55" viewBox="0 0 55 55" fill="none" xmlns="http://www.w3.org/2000/svg">
<path d="M22 35.75H20.1631V37.5869H22V35.75Z" fill="#F4F0EA"/>
<path d="M44 35.75H23.8369V37.5869H44V35.75Z" fill="#F4F0EA"/>
<path d="M44 39.4131H16.5V41.25H44V39.4131Z" fill="#F4F0EA"/>
<path d="M40.3369 43.0869H16.5V44.9238H40.3369V43.0869Z" fill="#F4F0EA"/>
<path d="M47.6631 4.58691H43.0762V3.67383C43.0762 3.16895 42.668 2.76074 42.1631 2.76074H40.3262V0H38.4893V2.75H36.6523C36.1475 2.75 35.7393 3.1582 35.7393 3.66309V4.57617H24.75V3.66309C24.75 3.1582 24.3418 2.75 23.8369 2.75H22V0H20.1631V2.75H18.3262C17.8213 2.75 17.4131 3.1582 17.4131 3.66309V4.57617H12.8262C12.3213 4.57617 11.9131 4.98438 11.9131 5.48926V47.6523H7.33691C6.83203 47.6523 6.42383 48.0605 6.42383 48.5654V51.3154C6.42383 53.3457 8.06738 54.9785 10.0869 54.9785H44.9238C46.9541 54.9785 48.5869 53.335 48.5869 51.3154V5.5C48.5869 4.99512 48.168 4.58691 47.6631 4.58691ZM37.5869 4.58691H41.25V6.42383H37.5869V4.58691ZM19.25 4.58691H22.9131V6.42383H19.25V4.58691ZM10.0869 53.1631C9.07715 53.1631 8.25 52.3467 8.25 51.3262V49.4893H41.25V51.3262C41.25 51.9707 41.4219 52.6045 41.7441 53.1631H10.0869ZM46.75 51.3369C46.75 52.3467 45.9336 53.1738 44.9131 53.1738C43.8926 53.1738 43.0762 52.3574 43.0762 51.3369V48.5869C43.0762 48.082 42.668 47.6738 42.1631 47.6738H13.75V6.42383H17.4131V7.33691C17.4131 7.8418 17.8213 8.25 18.3262 8.25H23.8262C24.3311 8.25 24.7393 7.8418 24.7393 7.33691V6.42383H35.7393V7.33691C35.7393 7.8418 36.1475 8.25 36.6523 8.25H42.1523C42.6572 8.25 43.0654 7.8418 43.0654 7.33691V6.42383H46.7285V51.3369H46.75Z" fill="#F4F0EA"/>
<path d="M43.0869 13.7501H36.3945C35.3633 10.3556 31.7861 8.44347 28.3916 9.46397C26.3398 10.087 24.7285 11.6983 24.1055 13.7501H17.4131C16.9082 13.7501 16.5 14.1583 16.5 14.6632V32.0763C16.5 32.5812 16.9082 32.9894 17.4131 32.9894H43.0762C43.5811 32.9894 43.9893 32.5812 43.9893 32.0763V14.6632C44 14.1583 43.5918 13.7501 43.0869 13.7501ZM26.834 12.5255C27.7041 11.548 28.9502 11.0001 30.25 11.0001C32.7744 11.0001 34.8262 13.0411 34.8369 15.5763C34.8369 16.8868 34.2783 18.1222 33.3115 18.9923C33.1182 19.1642 33.0107 19.4112 33.0107 19.6691V21.0763H31.1738V18.7023L33.6553 16.2208L32.3555 14.9317L30.25 17.0372L28.1445 14.9317L26.8555 16.2316L29.3369 18.713V21.087H27.5V19.6798C27.5 19.422 27.3926 19.1749 27.1992 19.003C25.3086 17.3058 25.1475 14.4161 26.834 12.5255ZM42.1631 31.1632H18.3369V15.587H23.8369C23.8369 17.2628 24.5029 18.8741 25.6738 20.0665V21.087H23.8369V22.9239H36.6738V21.087H34.8369V20.0665C36.0078 18.8741 36.6631 17.2628 36.6738 15.587H42.1738V31.1632H42.1631Z" fill="#F4F0EA"/>
<path d="M40.3369 27.5H38.5V29.3369H40.3369V27.5Z" fill="#F4F0EA"/>
<path d="M36.6738 27.5H34.8369V29.3369H36.6738V27.5Z" fill="#F4F0EA"/>
</svg>
