<svg width="55" height="53" viewBox="0 0 55 53" fill="none" xmlns="http://www.w3.org/2000/svg">
<path d="M49.2714 2.2271e-06H5.73433C4.31371 -0.00109566 2.94322 0.403757 1.88894 1.13597C0.834655 1.86818 0.171787 2.8755 0.0290156 3.96239C-0.113756 5.04929 0.273756 6.1382 1.11632 7.01774C1.95889 7.89729 3.1964 8.50471 4.58862 8.7221V51.9802C4.58862 52.2138 4.70933 52.4379 4.92419 52.6032C5.13906 52.7684 5.43047 52.8612 5.73433 52.8612H49.2714C49.5753 52.8612 49.8667 52.7684 50.0816 52.6032C50.2964 52.4379 50.4171 52.2138 50.4171 51.9802V35.2408H53.8543C54.1581 35.2408 54.4496 35.148 54.6644 34.9828C54.8793 34.8175 55 34.5934 55 34.3598V4.4051C54.9983 3.2372 54.3942 2.11751 53.3203 1.29167C52.2463 0.465843 50.7902 0.00131391 49.2714 2.2271e-06ZM2.2972 4.4051C2.29826 3.70437 2.66072 3.03257 3.30508 2.53708C3.94944 2.04158 4.82307 1.76286 5.73433 1.76204H42.4003C41.6547 2.52391 41.2514 3.45158 41.2514 4.4051C41.2514 5.35863 41.6547 6.28629 42.4003 7.04816H5.73433C4.82307 7.04735 3.94944 6.76862 3.30508 6.27313C2.66072 5.77763 2.29826 5.10583 2.2972 4.4051ZM48.1257 7.04816H46.98C46.2695 7.04746 45.5767 6.87773 44.9966 6.56226C44.4165 6.24679 43.9775 5.80102 43.7399 5.28612H48.1257V7.04816ZM6.88005 51.0992V8.8102H48.1257V51.0992H6.88005ZM52.7086 33.4788H50.4171V4.4051C50.4171 4.17144 50.2964 3.94735 50.0816 3.78213C49.8667 3.6169 49.5753 3.52408 49.2714 3.52408H43.7399C43.9775 3.00918 44.4165 2.56342 44.9966 2.24795C45.5767 1.93248 46.2695 1.76275 46.98 1.76204H49.2714C50.1827 1.76283 51.0564 2.04155 51.7007 2.53705C52.3451 3.03255 52.7075 3.70436 52.7086 4.4051V33.4788Z" fill="#F4F0EA"/>
<path d="M22.92 14.0963H32.0857C32.3896 14.0963 32.681 14.0035 32.8959 13.8383C33.1107 13.673 33.2314 13.4489 33.2314 13.2153C33.2314 12.9816 33.1107 12.7575 32.8959 12.5923C32.681 12.4271 32.3896 12.3342 32.0857 12.3342H22.92C22.6161 12.3342 22.3247 12.4271 22.1099 12.5923C21.895 12.7575 21.7743 12.9816 21.7743 13.2153C21.7743 13.4489 21.895 13.673 22.1099 13.8383C22.3247 14.0035 22.6161 14.0963 22.92 14.0963Z" fill="#F4F0EA"/>
<path d="M10.3172 19.3824H21.7743C22.0782 19.3824 22.3696 19.2896 22.5845 19.1244C22.7993 18.9592 22.92 18.7352 22.92 18.5015C22.92 18.2679 22.7993 18.0438 22.5845 17.8786C22.3696 17.7134 22.0782 17.6206 21.7743 17.6206H10.3172C10.0134 17.6206 9.72194 17.7134 9.50708 17.8786C9.29222 18.0438 9.17151 18.2679 9.17151 18.5015C9.17151 18.7352 9.29222 18.9592 9.50708 19.1244C9.72194 19.2896 10.0134 19.3824 10.3172 19.3824Z" fill="#F4F0EA"/>
<path d="M44.6885 17.6206H37.8143C37.5104 17.6206 37.219 17.7134 37.0041 17.8786C36.7893 18.0438 36.6686 18.2679 36.6686 18.5015C36.6686 18.7352 36.7893 18.9592 37.0041 19.1244C37.219 19.2896 37.5104 19.3824 37.8143 19.3824H44.6885C44.9924 19.3824 45.2838 19.2896 45.4987 19.1244C45.7135 18.9592 45.8342 18.7352 45.8342 18.5015C45.8342 18.2679 45.7135 18.0438 45.4987 17.8786C45.2838 17.7134 44.9924 17.6206 44.6885 17.6206Z" fill="#F4F0EA"/>
<path d="M10.3172 22.9067H21.7743C22.0782 22.9067 22.3696 22.8139 22.5845 22.6487C22.7993 22.4834 22.92 22.2593 22.92 22.0256C22.92 21.792 22.7993 21.5678 22.5845 21.4026C22.3696 21.2374 22.0782 21.1445 21.7743 21.1445H10.3172C10.0134 21.1445 9.72194 21.2374 9.50708 21.4026C9.29222 21.5678 9.17151 21.792 9.17151 22.0256C9.17151 22.2593 9.29222 22.4834 9.50708 22.6487C9.72194 22.8139 10.0134 22.9067 10.3172 22.9067Z" fill="#F4F0EA"/>
<path d="M44.6885 21.1445H37.8143C37.5104 21.1445 37.219 21.2374 37.0041 21.4026C36.7893 21.5678 36.6686 21.792 36.6686 22.0256C36.6686 22.2593 36.7893 22.4834 37.0041 22.6487C37.219 22.8139 37.5104 22.9067 37.8143 22.9067H44.6885C44.9924 22.9067 45.2838 22.8139 45.4987 22.6487C45.7135 22.4834 45.8342 22.2593 45.8342 22.0256C45.8342 21.792 45.7135 21.5678 45.4987 21.4026C45.2838 21.2374 44.9924 21.1445 44.6885 21.1445Z" fill="#F4F0EA"/>
<path d="M10.3172 26.4307H21.7743C22.0782 26.4307 22.3696 26.3378 22.5845 26.1726C22.7993 26.0074 22.92 25.7832 22.92 25.5496C22.92 25.3159 22.7993 25.0918 22.5845 24.9265C22.3696 24.7613 22.0782 24.6685 21.7743 24.6685H10.3172C10.0134 24.6685 9.72194 24.7613 9.50708 24.9265C9.29222 25.0918 9.17151 25.3159 9.17151 25.5496C9.17151 25.7832 9.29222 26.0074 9.50708 26.1726C9.72194 26.3378 10.0134 26.4307 10.3172 26.4307Z" fill="#F4F0EA"/>
<path d="M44.6885 24.6685H37.8143C37.5104 24.6685 37.219 24.7613 37.0041 24.9265C36.7893 25.0918 36.6686 25.3159 36.6686 25.5496C36.6686 25.7832 36.7893 26.0074 37.0041 26.1726C37.219 26.3378 37.5104 26.4307 37.8143 26.4307H44.6885C44.9924 26.4307 45.2838 26.3378 45.4987 26.1726C45.7135 26.0074 45.8342 25.7832 45.8342 25.5496C45.8342 25.3159 45.7135 25.0918 45.4987 24.9265C45.2838 24.7613 44.9924 24.6685 44.6885 24.6685Z" fill="#F4F0EA"/>
<path d="M10.3172 29.9547H21.7743C22.0782 29.9547 22.3696 29.8619 22.5845 29.6967C22.7993 29.5314 22.92 29.3073 22.92 29.0737C22.92 28.84 22.7993 28.6159 22.5845 28.4507C22.3696 28.2855 22.0782 28.1926 21.7743 28.1926H10.3172C10.0134 28.1926 9.72194 28.2855 9.50708 28.4507C9.29222 28.6159 9.17151 28.84 9.17151 29.0737C9.17151 29.3073 9.29222 29.5314 9.50708 29.6967C9.72194 29.8619 10.0134 29.9547 10.3172 29.9547Z" fill="#F4F0EA"/>
<path d="M44.6885 28.1926H37.8143C37.5104 28.1926 37.219 28.2855 37.0041 28.4507C36.7893 28.6159 36.6686 28.84 36.6686 29.0737C36.6686 29.3073 36.7893 29.5314 37.0041 29.6967C37.219 29.8619 37.5104 29.9547 37.8143 29.9547H44.6885C44.9924 29.9547 45.2838 29.8619 45.4987 29.6967C45.7135 29.5314 45.8342 29.3073 45.8342 29.0737C45.8342 28.84 45.7135 28.6159 45.4987 28.4507C45.2838 28.2855 44.9924 28.1926 44.6885 28.1926Z" fill="#F4F0EA"/>
<path d="M22.92 32.5978C22.92 32.3642 22.7993 32.1401 22.5845 31.9748C22.3696 31.8096 22.0782 31.7168 21.7743 31.7168H10.3172C10.0134 31.7168 9.72194 31.8096 9.50708 31.9748C9.29222 32.1401 9.17151 32.3642 9.17151 32.5978C9.17151 32.8315 9.29222 33.0556 9.50708 33.2208C9.72194 33.3861 10.0134 33.4789 10.3172 33.4789H21.7743C22.0782 33.4789 22.3696 33.3861 22.5845 33.2208C22.7993 33.0556 22.92 32.8315 22.92 32.5978Z" fill="#F4F0EA"/>
<path d="M44.6885 31.7168H37.8143C37.5104 31.7168 37.219 31.8096 37.0041 31.9748C36.7893 32.1401 36.6686 32.3642 36.6686 32.5978C36.6686 32.8315 36.7893 33.0556 37.0041 33.2208C37.219 33.3861 37.5104 33.4789 37.8143 33.4789H44.6885C44.9924 33.4789 45.2838 33.3861 45.4987 33.2208C45.7135 33.0556 45.8342 32.8315 45.8342 32.5978C45.8342 32.3642 45.7135 32.1401 45.4987 31.9748C45.2838 31.8096 44.9924 31.7168 44.6885 31.7168Z" fill="#F4F0EA"/>
<path d="M32.0857 37.0029C30.1271 37.0029 28.3957 37.915 27.3622 39.3026C26.3253 38.9457 25.2016 38.7625 24.0657 38.765C20.2752 38.765 17.1914 40.7411 17.1914 43.17C17.1914 45.599 20.2752 47.5751 24.0657 47.5751C25.6909 47.5904 27.2804 47.208 28.6046 46.4831C29.5429 47.1733 30.7872 47.5637 32.0857 47.5751C35.2444 47.5751 37.8142 45.2039 37.8142 42.289C37.8142 39.3742 35.2444 37.0029 32.0857 37.0029ZM24.0657 40.527C24.9228 40.5228 25.7699 40.6683 26.5433 40.9524C26.439 41.3226 26.3788 41.6994 26.3633 42.078C25.6161 41.9154 24.842 41.8381 24.0657 41.8485C22.9346 41.8298 21.812 42.0017 20.7765 42.352C20.3894 42.4815 19.9864 42.5808 19.5735 42.6485C19.994 41.4401 21.8481 40.527 24.0657 40.527ZM19.9942 44.3814C20.5548 44.2939 21.1021 44.1622 21.6276 43.9885C22.3996 43.7394 23.2283 43.611 24.0655 43.611C24.9027 43.611 25.7315 43.7394 26.5035 43.9885C26.5625 44.0066 26.6221 44.025 26.6825 44.0436C26.8184 44.4007 26.9989 44.747 27.2214 45.0774C26.2932 45.5669 25.191 45.8238 24.0657 45.8131C22.2953 45.8131 20.7574 45.2307 19.9942 44.3814ZM28.6485 42.289C28.6485 40.584 29.8358 39.1582 31.407 38.8342C31.3192 39.1517 31.1902 39.4616 31.0219 39.7593C30.5896 40.5613 30.3671 41.4209 30.3671 42.289C30.3671 43.1572 30.5896 44.0168 31.0219 44.8188C31.1902 45.1164 31.3192 45.4263 31.407 45.7438C29.8358 45.4198 28.6485 43.994 28.6485 42.289ZM33.6601 45.4199C33.5464 44.9891 33.3753 44.5684 33.1494 44.1645C32.8254 43.5707 32.6585 42.9331 32.6585 42.2891C32.6585 41.6451 32.8254 41.0076 33.1494 40.4138C33.3753 40.0099 33.5464 39.5892 33.6601 39.1583C34.7653 39.7451 35.5228 40.9275 35.5228 42.289C35.5228 43.6505 34.7653 44.833 33.6601 45.4199Z" fill="#F4F0EA"/>
</svg>
