<svg width="96" height="244" viewBox="0 0 96 244" fill="none" xmlns="http://www.w3.org/2000/svg">
<g clip-path="url(#clip0_46_981)">
<g opacity="0.41">
<path opacity="0.41" d="M1.50887 140.33C1.86227 141.793 0.932064 143.246 -0.480182 143.587C-1.89243 143.928 -3.33278 143.048 -3.68619 141.586C-4.03959 140.123 -3.10938 138.67 -1.69714 138.329C-0.222265 138.026 1.16765 138.918 1.50887 140.33Z" fill="white" fill-opacity="0.1"/>
<path opacity="0.41" d="M-2.14566 131.391C-0.682974 131.038 0.76956 131.968 1.07253 133.443C1.36331 134.867 0.48354 136.307 -0.940894 136.598C-2.40358 136.952 -3.85611 136.021 -4.15908 134.547C-4.48812 133.185 -3.60835 131.744 -2.14566 131.391Z" fill="white" fill-opacity="0.1"/>
<path opacity="0.41" d="M-4.67028 127.57C-5.0115 126.158 -4.13173 124.718 -2.73167 124.326C-1.26899 123.973 0.183555 124.903 0.524779 126.315C0.866003 127.727 -0.0642067 129.18 -1.47646 129.521C-2.83827 129.85 -4.32906 128.983 -4.67028 127.57Z" fill="white" fill-opacity="0.1"/>
<path opacity="0.41" d="M1.85484 147.507C2.19606 148.919 1.26585 150.371 -0.146399 150.713C-1.5204 150.991 -2.96075 150.112 -3.28979 148.75C-3.63101 147.337 -2.7008 145.885 -1.28855 145.544C0.0732659 145.215 1.5258 146.145 1.85484 147.507Z" fill="white" fill-opacity="0.1"/>
<path opacity="0.41" d="M-4.91542 120.369C-5.25664 118.957 -4.36468 117.567 -3.00287 117.238C-1.59062 116.897 -0.200704 117.789 0.0900807 119.213C0.368678 120.587 -0.422406 121.953 -1.83466 122.294C-3.19647 122.623 -4.57419 121.782 -4.91542 120.369Z" fill="white" fill-opacity="0.1"/>
<path opacity="0.41" d="M2.2391 154.62C2.56814 155.982 1.77705 157.348 0.364806 157.689C-0.997004 158.018 -2.36255 157.227 -2.70377 155.814C-3.0328 154.453 -2.24171 153.087 -0.829466 152.746C0.582781 152.405 1.91007 153.258 2.2391 154.62Z" fill="white" fill-opacity="0.1"/>
<path opacity="0.41" d="M-3.46359 110.25C-2.15222 109.933 -0.774489 110.775 -0.445455 112.136C-0.128607 113.448 -0.970129 114.826 -2.33194 115.155C-3.64331 115.471 -5.02103 114.63 -5.35007 113.268C-5.6791 111.906 -4.83758 110.529 -3.46359 110.25Z" fill="white" fill-opacity="0.1"/>
<path opacity="0.41" d="M3.14418 134.063C2.82734 132.752 3.68104 131.424 4.94198 131.12C6.25335 130.803 7.64327 131.695 7.96012 133.006C8.22653 134.33 7.37282 135.657 6.09969 135.911C4.78832 136.228 3.46103 135.374 3.14418 134.063Z" fill="white" fill-opacity="0.1"/>
<path opacity="0.41" d="M5.38883 138.272C6.71239 138.005 8.03967 138.859 8.2939 140.132C8.56031 141.456 7.66835 142.846 6.34479 143.112C5.02123 143.378 3.68175 142.474 3.47797 141.189C3.26199 139.853 4.1157 138.526 5.38883 138.272Z" fill="white" fill-opacity="0.1"/>
<path opacity="0.41" d="M4.45687 124.03C5.76824 123.714 7.08334 124.517 7.45063 125.816C7.76748 127.127 6.96421 128.443 5.66502 128.81C4.35364 129.127 3.03854 128.323 2.67125 127.024C2.35441 125.713 3.1455 124.347 4.45687 124.03Z" fill="white" fill-opacity="0.1"/>
<path opacity="0.41" d="M-2.20649 162.954C-2.52334 161.643 -1.72007 160.328 -0.408695 160.011C0.902679 159.694 2.22997 160.548 2.49638 161.871C2.7506 163.145 1.99777 164.448 0.686393 164.764C-0.574543 165.069 -1.88964 164.266 -2.20649 162.954Z" fill="white" fill-opacity="0.1"/>
<path opacity="0.41" d="M8.72857 147.234C9.04542 148.545 8.2804 149.797 6.96903 150.114C5.60722 150.443 4.34255 149.628 4.07614 148.304C3.80973 146.981 4.58694 145.779 5.89831 145.462C7.20968 145.145 8.46216 145.91 8.72857 147.234Z" fill="white" fill-opacity="0.1"/>
<path opacity="0.41" d="M2.24877 119.973C1.93192 118.662 2.75956 117.448 4.07094 117.131C5.38231 116.814 6.59654 117.642 6.91339 118.953C7.23024 120.264 6.40259 121.479 5.09122 121.795C3.76766 122.062 2.56562 121.285 2.24877 119.973Z" fill="white" fill-opacity="0.1"/>
<path opacity="0.41" d="M6.30861 152.463C7.56954 152.158 8.82202 152.923 9.17711 154.172C9.48178 155.433 8.71676 156.685 7.46801 157.04C6.20707 157.345 4.9546 156.58 4.5995 155.331C4.29484 154.07 5.09811 152.755 6.30861 152.463Z" fill="white" fill-opacity="0.1"/>
<path opacity="0.41" d="M1.97759 112.885C1.68512 111.675 2.45014 110.423 3.64845 110.08C4.84676 109.737 6.21229 110.528 6.46652 111.801C6.75899 113.011 5.94353 114.276 4.78347 114.556C3.57298 114.849 2.3205 114.084 1.97759 112.885Z" fill="white" fill-opacity="0.1"/>
<path opacity="0.41" d="M0.163414 167.24C1.37391 166.947 2.63858 167.763 2.93105 168.973C3.22353 170.184 2.36982 171.511 1.14713 171.753C-0.0755516 171.995 -1.34022 171.179 -1.58226 169.957C-1.87473 168.746 -1.05927 167.482 0.163414 167.24Z" fill="white" fill-opacity="0.1"/>
<path opacity="0.41" d="M9.42222 161.372C9.7147 162.583 8.97575 163.722 7.76525 164.015C6.50431 164.319 5.35271 163.53 5.06023 162.32C4.8182 161.097 5.55715 159.957 6.76765 159.665C7.99033 159.423 9.12975 160.162 9.42222 161.372Z" fill="white" fill-opacity="0.1"/>
<path opacity="0.41" d="M10.3344 133.554C10.0419 132.343 10.7687 131.153 11.9792 130.861C13.2401 130.556 14.43 131.283 14.6842 132.556C14.9767 133.767 14.2377 134.906 13.0272 135.198C11.7663 135.503 10.6269 134.764 10.3344 133.554Z" fill="white" fill-opacity="0.1"/>
<path opacity="0.41" d="M12.4764 138.001C13.6869 137.708 14.8646 138.384 15.1571 139.595C15.4496 140.805 14.7732 141.983 13.5627 142.276C12.3522 142.568 11.1746 141.892 10.8821 140.681C10.5896 139.471 11.2659 138.293 12.4764 138.001Z" fill="white" fill-opacity="0.1"/>
<path opacity="0.41" d="M14.3243 125.543C14.6168 126.754 13.8778 127.893 12.6673 128.186C11.4568 128.478 10.3174 127.739 10.0249 126.529C9.74464 125.369 10.4836 124.229 11.6437 123.949C12.9046 123.644 14.0318 124.333 14.3243 125.543Z" fill="white" fill-opacity="0.1"/>
<path opacity="0.41" d="M13.0242 145.128C14.2347 144.836 15.4246 145.562 15.6666 146.785C15.9469 147.945 15.208 149.085 14.0479 149.365C12.8374 149.657 11.6475 148.931 11.4055 147.708C11.1252 146.548 11.8137 145.421 13.0242 145.128Z" fill="white" fill-opacity="0.1"/>
<path opacity="0.41" d="M5.81789 104.698C6.11036 105.908 5.43403 107.086 4.22354 107.378C3.06348 107.659 1.88581 106.982 1.59333 105.772C1.30086 104.561 1.97719 103.384 3.18769 103.091C4.39819 102.799 5.52542 103.487 5.81789 104.698Z" fill="white" fill-opacity="0.1"/>
<path opacity="0.41" d="M11.2091 116.847C12.3691 116.567 13.559 117.294 13.7888 118.466C14.0691 119.626 13.3423 120.816 12.1701 121.046C11.01 121.326 9.82017 120.599 9.59032 119.427C9.31004 118.267 10.0368 117.077 11.2091 116.847Z" fill="white" fill-opacity="0.1"/>
<path opacity="0.41" d="M3.21611 175.897C3.4964 177.057 2.76963 178.247 1.60957 178.527C0.449511 178.808 -0.752529 178.03 -0.970194 176.909C-1.2383 175.799 -0.511529 174.609 0.598094 174.341C1.74597 174.01 2.93582 174.737 3.21611 175.897Z" fill="white" fill-opacity="0.1"/>
<path opacity="0.41" d="M15.9378 153.873C16.2059 154.982 15.4791 156.172 14.3817 156.491C13.2721 156.759 12.0822 156.032 11.7637 154.935C11.4956 153.825 12.2223 152.635 13.3198 152.317C14.4798 152.036 15.6697 152.763 15.9378 153.873Z" fill="white" fill-opacity="0.1"/>
<path opacity="0.41" d="M5.67064 169.486C5.40254 168.376 6.12931 167.186 7.22675 166.868C8.33637 166.599 9.52622 167.326 9.84476 168.424C10.1129 169.533 9.3861 170.723 8.28866 171.042C7.17904 171.31 5.98918 170.583 5.67064 169.486Z" fill="white" fill-opacity="0.1"/>
<path opacity="0.41" d="M10.8369 109.784C11.997 109.504 13.1364 110.243 13.3541 111.364C13.5717 112.486 12.8832 113.613 11.7614 113.831C10.6518 114.099 9.46193 113.372 9.24427 112.251C9.0266 111.129 9.72731 110.052 10.8369 109.784Z" fill="white" fill-opacity="0.1"/>
<path opacity="0.41" d="M1.38648 98.5084C1.1062 97.3483 1.81909 96.322 2.97915 96.0417C4.10096 95.824 5.16557 96.4743 5.39542 97.6465C5.61308 98.7683 4.95062 99.7825 3.841 100.051C2.68094 100.331 1.61633 99.6806 1.38648 98.5084Z" fill="white" fill-opacity="0.1"/>
<path opacity="0.41" d="M13.9423 159.533C15.052 159.265 16.1287 159.965 16.409 161.126C16.6267 162.247 15.9642 163.262 14.8546 163.53C13.745 163.798 12.6682 163.097 12.3879 161.937C12.1703 160.815 12.8327 159.801 13.9423 159.533Z" fill="white" fill-opacity="0.1"/>
<path opacity="0.41" d="M19.1538 130.729C20.2634 130.461 21.328 131.111 21.5961 132.221C21.8642 133.33 21.214 134.395 20.1043 134.663C18.9947 134.931 17.9301 134.281 17.662 133.171C17.4565 132.1 18.0946 130.985 19.1538 130.729Z" fill="white" fill-opacity="0.1"/>
<path opacity="0.41" d="M3.41079 183.11C3.6667 184.169 2.97819 185.296 1.919 185.552C0.910253 185.796 -0.216975 185.108 -0.460705 184.099C-0.71662 183.04 -0.0281044 181.912 1.03108 181.656C2.09027 181.401 3.15487 182.051 3.41079 183.11Z" fill="white" fill-opacity="0.1"/>
<path opacity="0.41" d="M6.16796 176.625C5.91204 175.566 6.55012 174.451 7.6093 174.195C8.61805 173.951 9.7331 174.589 9.98901 175.649C10.2449 176.708 9.60685 177.823 8.54766 178.079C7.53892 178.322 6.46212 177.622 6.16796 176.625Z" fill="white" fill-opacity="0.1"/>
<path opacity="0.41" d="M10.3641 102.745C11.4232 102.489 12.5505 103.178 12.7681 104.3C13.0241 105.359 12.2729 106.448 11.2137 106.704C10.1423 106.909 9.12818 106.247 8.87227 105.187C8.60417 104.078 9.30487 103.001 10.3641 102.745Z" fill="white" fill-opacity="0.1"/>
<path opacity="0.41" d="M18.1976 140.248C17.9417 139.189 18.6302 138.062 19.752 137.844C20.8112 137.588 21.9002 138.339 22.1561 139.399C22.3616 140.47 21.6991 141.484 20.6399 141.74C19.5303 142.008 18.4535 141.307 18.1976 140.248Z" fill="white" fill-opacity="0.1"/>
<path opacity="0.41" d="M17.3665 125.982C17.1105 124.923 17.8495 123.784 18.9209 123.578C19.9923 123.373 21.069 124.074 21.325 125.133C21.5304 126.204 20.868 127.218 19.8088 127.474C18.6992 127.742 17.5719 127.054 17.3665 125.982Z" fill="white" fill-opacity="0.1"/>
<path opacity="0.41" d="M21.038 148.69C20.0171 148.883 18.8899 148.195 18.6966 147.174C18.4911 146.103 19.2301 144.963 20.2632 144.82C21.2841 144.627 22.3731 145.378 22.5664 146.399C22.7597 147.42 22.059 148.497 21.038 148.69Z" fill="white" fill-opacity="0.1"/>
<path opacity="0.41" d="M16.8814 118.893C16.6377 117.884 17.2757 116.769 18.3349 116.513C19.3437 116.27 20.4587 116.908 20.7146 117.967C20.9584 118.976 20.3203 120.091 19.2611 120.347C18.2019 120.603 17.1373 119.952 16.8814 118.893Z" fill="white" fill-opacity="0.1"/>
<path opacity="0.41" d="M16.7323 167.987C16.9882 169.046 16.2875 170.123 15.2788 170.367C14.27 170.611 13.2054 169.96 12.9617 168.952C12.7058 167.893 13.4065 166.816 14.4152 166.572C15.4744 166.316 16.4886 166.979 16.7323 167.987Z" fill="white" fill-opacity="0.1"/>
<path opacity="0.41" d="M22.8254 153.436C23.0691 154.445 22.4693 155.497 21.4728 155.792C20.4258 156.098 19.3611 155.448 19.1052 154.389C18.8615 153.38 19.4613 152.327 20.5205 152.071C21.5675 151.765 22.5695 152.377 22.8254 153.436Z" fill="white" fill-opacity="0.1"/>
<path opacity="0.41" d="M2.36709 89.0897C3.37584 88.8459 4.42826 89.4458 4.67199 90.4545C4.92791 91.5137 4.27764 92.5783 3.21846 92.8342C2.20971 93.078 1.19554 92.4155 0.951807 91.4067C0.758515 90.3858 1.35834 89.3334 2.36709 89.0897Z" fill="white" fill-opacity="0.1"/>
<path opacity="0.41" d="M16.4833 111.943C16.2274 110.884 16.8516 109.932 17.9108 109.676C18.9317 109.483 19.8711 110.057 20.127 111.116C20.3829 112.175 19.7587 113.127 18.6995 113.383C17.6786 113.576 16.727 112.952 16.4833 111.943Z" fill="white" fill-opacity="0.1"/>
<path opacity="0.41" d="M12.1439 97.297C12.3998 98.3562 11.7878 99.3582 10.7164 99.5637C9.70764 99.8074 8.7561 99.1832 8.46193 98.1866C8.20601 97.1275 8.81802 96.1255 9.8894 95.92C10.9608 95.7145 11.9001 96.2883 12.1439 97.297Z" fill="white" fill-opacity="0.1"/>
<path opacity="0.41" d="M8.18137 181.424C9.19011 181.18 10.1921 181.792 10.3854 182.813C10.6291 183.822 9.95448 184.785 8.99617 185.017C8.02567 185.198 7.08631 184.624 6.85477 183.666C6.5606 182.669 7.22306 181.655 8.18137 181.424Z" fill="white" fill-opacity="0.1"/>
<path opacity="0.41" d="M21.0682 159.199C22.077 158.955 23.0789 159.567 23.3227 160.576C23.5664 161.585 22.9544 162.587 21.9335 162.78C20.9751 163.012 20.0236 162.388 19.7416 161.441C19.4474 160.445 20.0595 159.443 21.0682 159.199Z" fill="white" fill-opacity="0.1"/>
<path opacity="0.41" d="M3.75678 190.286C3.98832 191.245 3.32587 192.259 2.35537 192.44C1.39706 192.671 0.382887 192.009 0.201782 191.038C-0.0297613 190.08 0.632691 189.066 1.60319 188.885C2.57369 188.704 3.57567 189.316 3.75678 190.286Z" fill="white" fill-opacity="0.1"/>
<path opacity="0.41" d="M26.2919 130.445C27.2502 130.214 28.24 130.775 28.522 131.722C28.7535 132.68 28.192 133.67 27.2458 133.952C26.2875 134.183 25.2977 133.622 25.0158 132.675C24.7338 131.729 25.3336 130.677 26.2919 130.445Z" fill="white" fill-opacity="0.1"/>
<path opacity="0.41" d="M16.9652 175.137C17.1967 176.096 16.5969 177.148 15.6386 177.38C14.6803 177.611 13.6783 176.999 13.4468 176.041C13.2152 175.083 13.8151 174.03 14.7734 173.799C15.7439 173.617 16.7337 174.179 16.9652 175.137Z" fill="white" fill-opacity="0.1"/>
<path opacity="0.41" d="M17.5891 102.601C18.5474 102.369 19.5616 103.032 19.781 103.94C20.0125 104.898 19.35 105.912 18.4422 106.132C17.4839 106.363 16.4697 105.701 16.2503 104.793C15.9562 103.796 16.6186 102.782 17.5891 102.601Z" fill="white" fill-opacity="0.1"/>
<path opacity="0.41" d="M26.8779 137.51C27.8484 137.329 28.8504 137.941 29.0315 138.912C29.2126 139.882 28.538 140.846 27.6179 141.015C26.6978 141.184 25.7463 140.56 25.5269 139.652C25.3076 138.744 25.9196 137.742 26.8779 137.51Z" fill="white" fill-opacity="0.1"/>
<path opacity="0.41" d="M25.8068 123.356C26.7651 123.125 27.7671 123.737 27.9986 124.695C28.2302 125.653 27.5677 126.667 26.6477 126.836C25.7398 127.056 24.7378 126.444 24.5185 125.536C24.2365 124.59 24.8989 123.575 25.8068 123.356Z" fill="white" fill-opacity="0.1"/>
<path opacity="0.41" d="M25.8851 146.878C25.6658 145.971 26.2273 144.981 27.1857 144.749C28.144 144.518 29.146 145.13 29.3775 146.088C29.5969 146.996 28.9848 147.998 28.077 148.217C27.1065 148.398 26.1045 147.786 25.8851 146.878Z" fill="white" fill-opacity="0.1"/>
<path opacity="0.41" d="M1.95508 82.303C2.86295 82.0837 3.85275 82.6452 4.12254 83.5409C4.40452 84.4871 3.79251 85.489 2.8342 85.7206C1.92632 85.9399 0.924344 85.3279 0.704988 84.4201C0.435195 83.5244 0.99677 82.5346 1.95508 82.303Z" fill="white" fill-opacity="0.1"/>
<path opacity="0.41" d="M21.4264 166.426C22.3847 166.194 23.2736 166.78 23.5052 167.739C23.7367 168.697 23.1508 169.586 22.1925 169.817C21.2341 170.049 20.3452 169.463 20.1137 168.505C19.9448 167.585 20.5185 166.645 21.4264 166.426Z" fill="white" fill-opacity="0.1"/>
<path opacity="0.41" d="M11.7092 90.1957C11.9407 91.154 11.367 92.0934 10.4591 92.3127C9.50077 92.5443 8.56141 91.9705 8.34205 91.0626C8.11051 90.1043 8.68428 89.165 9.59215 88.9456C10.5383 88.6636 11.4776 89.2374 11.7092 90.1957Z" fill="white" fill-opacity="0.1"/>
<path opacity="0.41" d="M28.4872 155.218C27.5672 155.387 26.6905 154.851 26.5093 153.881C26.2778 152.923 26.9142 152.022 27.8847 151.84C28.8047 151.672 29.6432 152.27 29.8626 153.178C29.9932 154.16 29.3951 154.999 28.4872 155.218Z" fill="white" fill-opacity="0.1"/>
<path opacity="0.41" d="M17.0779 95.6246C17.9858 95.4053 18.8747 95.9912 19.0941 96.8991C19.3134 97.8069 18.7275 98.6959 17.8196 98.9152C16.9117 99.1346 16.0228 98.5486 15.8035 97.6407C15.6224 96.6702 16.1579 95.7935 17.0779 95.6246Z" fill="white" fill-opacity="0.1"/>
<path opacity="0.41" d="M25.5217 116.432C26.4801 116.2 27.4194 116.774 27.6005 117.745C27.8199 118.653 27.2339 119.541 26.3261 119.761C25.3677 119.992 24.4284 119.419 24.2473 118.448C24.0279 117.54 24.6139 116.651 25.5217 116.432Z" fill="white" fill-opacity="0.1"/>
<path opacity="0.41" d="M14.0954 183.144C13.876 182.236 14.3993 181.309 15.3072 181.09C16.2151 180.87 17.1423 181.394 17.3616 182.302C17.5688 183.159 17.0455 184.086 16.188 184.293C15.2419 184.575 14.3652 184.04 14.0954 183.144Z" fill="white" fill-opacity="0.1"/>
<path opacity="0.41" d="M25.0366 109.342C25.9445 109.123 26.8334 109.709 27.0528 110.617C27.2721 111.525 26.6862 112.414 25.7783 112.633C24.9209 112.84 24.0319 112.254 23.8248 111.397C23.555 110.501 24.1287 109.562 25.0366 109.342Z" fill="white" fill-opacity="0.1"/>
<path opacity="0.41" d="M8.67861 188.563C9.58648 188.344 10.5137 188.867 10.733 189.775C10.9524 190.683 10.3664 191.572 9.45854 191.791C8.60111 191.999 7.72437 191.463 7.45458 190.567C7.23522 189.66 7.77074 188.783 8.67861 188.563Z" fill="white" fill-opacity="0.1"/>
<path opacity="0.41" d="M21.9985 173.654C22.8559 173.447 23.8075 174.072 23.9642 174.941C24.1714 175.799 23.5472 176.75 22.6776 176.907C21.8201 177.114 20.8686 176.49 20.7118 175.62C20.5551 174.751 21.1289 173.811 21.9985 173.654Z" fill="white" fill-opacity="0.1"/>
<path opacity="0.41" d="M4.0784 197.362C4.28558 198.219 3.76225 199.146 2.917 199.404C2.05956 199.611 1.13239 199.088 0.874782 198.243C0.667611 197.385 1.19094 196.458 2.03619 196.2C2.93187 195.931 3.87123 196.504 4.0784 197.362Z" fill="white" fill-opacity="0.1"/>
<path opacity="0.41" d="M28.1941 158.865C29.0516 158.658 29.9787 159.181 30.1859 160.039C30.3931 160.896 29.8697 161.823 29.0123 162.031C28.1549 162.238 27.2277 161.714 27.0205 160.857C26.7751 160.062 27.3489 159.123 28.1941 158.865Z" fill="white" fill-opacity="0.1"/>
<path opacity="0.41" d="M9.06884 81.9188C9.91408 81.6611 10.8534 82.2349 11.0606 83.0923C11.2556 83.8993 10.7323 84.8265 9.87483 85.0337C9.02958 85.2913 8.09023 84.7175 7.88306 83.8601C7.68808 83.0531 8.22359 82.1764 9.06884 81.9188Z" fill="white" fill-opacity="0.1"/>
<path opacity="0.41" d="M23.5292 104.208C23.322 103.351 23.9202 102.512 24.7272 102.317C25.5846 102.11 26.524 102.684 26.6807 103.554C26.8374 104.423 26.2897 105.25 25.4323 105.457C24.5505 105.563 23.6738 105.028 23.5292 104.208Z" fill="white" fill-opacity="0.1"/>
<path opacity="0.41" d="M1.70832 75.3162C2.56575 75.109 3.40424 75.7072 3.59922 76.5142C3.80639 77.3716 3.23263 78.311 2.36301 78.4677C1.49339 78.6244 0.667092 78.0768 0.459921 77.2193C0.303187 76.3497 0.838698 75.4729 1.70832 75.3162Z" fill="white" fill-opacity="0.1"/>
<path opacity="0.41" d="M16.706 88.5612C17.5634 88.354 18.4279 88.8391 18.6351 89.6965C18.8423 90.5539 18.3572 91.4185 17.4998 91.6256C16.6423 91.8328 15.8404 91.386 15.6332 90.5286C15.3756 89.6833 15.8103 88.831 16.706 88.5612Z" fill="white" fill-opacity="0.1"/>
<path opacity="0.41" d="M27.4674 168.009C27.2602 167.152 27.707 166.35 28.5645 166.143C29.4097 165.885 30.2743 166.37 30.4815 167.228C30.6886 168.085 30.1914 168.899 29.3339 169.106C28.426 169.326 27.6746 168.867 27.4674 168.009Z" fill="white" fill-opacity="0.1"/>
<path opacity="0.41" d="M35.7556 138.462C35.9628 139.319 35.4151 140.145 34.5576 140.352C33.7002 140.56 32.8739 140.012 32.6667 139.154C32.51 138.285 32.969 137.533 33.8264 137.326C34.7221 137.056 35.5484 137.604 35.7556 138.462Z" fill="white" fill-opacity="0.1"/>
<path opacity="0.41" d="M32.3817 132.23C32.1745 131.373 32.6596 130.508 33.517 130.301C34.3744 130.094 35.1885 130.591 35.4079 131.499C35.6151 132.357 35.1056 133.12 34.3108 133.366C33.4534 133.573 32.5888 133.088 32.3817 132.23Z" fill="white" fill-opacity="0.1"/>
<path opacity="0.41" d="M33.0319 123.212C33.8894 123.005 34.7035 123.502 34.9106 124.359C35.1178 125.217 34.6084 125.98 33.7509 126.188C32.8935 126.395 32.0794 125.898 31.8722 125.04C31.6772 124.233 32.1745 123.419 33.0319 123.212Z" fill="white" fill-opacity="0.1"/>
<path opacity="0.41" d="M33.2022 146.232C32.995 145.374 33.5045 144.611 34.3619 144.403C35.2194 144.196 35.9831 144.706 36.1902 145.563C36.3974 146.421 35.8879 147.184 35.0305 147.391C34.2235 147.586 33.4094 147.089 33.2022 146.232Z" fill="white" fill-opacity="0.1"/>
<path opacity="0.41" d="M15.6776 188.367C16.4846 188.172 17.3492 188.657 17.4937 189.476C17.6887 190.283 17.1915 191.097 16.334 191.305C15.527 191.5 14.7634 190.99 14.5301 190.246C14.3856 189.427 14.8828 188.612 15.6776 188.367Z" fill="white" fill-opacity="0.1"/>
<path opacity="0.41" d="M24.2997 181.853C24.4947 182.66 23.9974 183.474 23.1904 183.669C22.3834 183.864 21.5693 183.367 21.3621 182.509C21.1671 181.702 21.6766 180.939 22.4714 180.693C23.2784 180.498 24.0925 180.996 24.2997 181.853Z" fill="white" fill-opacity="0.1"/>
<path opacity="0.41" d="M31.5384 117.914C31.3434 117.107 31.8407 116.293 32.6981 116.086C33.5051 115.891 34.3314 116.439 34.5264 117.246C34.7214 118.053 34.2119 118.816 33.4049 119.011C32.5597 119.269 31.7456 118.772 31.5384 117.914Z" fill="white" fill-opacity="0.1"/>
<path opacity="0.41" d="M32.1625 109.009C32.9191 108.826 33.7836 109.311 33.9786 110.118C34.1614 110.875 33.6763 111.739 32.8694 111.934C32.1128 112.117 31.2483 111.632 31.0533 110.825C30.9209 110.056 31.406 109.192 32.1625 109.009Z" fill="white" fill-opacity="0.1"/>
<path opacity="0.41" d="M9.09944 195.828C9.90644 195.633 10.7206 196.131 10.9277 196.988C11.1227 197.795 10.575 198.621 9.768 198.816C8.961 199.011 8.19733 198.502 8.00235 197.695C7.74474 196.85 8.242 196.035 9.09944 195.828Z" fill="white" fill-opacity="0.1"/>
<path opacity="0.41" d="M24.2039 95.2908C25.0109 95.0958 25.8754 95.5809 26.0704 96.3879C26.2654 97.1949 25.7681 98.009 24.9107 98.2162C24.1037 98.4112 23.34 97.9017 23.1068 97.1573C22.8996 96.2999 23.3464 95.498 24.2039 95.2908Z" fill="white" fill-opacity="0.1"/>
<path opacity="0.41" d="M33.7622 153.41C33.5672 152.603 34.0645 151.789 34.8715 151.594C35.6785 151.399 36.5552 151.934 36.6997 152.753C36.8947 153.56 36.3348 154.336 35.5783 154.519C34.7591 154.663 33.945 154.166 33.7622 153.41Z" fill="white" fill-opacity="0.1"/>
<path opacity="0.41" d="M29.1244 173.321C29.8809 173.138 30.7455 173.623 30.9404 174.43C31.1232 175.187 30.626 176.001 29.8694 176.183C29.1129 176.366 28.2483 175.881 28.0533 175.074C27.8705 174.318 28.3678 173.504 29.1244 173.321Z" fill="white" fill-opacity="0.1"/>
<path opacity="0.41" d="M2.51963 203.504C3.28838 203.371 4.11467 203.919 4.24703 204.688C4.37939 205.456 3.86994 206.22 3.11338 206.403C2.34463 206.535 1.51834 205.988 1.38598 205.219C1.25362 204.45 1.80132 203.624 2.51963 203.504Z" fill="white" fill-opacity="0.1"/>
<path opacity="0.41" d="M7.71273 76.7481C7.52993 75.9916 8.01501 75.127 8.82201 74.932C9.57857 74.7493 10.3927 75.2465 10.5755 76.0031C10.7583 76.7596 10.2732 77.6242 9.4662 77.8192C8.69745 77.9515 7.88334 77.4543 7.71273 76.7481Z" fill="white" fill-opacity="0.1"/>
<path opacity="0.41" d="M16.9398 84.4479C16.1832 84.6307 15.3187 84.1456 15.1237 83.3386C14.9409 82.582 15.4382 81.7679 16.1947 81.5851C16.9513 81.4023 17.8158 81.8874 18.0108 82.6944C18.1814 83.4005 17.6842 84.2146 16.9398 84.4479Z" fill="white" fill-opacity="0.1"/>
<path opacity="0.41" d="M0.126078 70.0936C-0.0567189 69.337 0.440542 68.5229 1.20929 68.3905C1.96585 68.2077 2.77996 68.705 2.91232 69.4738C3.09511 70.2303 2.59785 71.0444 1.82911 71.1768C1.07255 71.3596 0.308875 70.8501 0.126078 70.0936Z" fill="white" fill-opacity="0.1"/>
<path opacity="0.41" d="M35.2679 158.758C36.0244 158.575 36.8385 159.072 36.9709 159.841C37.1537 160.598 36.6564 161.412 35.8877 161.544C35.1311 161.727 34.317 161.23 34.1847 160.461C34.014 159.755 34.5113 158.941 35.2679 158.758Z" fill="white" fill-opacity="0.1"/>
<path opacity="0.41" d="M31.7018 102.02C32.4583 101.838 33.2098 102.297 33.4048 103.104C33.5876 103.86 33.1164 104.561 32.3599 104.744C31.6033 104.927 30.8518 104.468 30.6568 103.661C30.474 102.904 30.9452 102.203 31.7018 102.02Z" fill="white" fill-opacity="0.1"/>
<path opacity="0.41" d="M22.7347 90.094C22.5519 89.3375 23.0613 88.5738 23.8805 88.4293C24.6492 88.2969 25.3503 88.7681 25.4827 89.5369C25.6655 90.2934 25.156 91.0571 24.3368 91.2016C23.5681 91.334 22.867 90.8628 22.7347 90.094Z" fill="white" fill-opacity="0.1"/>
<path opacity="0.41" d="M24.4943 189.066C24.6771 189.822 24.2059 190.523 23.4494 190.706C22.6928 190.889 21.9917 190.418 21.8594 189.649C21.7392 188.931 22.16 188.242 22.8661 188.071C23.6105 187.838 24.362 188.297 24.4943 189.066Z" fill="white" fill-opacity="0.1"/>
<path opacity="0.41" d="M28.5002 182.226C28.3296 181.52 28.7382 180.781 29.4443 180.61C30.1887 180.377 30.9401 180.836 31.1108 181.542C31.2936 182.299 30.8728 182.987 30.1162 183.17C29.4101 183.341 28.7213 182.92 28.5002 182.226Z" fill="white" fill-opacity="0.1"/>
<path opacity="0.41" d="M8.63878 204.748C8.45599 203.991 8.86456 203.252 9.62112 203.069C10.3272 202.898 11.0161 203.319 11.2372 204.013C11.42 204.77 11.0114 205.509 10.2548 205.692C9.56088 205.913 8.87202 205.492 8.63878 204.748Z" fill="white" fill-opacity="0.1"/>
<path opacity="0.41" d="M41.2626 116.846C41.4333 117.552 40.9621 118.253 40.2559 118.424C39.5498 118.594 38.8488 118.123 38.6781 117.417C38.5075 116.711 38.9787 116.01 39.6849 115.839C40.391 115.669 41.1425 116.128 41.2626 116.846Z" fill="white" fill-opacity="0.1"/>
<path opacity="0.41" d="M41.7982 123.923C41.981 124.68 41.5098 125.381 40.7532 125.564C40.0471 125.734 39.3461 125.263 39.1755 124.557C38.9927 123.8 39.4639 123.099 40.2204 122.916C40.9265 122.746 41.6276 123.217 41.7982 123.923Z" fill="white" fill-opacity="0.1"/>
<path opacity="0.41" d="M39.711 131.634C39.5282 130.877 39.9994 130.176 40.756 129.993C41.5125 129.811 42.2136 130.282 42.3964 131.038C42.567 131.744 42.0958 132.445 41.3897 132.616C40.5827 132.811 39.8434 132.402 39.711 131.634Z" fill="white" fill-opacity="0.1"/>
<path opacity="0.41" d="M17.3866 75.6919C17.5572 76.398 17.1486 77.1373 16.4425 77.3079C15.7364 77.4785 14.9971 77.0699 14.8264 76.3638C14.6558 75.6577 15.0644 74.9184 15.7705 74.7478C16.4767 74.5772 17.2282 75.0362 17.3866 75.6919Z" fill="white" fill-opacity="0.1"/>
<path opacity="0.41" d="M32.9946 96.1028C33.1652 96.8089 32.7062 97.5604 32 97.731C31.2939 97.9016 30.5424 97.4426 30.3718 96.7365C30.2012 96.0304 30.6602 95.2789 31.3663 95.1083C32.0725 94.9377 32.8239 95.3967 32.9946 96.1028Z" fill="white" fill-opacity="0.1"/>
<path opacity="0.41" d="M41.0393 137.131C41.7959 136.949 42.4848 137.369 42.6676 138.126C42.8503 138.883 42.3792 139.584 41.6226 139.766C40.9165 139.937 40.2276 139.516 39.9944 138.772C39.8742 138.054 40.2828 137.314 41.0393 137.131Z" fill="white" fill-opacity="0.1"/>
<path opacity="0.41" d="M41.5871 144.259C42.3436 144.076 43.0447 144.548 43.2275 145.304C43.3477 146.022 42.9269 146.711 42.2208 146.882C41.4642 147.065 40.7632 146.593 40.5804 145.837C40.4098 145.131 40.8305 144.442 41.5871 144.259Z" fill="white" fill-opacity="0.1"/>
<path opacity="0.41" d="M34.7828 167.576C34.6 166.82 35.0712 166.118 35.84 165.986C36.6087 165.854 37.3098 166.325 37.4421 167.094C37.5623 167.812 37.1415 168.501 36.4354 168.671C35.6545 168.753 34.9152 168.345 34.7828 167.576Z" fill="white" fill-opacity="0.1"/>
<path opacity="0.41" d="M16.2253 195.495C16.9819 195.312 17.6708 195.732 17.8536 196.489C18.0364 197.246 17.5652 197.947 16.8086 198.129C16.1025 198.3 15.4136 197.879 15.2308 197.123C15.048 196.366 15.4688 195.677 16.2253 195.495Z" fill="white" fill-opacity="0.1"/>
<path opacity="0.41" d="M8.32303 68.0061C9.02916 67.8355 9.78065 68.2945 9.95126 69.0006C10.1097 69.6563 9.65066 70.4078 8.99497 70.5662C8.28885 70.7368 7.53736 70.2778 7.36675 69.5717C7.19614 68.8656 7.66734 68.1645 8.32303 68.0061Z" fill="white" fill-opacity="0.1"/>
<path opacity="0.41" d="M40.8898 152.862C40.7191 152.156 41.1782 151.404 41.8965 151.284C42.5522 151.126 43.2532 151.597 43.4621 152.24C43.6327 152.946 43.1737 153.698 42.4554 153.818C41.7997 153.977 41.0482 153.518 40.8898 152.862Z" fill="white" fill-opacity="0.1"/>
<path opacity="0.41" d="M3.01687 210.643C3.67255 210.485 4.42404 210.944 4.53203 211.612C4.69045 212.267 4.23144 213.019 3.56356 213.127C2.90788 213.285 2.15639 212.826 2.0484 212.159C1.94042 211.491 2.34899 210.751 3.01687 210.643Z" fill="white" fill-opacity="0.1"/>
<path opacity="0.41" d="M35.3444 174.54C35.186 173.885 35.5946 173.145 36.2503 172.987C36.906 172.828 37.6453 173.237 37.8037 173.893C37.9621 174.548 37.5535 175.288 36.8979 175.446C36.2544 175.655 35.5029 175.196 35.3444 174.54Z" fill="white" fill-opacity="0.1"/>
<path opacity="0.41" d="M38.4314 110.43C38.2729 109.774 38.6815 109.035 39.3372 108.877C39.9929 108.718 40.7322 109.127 40.8906 109.783C41.049 110.438 40.6404 111.178 39.9848 111.336C39.3413 111.545 38.602 111.136 38.4314 110.43Z" fill="white" fill-opacity="0.1"/>
<path opacity="0.41" d="M23.4581 81.3782C24.1138 81.2198 24.8653 81.6788 24.9733 82.3466C25.1317 83.0023 24.6727 83.7538 24.0048 83.8618C23.3491 84.0202 22.5976 83.5612 22.4896 82.8934C22.3312 82.2377 22.8024 81.5366 23.4581 81.3782Z" fill="white" fill-opacity="0.1"/>
<path opacity="0.41" d="M41.4636 159.876C41.3556 159.209 41.7381 158.582 42.3938 158.424C43.0999 158.253 43.7383 158.686 43.8585 159.405C43.9787 160.123 43.5457 160.761 42.8152 160.831C42.21 160.977 41.5716 160.544 41.4636 159.876Z" fill="white" fill-opacity="0.1"/>
<path opacity="0.41" d="M-0.00591149 62.9189C-0.164334 62.2632 0.21818 61.637 0.861681 61.4281C1.56781 61.2575 2.24448 61.6278 2.41509 62.334C2.5857 63.0401 2.15275 63.6785 1.44662 63.8491C0.728313 63.9693 0.152511 63.5746 -0.00591149 62.9189Z" fill="white" fill-opacity="0.1"/>
<path opacity="0.41" d="M30.0258 89.5603C29.8673 88.9046 30.2498 88.2783 30.956 88.1077C31.6117 87.9493 32.2379 88.3318 32.4085 89.0379C32.5669 89.6936 32.1844 90.3199 31.4783 90.4905C30.76 90.6106 30.1842 90.2159 30.0258 89.5603Z" fill="white" fill-opacity="0.1"/>
<path opacity="0.41" d="M15.9177 204.163C15.7593 203.508 16.1922 202.869 16.8601 202.761C17.528 202.653 18.1038 203.048 18.2117 203.716C18.3702 204.372 17.9372 205.01 17.2693 205.118C16.6397 205.163 16.0135 204.781 15.9177 204.163Z" fill="white" fill-opacity="0.1"/>
<path opacity="0.41" d="M37.9845 103.278C37.8261 102.622 38.2086 101.996 38.9147 101.825C39.5704 101.667 40.1966 102.05 40.3672 102.756C40.5257 103.411 40.1432 104.038 39.437 104.208C38.7187 104.328 38.1429 103.934 37.9845 103.278Z" fill="white" fill-opacity="0.1"/>
<path opacity="0.41" d="M30.0303 187.675C30.686 187.516 31.3122 187.899 31.4828 188.605C31.6413 189.261 31.2588 189.887 30.5526 190.058C29.897 190.216 29.2707 189.834 29.1001 189.127C28.9799 188.409 29.3624 187.783 30.0303 187.675Z" fill="white" fill-opacity="0.1"/>
<path opacity="0.41" d="M22.508 196.752C22.3496 196.097 22.7321 195.47 23.3878 195.312C24.0435 195.154 24.6697 195.536 24.8282 196.192C24.9866 196.847 24.6041 197.474 23.9484 197.632C23.2927 197.79 22.6665 197.408 22.508 196.752Z" fill="white" fill-opacity="0.1"/>
<path opacity="0.41" d="M36.6711 180.252C37.2763 180.106 37.9147 180.538 38.061 181.144C38.2072 181.749 37.7743 182.387 37.169 182.534C36.5638 182.68 35.9253 182.247 35.7791 181.642C35.6207 180.986 36.0536 180.348 36.6711 180.252Z" fill="white" fill-opacity="0.1"/>
<path opacity="0.41" d="M15.4733 67.7733C16.0786 67.627 16.7553 67.9973 16.9015 68.6026C17.0477 69.2078 16.6774 69.8845 16.0722 70.0307C15.4669 70.177 14.7902 69.8067 14.644 69.2014C14.4856 68.5457 14.8681 67.9195 15.4733 67.7733Z" fill="white" fill-opacity="0.1"/>
<path opacity="0.41" d="M42.9659 165.652C43.5712 165.506 44.2096 165.939 44.3558 166.544C44.5021 167.15 44.0691 167.788 43.4639 167.934C42.8586 168.081 42.2202 167.648 42.074 167.042C41.9155 166.387 42.3485 165.748 42.9659 165.652Z" fill="white" fill-opacity="0.1"/>
<path opacity="0.41" d="M7.89885 61.1691C8.5041 61.0229 9.15472 61.5063 9.23833 62.0733C9.33413 62.6907 8.90118 63.3291 8.28375 63.4249C7.60369 63.4825 7.16532 63.2147 6.95646 62.5712C6.86066 61.9538 7.2936 61.3154 7.89885 61.1691Z" fill="white" fill-opacity="0.1"/>
<path opacity="0.41" d="M48.6747 143.988C49.28 143.842 49.9062 144.224 50.0402 144.779C50.1865 145.384 49.804 146.01 49.2492 146.144C48.6943 146.279 48.0177 145.908 47.8836 145.353C47.7374 144.748 48.1199 144.122 48.6747 143.988Z" fill="white" fill-opacity="0.1"/>
<path opacity="0.41" d="M46.0562 117.022C45.91 116.417 46.2925 115.791 46.8473 115.657C47.4526 115.511 48.0788 115.893 48.2129 116.448C48.3469 117.003 47.9766 117.679 47.4218 117.813C46.8287 118.01 46.2025 117.628 46.0562 117.022Z" fill="white" fill-opacity="0.1"/>
<path opacity="0.41" d="M31.7478 81.8842C31.8818 82.439 31.5115 83.1157 30.9567 83.2497C30.3514 83.396 29.7252 83.0134 29.5911 82.4586C29.4449 81.8534 29.8274 81.2271 30.3822 81.0931C30.9875 80.9468 31.6137 81.3294 31.7478 81.8842Z" fill="white" fill-opacity="0.1"/>
<path opacity="0.41" d="M9.32561 211.788C9.17937 211.183 9.61231 210.545 10.2176 210.398C10.835 210.302 11.4734 210.735 11.5692 211.353C11.6268 212.033 11.359 212.471 10.7155 212.68C10.1103 212.826 9.45966 212.343 9.32561 211.788Z" fill="white" fill-opacity="0.1"/>
<path opacity="0.41" d="M22.9469 74.402C23.5521 74.2558 24.2288 74.6261 24.375 75.2313C24.5213 75.8366 24.1005 76.5254 23.4831 76.6212C22.8152 76.7292 22.3264 76.4737 22.1175 75.8302C21.9331 75.2875 22.3538 74.5987 22.9469 74.402Z" fill="white" fill-opacity="0.1"/>
<path opacity="0.41" d="M46.8386 131.086C46.6924 130.481 47.1253 129.842 47.7306 129.696C48.348 129.6 49.0369 130.021 49.0822 130.651C49.1398 131.331 48.872 131.769 48.2285 131.978C47.6233 132.124 46.9344 131.703 46.8386 131.086Z" fill="white" fill-opacity="0.1"/>
<path opacity="0.41" d="M49.6056 137.677C49.7518 138.283 49.3815 138.959 48.7762 139.106C48.171 139.252 47.4821 138.831 47.3863 138.214C47.2783 137.546 47.5965 137.095 48.1774 136.848C48.72 136.664 49.4089 137.084 49.6056 137.677Z" fill="white" fill-opacity="0.1"/>
<path opacity="0.41" d="M38.5426 94.7624C39.1479 94.6162 39.7741 94.9987 39.9082 95.5535C40.0544 96.1588 39.6719 96.785 39.1171 96.919C38.5623 97.0531 37.8856 96.6828 37.7515 96.128C37.567 95.5853 37.9496 94.9591 38.5426 94.7624Z" fill="white" fill-opacity="0.1"/>
<path opacity="0.41" d="M48.7606 123.575C48.9068 124.181 48.4739 124.819 47.8686 124.965C47.2634 125.111 46.5745 124.691 46.4787 124.073C46.3707 123.405 46.6889 122.955 47.3324 122.746C47.9377 122.6 48.6265 123.021 48.7606 123.575Z" fill="white" fill-opacity="0.1"/>
<path opacity="0.41" d="M3.44984 217.959C4.05509 217.813 4.63089 218.207 4.72669 218.825C4.83468 219.493 4.5043 219.893 3.89905 220.039C3.2938 220.185 2.718 219.791 2.6222 219.173C2.48815 218.618 2.89503 218.093 3.44984 217.959Z" fill="white" fill-opacity="0.1"/>
<path opacity="0.41" d="M42.5208 174.194C42.3624 173.539 42.7571 172.963 43.3745 172.867C43.9919 172.771 44.4425 173.089 44.5887 173.695C44.735 174.3 44.3403 174.876 43.7228 174.971C43.1054 175.067 42.7053 174.737 42.5208 174.194Z" fill="white" fill-opacity="0.1"/>
<path opacity="0.41" d="M-0.36584 55.9061C-0.512076 55.3009 -0.129561 54.6747 0.487874 54.5789C1.10531 54.4831 1.54367 54.7508 1.75253 55.3943C1.89877 55.9996 1.50407 56.5754 0.898824 56.7216C0.344012 56.8557 -0.219603 56.5114 -0.36584 55.9061Z" fill="white" fill-opacity="0.1"/>
<path opacity="0.41" d="M49.0207 151.164C49.6764 151.006 50.2522 151.4 50.348 152.018C50.4438 152.635 50.1256 153.086 49.5325 153.282C48.9273 153.429 48.3515 153.034 48.2557 152.417C48.1477 151.749 48.4781 151.349 49.0207 151.164Z" fill="white" fill-opacity="0.1"/>
<path opacity="0.41" d="M23.7582 202.589C24.3634 202.443 24.9148 202.737 25.0611 203.342C25.2073 203.947 24.9135 204.499 24.2961 204.594C23.6908 204.741 23.2525 204.473 23.0558 203.88C22.8713 203.337 23.1529 202.735 23.7582 202.589Z" fill="white" fill-opacity="0.1"/>
<path opacity="0.41" d="M17.18 210.051C17.7974 209.955 18.2236 210.172 18.4203 210.765C18.6169 211.358 18.2222 211.934 17.6552 212.018C17.0378 212.114 16.5994 211.846 16.4532 211.241C16.2565 210.647 16.5869 210.247 17.18 210.051Z" fill="white" fill-opacity="0.1"/>
<path opacity="0.41" d="M36.4155 188.694C36.3197 188.077 36.537 187.651 37.1927 187.492C37.798 187.346 38.3616 187.69 38.4574 188.308C38.5532 188.925 38.2854 189.364 37.668 189.46C37.0123 189.618 36.6122 189.288 36.4155 188.694Z" fill="white" fill-opacity="0.1"/>
<path opacity="0.41" d="M21.7333 68.7162C21.6375 68.0988 21.8044 67.6848 22.4479 67.476C23.041 67.2793 23.6046 67.6235 23.7508 68.2288C23.897 68.834 23.6293 69.2724 23.024 69.4186C22.3683 69.5771 21.9804 69.2971 21.7333 68.7162Z" fill="white" fill-opacity="0.1"/>
<path opacity="0.41" d="M49.4815 158.153C50.0989 158.057 50.5129 158.224 50.7218 158.867C50.9184 159.46 50.5742 160.024 49.9689 160.17C49.3637 160.317 48.9253 160.049 48.7791 159.444C48.6711 158.776 48.951 158.388 49.4815 158.153Z" fill="white" fill-opacity="0.1"/>
<path opacity="0.41" d="M30.5519 194.916C31.1572 194.769 31.6704 195.126 31.8166 195.731C31.9628 196.336 31.556 196.862 30.989 196.945C30.3715 197.041 29.9836 196.761 29.7869 196.168C29.6407 195.563 29.9971 195.05 30.5519 194.916Z" fill="white" fill-opacity="0.1"/>
<path opacity="0.41" d="M38.1323 87.7616C38.7115 87.7284 39.1377 87.9457 39.2839 88.5509C39.4302 89.1562 39.0233 89.6816 38.4563 89.7652C37.8389 89.861 37.4387 89.5306 37.2925 88.9254C37.1967 88.3079 37.5393 87.9582 38.1323 87.7616Z" fill="white" fill-opacity="0.1"/>
<path opacity="0.41" d="M47.7782 109.346C47.9245 109.951 47.6307 110.503 47.0254 110.649C46.4201 110.795 45.8687 110.502 45.7729 109.884C45.6267 109.279 45.8944 108.841 46.4875 108.644C47.0806 108.447 47.632 108.741 47.7782 109.346Z" fill="white" fill-opacity="0.1"/>
<path opacity="0.41" d="M7.77903 54.0449C8.11652 54.337 8.55489 54.6048 8.75326 54.9839C8.976 55.4639 8.49261 56.1145 7.96386 56.1355C7.38467 56.1687 6.89587 55.9131 6.87488 55.3843C6.87827 54.9565 7.20865 54.5564 7.37553 54.1424C7.52685 54.1058 7.62772 54.0814 7.77903 54.0449Z" fill="white" fill-opacity="0.1"/>
<path opacity="0.41" d="M50.257 165.119C50.5945 165.411 51.0207 165.628 51.219 166.007C51.4922 166.475 51.0088 167.126 50.4923 167.197C49.9253 167.281 49.4365 167.025 49.4033 166.446C49.3562 166.03 49.6866 165.63 49.8535 165.216C50.0048 165.179 50.1057 165.155 50.257 165.119Z" fill="white" fill-opacity="0.1"/>
<path opacity="0.41" d="M46.0024 101.555C46.6824 101.497 47.1086 101.714 47.2548 102.32C47.4011 102.925 47.0829 103.375 46.4776 103.522C45.9228 103.656 45.4844 103.388 45.3382 102.783C45.1293 102.139 45.4597 101.739 46.0024 101.555Z" fill="white" fill-opacity="0.1"/>
<path opacity="0.41" d="M11.7413 218.251C11.8371 218.868 11.6197 219.295 10.964 219.453C10.3588 219.599 9.90825 219.281 9.76201 218.676C9.62796 218.121 9.89571 217.683 10.4505 217.549C11.1062 217.39 11.4941 217.67 11.7413 218.251Z" fill="white" fill-opacity="0.1"/>
<path opacity="0.41" d="M30.0728 74.068C30.7024 74.0226 31.1286 74.24 31.2748 74.8452C31.421 75.4505 31.1028 75.901 30.4976 76.0472C29.9428 76.1813 29.5044 75.9135 29.3582 75.3083C29.1998 74.6526 29.5301 74.2525 30.0728 74.068Z" fill="white" fill-opacity="0.1"/>
<path opacity="0.41" d="M16.2146 61.562C16.26 62.1916 16.0426 62.6178 15.4374 62.7641C14.8321 62.9103 14.3816 62.5921 14.2353 61.9869C14.1013 61.432 14.369 60.9937 14.9743 60.8474C15.63 60.689 16.0179 60.969 16.2146 61.562Z" fill="white" fill-opacity="0.1"/>
<path opacity="0.41" d="M44.9746 180.594C45.0704 181.212 44.8653 181.688 44.2601 181.835C43.6548 181.981 43.2165 181.713 43.0702 181.108C42.9362 180.553 43.2039 180.115 43.7465 179.93C44.3396 179.734 44.7902 180.052 44.9746 180.594Z" fill="white" fill-opacity="0.1"/>
<path opacity="0.41" d="M54.6861 122.25C55.0236 122.542 55.5124 122.798 55.5977 123.151C55.6709 123.454 55.2762 124.029 54.9475 124.216C54.417 124.451 53.9039 124.094 53.8707 123.515C53.8358 123.15 54.1662 122.75 54.3331 122.336C54.4339 122.311 54.5348 122.287 54.6861 122.25Z" fill="white" fill-opacity="0.1"/>
<path opacity="0.41" d="M37.7161 194.519C38.0536 194.811 38.5546 195.117 38.6277 195.42C38.7008 195.723 38.3061 196.298 37.9652 196.434C37.4348 196.669 36.9216 196.313 36.8884 195.733C36.8536 195.368 37.184 194.968 37.3508 194.554C37.4639 194.58 37.6152 194.544 37.7161 194.519Z" fill="white" fill-opacity="0.1"/>
<path opacity="0.41" d="M32.2374 202.996C31.9453 203.333 31.7019 203.873 31.3488 203.958C31.0462 204.031 30.42 203.649 30.2964 203.358C30.0615 202.828 30.3675 202.327 30.9345 202.243C31.2997 202.208 31.7503 202.526 32.1017 202.655C32.1765 202.744 32.2008 202.845 32.2374 202.996Z" fill="white" fill-opacity="0.1"/>
<path opacity="0.41" d="M37.7725 80.7487C38.11 81.0409 38.611 81.3469 38.6841 81.6495C38.7572 81.9521 38.3625 82.5279 38.0216 82.6636C37.4912 82.8986 36.978 82.5421 36.9448 81.9629C36.91 81.5977 37.2404 81.1976 37.4072 80.7836C37.5203 80.8097 37.6716 80.7731 37.7725 80.7487Z" fill="white" fill-opacity="0.1"/>
<path opacity="0.41" d="M24.4589 209.466C24.7964 209.758 25.2852 210.014 25.3705 210.367C25.4436 210.67 25.0489 211.246 24.7202 211.432C24.1898 211.667 23.6766 211.31 23.6434 210.731C23.6086 210.366 23.939 209.966 24.1058 209.552C24.2067 209.527 24.358 209.491 24.4589 209.466Z" fill="white" fill-opacity="0.1"/>
<path opacity="0.41" d="M56.9888 144.595C56.6845 144.882 56.3906 145.433 56.0254 145.468C55.7106 145.491 55.1348 145.096 54.999 144.755C54.7641 144.225 55.171 143.699 55.7119 143.729C56.0894 143.744 56.4895 144.075 56.853 144.254C56.9783 144.33 56.9522 144.443 56.9888 144.595Z" fill="white" fill-opacity="0.1"/>
<path opacity="0.41" d="M55.5172 136.516C55.8547 136.808 56.3939 137.052 56.4288 137.417C56.5019 137.72 56.1072 138.295 55.7785 138.482C55.2481 138.716 54.7349 138.36 54.7017 137.781C54.6669 137.416 54.9973 137.015 55.1641 136.601C55.3155 136.565 55.4163 136.541 55.5172 136.516Z" fill="white" fill-opacity="0.1"/>
<path opacity="0.41" d="M44.6913 95.4653C44.9834 95.1278 45.239 94.639 45.592 94.5537C45.8946 94.4806 46.4704 94.8753 46.6566 95.204C46.8916 95.7345 46.5351 96.2476 45.9559 96.2808C45.5907 96.3157 45.1906 95.9853 44.7766 95.8184C44.7522 95.7175 44.7156 95.5662 44.6913 95.4653Z" fill="white" fill-opacity="0.1"/>
<path opacity="0.41" d="M54.0166 130.526C54.321 130.239 54.6148 129.688 54.98 129.653C55.2948 129.63 55.8707 130.025 56.0064 130.366C56.1909 130.908 55.8344 131.421 55.2431 131.404C54.8656 131.389 54.4655 131.058 54.1019 130.879C54.0654 130.728 54.041 130.627 54.0166 130.526Z" fill="white" fill-opacity="0.1"/>
<path opacity="0.41" d="M22.3663 60.2893C22.6412 60.5432 23.13 60.7987 23.1527 61.1135C23.1753 61.4284 22.8693 61.9293 22.5911 62.1033C22.1111 62.3261 21.6101 62.0201 21.5891 61.4913C21.5542 61.1261 21.8464 60.7886 22.0254 60.425C22.1141 60.3502 22.215 60.3258 22.3663 60.2893Z" fill="white" fill-opacity="0.1"/>
<path opacity="0.41" d="M18.9037 218.068C18.6498 218.343 18.4325 218.769 18.1543 218.943C17.6743 219.166 17.1228 218.872 17.1523 218.331C17.1296 218.017 17.4861 217.503 17.7765 217.38C18.0669 217.256 18.467 217.587 18.8689 217.703C18.8428 217.816 18.8793 217.968 18.9037 218.068Z" fill="white" fill-opacity="0.1"/>
<path opacity="0.41" d="M50.6273 172.396C50.9144 172.7 51.3406 172.917 51.4763 173.258C51.6608 173.801 51.3426 174.251 50.8017 174.222C50.4747 174.194 49.9232 173.9 49.8501 173.598C49.777 173.295 50.0952 172.845 50.2116 172.443C50.363 172.406 50.5265 172.42 50.6273 172.396Z" fill="white" fill-opacity="0.1"/>
<path opacity="0.41" d="M0.17846 47.5537C0.465516 47.858 0.891696 48.0753 1.02744 48.4162C1.21193 48.9589 0.893739 49.4094 0.352806 49.38C0.0258083 49.3522 -0.537809 49.0079 -0.598742 48.7557C-0.671862 48.4531 -0.353671 48.0026 -0.174604 47.639C-0.0859158 47.5642 0.0775853 47.5781 0.17846 47.5537Z" fill="white" fill-opacity="0.1"/>
<path opacity="0.41" d="M4.21151 225.088C4.49857 225.392 4.8865 225.672 5.02224 226.013C5.20673 226.556 4.8381 227.019 4.28498 226.939C3.95798 226.911 3.4448 226.555 3.37169 226.252C3.29857 225.949 3.6672 225.487 3.84627 225.123C3.95933 225.149 4.11064 225.113 4.21151 225.088Z" fill="white" fill-opacity="0.1"/>
<path opacity="0.41" d="M14.691 53.7092C14.9658 53.9631 15.392 54.1804 15.566 54.4587C15.7888 54.9387 15.4949 55.4901 14.954 55.4607C14.6392 55.4834 14.126 55.1269 14.0025 54.8365C13.8789 54.546 14.2093 54.1459 14.3257 53.7441C14.4388 53.7702 14.5397 53.7458 14.691 53.7092Z" fill="white" fill-opacity="0.1"/>
<path opacity="0.41" d="M30.8628 68.0585C30.609 68.3334 30.3534 68.8222 30.0386 68.8449C29.7238 68.8676 29.1723 68.5737 29.0488 68.2833C28.826 67.8033 29.0816 67.3145 29.6608 67.2813C30.026 67.2465 30.3635 67.5386 30.7653 67.655C30.8019 67.8063 30.8263 67.9072 30.8628 68.0585Z" fill="white" fill-opacity="0.1"/>
<path opacity="0.41" d="M57.4617 151.634C57.1574 151.921 56.9523 152.397 56.6114 152.533C56.0809 152.768 55.6304 152.45 55.5972 151.871C55.5745 151.556 55.9188 150.992 56.2092 150.869C56.4997 150.745 56.9502 151.063 57.352 151.18C57.4008 151.382 57.4252 151.482 57.4617 151.634Z" fill="white" fill-opacity="0.1"/>
<path opacity="0.41" d="M43.557 187.983C43.8109 187.709 44.0665 187.22 44.3813 187.197C44.6961 187.174 45.2475 187.468 45.3711 187.759C45.5938 188.239 45.3382 188.727 44.759 188.761C44.3938 188.795 44.0563 188.503 43.6545 188.387C43.5675 188.248 43.5431 188.147 43.557 187.983Z" fill="white" fill-opacity="0.1"/>
<path opacity="0.41" d="M45.4217 87.4418C45.6966 87.6957 46.1854 87.9513 46.2081 88.2661C46.2308 88.5809 45.9248 89.0819 45.6465 89.2559C45.1665 89.4787 44.6655 89.1726 44.6445 88.6439C44.6096 88.2786 44.9018 87.9411 45.0808 87.5776C45.1573 87.4523 45.3087 87.4158 45.4217 87.4418Z" fill="white" fill-opacity="0.1"/>
<path opacity="0.41" d="M55.2501 116.189C54.9458 116.476 54.7407 116.952 54.3998 117.088C53.8693 117.323 53.4188 117.005 53.3856 116.426C53.3629 116.111 53.7072 115.547 53.9472 115.436C54.2376 115.312 54.6882 115.63 55.09 115.747C55.1892 115.937 55.2135 116.037 55.2501 116.189Z" fill="white" fill-opacity="0.1"/>
<path opacity="0.41" d="M53.6777 108.134C53.9525 108.388 54.3787 108.605 54.5527 108.884C54.7755 109.364 54.4816 109.915 53.9407 109.886C53.6259 109.908 53.1127 109.552 52.9891 109.262C52.8656 108.971 53.196 108.571 53.3124 108.169C53.4255 108.195 53.5264 108.171 53.6777 108.134Z" fill="white" fill-opacity="0.1"/>
<path opacity="0.41" d="M57.8963 158.735C57.6425 159.01 57.3869 159.499 57.0843 159.572C56.8321 159.633 56.4198 159.252 56.1067 159.061C56.2857 158.697 56.4404 158.233 56.7187 158.059C56.9587 157.948 57.4092 158.266 57.7606 158.394C57.8354 158.483 57.872 158.634 57.8963 158.735Z" fill="white" fill-opacity="0.1"/>
<path opacity="0.41" d="M37.4631 73.7237C37.7501 74.028 38.1763 74.2453 38.2112 74.6106C38.2217 74.875 37.8392 75.5012 37.6252 75.4995C37.2983 75.4718 36.7973 75.1657 36.6737 74.8753C36.5623 74.6353 36.9431 74.223 37.1222 73.8594C37.2613 73.7724 37.3622 73.7481 37.4631 73.7237Z" fill="white" fill-opacity="0.1"/>
<path opacity="0.41" d="M53.33 101.172C53.6048 101.426 54.0815 101.631 54.1668 101.984C54.2277 102.236 53.8469 102.648 53.6556 102.961C53.2921 102.782 52.8276 102.628 52.6536 102.349C52.5423 102.109 52.8605 101.659 52.9891 101.308C53.09 101.283 53.2291 101.196 53.33 101.172Z" fill="white" fill-opacity="0.1"/>
<path opacity="0.41" d="M58.1919 165.924C57.938 166.199 57.6703 166.637 57.4059 166.647C57.0911 166.67 56.6284 166.302 56.5552 165.999C56.5065 165.797 56.8508 165.234 57.1029 165.173C57.4056 165.1 57.8057 165.43 58.1066 165.571C58.1936 165.71 58.218 165.811 58.1919 165.924Z" fill="white" fill-opacity="0.1"/>
<path opacity="0.41" d="M7.22957 47.131C7.50444 47.3849 7.98106 47.5901 8.00374 47.9049C8.02642 48.2197 7.70822 48.6702 7.41778 48.7938C7.22822 48.893 6.6646 48.5487 6.54104 48.2583C6.46792 47.9557 6.74787 47.5677 6.8765 47.2164C7.02781 47.1798 7.12869 47.1554 7.22957 47.131Z" fill="white" fill-opacity="0.1"/>
<path opacity="0.41" d="M32.5834 210.173C32.3295 210.447 32.0618 210.886 31.7974 210.896C31.4826 210.919 31.0198 210.55 30.9467 210.248C30.898 210.046 31.2422 209.482 31.4944 209.421C31.797 209.348 32.185 209.628 32.5485 209.807C32.5346 209.971 32.559 210.072 32.5834 210.173Z" fill="white" fill-opacity="0.1"/>
<path opacity="0.41" d="M10.3862 225.678C10.6401 225.403 10.8452 224.927 11.1096 224.916C11.4244 224.894 11.875 225.212 11.9985 225.502C12.0977 225.692 11.7535 226.255 11.5135 226.367C11.2108 226.44 10.8229 226.16 10.4837 226.082C10.435 225.88 10.4106 225.779 10.3862 225.678Z" fill="white" fill-opacity="0.1"/>
<path opacity="0.41" d="M51.0864 179.598C51.3613 179.852 51.8379 180.057 51.8988 180.309C51.9215 180.624 51.6033 181.075 51.3251 181.249C51.1355 181.348 50.5214 181.016 50.4605 180.764C50.3874 180.461 50.6673 180.073 50.7455 179.734C50.8847 179.647 50.9855 179.622 51.0864 179.598Z" fill="white" fill-opacity="0.1"/>
<path opacity="0.41" d="M38.163 201.671C38.4378 201.925 38.9144 202.13 38.9754 202.382C38.9981 202.697 38.6799 203.148 38.4016 203.322C38.212 203.421 37.598 203.089 37.5371 202.837C37.4639 202.534 37.6934 202.158 37.8221 201.807C37.9612 201.72 38.0621 201.696 38.163 201.671Z" fill="white" fill-opacity="0.1"/>
<path opacity="0.41" d="M44.7046 194.058C45.1291 194.49 45.5553 194.707 45.5658 194.971C45.5762 195.236 45.2702 195.737 45.0181 195.798C44.7659 195.859 44.3153 195.54 44.1918 195.25C44.1308 194.998 44.423 194.66 44.7046 194.058Z" fill="white" fill-opacity="0.1"/>
<path opacity="0.41" d="M26.0574 217.408C25.6383 217.883 25.4088 218.258 25.1566 218.319C24.8922 218.33 24.3912 218.024 24.3425 217.822C24.2816 217.57 24.5998 217.119 24.8398 217.008C25.1302 216.884 25.4677 217.177 26.0574 217.408Z" fill="white" fill-opacity="0.1"/>
<path opacity="0.41" d="M29.2661 59.9032C29.741 60.3223 30.1167 60.5518 30.1777 60.804C30.1882 61.0683 29.8334 61.3676 29.6926 61.6685C29.3795 61.4773 28.9776 61.3608 28.8663 61.1208C28.7427 60.8304 29.0348 60.4929 29.2661 59.9032Z" fill="white" fill-opacity="0.1"/>
<path opacity="0.41" d="M0.871059 41.1407C0.451989 41.6156 0.285105 42.0296 0.0207303 42.0401C-0.243644 42.0506 -0.732448 41.795 -0.793381 41.5429C-0.854314 41.2907 -0.54831 40.7897 -0.296121 40.7287C-0.0943709 40.68 0.293563 40.9599 0.871059 41.1407Z" fill="white" fill-opacity="0.1"/>
<path opacity="0.41" d="M44.761 80.2881C45.1855 80.7194 45.6117 80.9367 45.6222 81.2011C45.6327 81.4654 45.3266 81.9664 45.0744 82.0274C44.8223 82.0883 44.3717 81.7701 44.2482 81.4797C44.175 81.1771 44.4672 80.8396 44.761 80.2881Z" fill="white" fill-opacity="0.1"/>
<path opacity="0.41" d="M62.4048 136.08C62.8676 136.448 63.2937 136.666 63.3547 136.918C63.4156 137.17 63.073 137.52 62.9322 137.821C62.6313 137.68 62.179 137.576 62.0555 137.285C61.9441 137.045 62.2241 136.657 62.4048 136.08Z" fill="white" fill-opacity="0.1"/>
<path opacity="0.41" d="M52.6187 94.0305C53.0815 94.3991 53.5077 94.6165 53.5686 94.8686C53.6295 95.1208 53.3235 95.6218 53.0835 95.7332C52.8313 95.7941 52.3425 95.5386 52.219 95.2481C52.158 94.9959 52.438 94.608 52.6187 94.0305Z" fill="white" fill-opacity="0.1"/>
<path opacity="0.41" d="M61.9197 128.99C62.3824 129.359 62.8086 129.576 62.8695 129.828C62.9305 130.081 62.6245 130.582 62.3845 130.693C62.1323 130.754 61.6435 130.498 61.5199 130.208C61.459 129.956 61.7389 129.568 61.9197 128.99Z" fill="white" fill-opacity="0.1"/>
<path opacity="0.41" d="M60.6696 123.153C61.0382 122.691 61.2555 122.264 61.5077 122.203C61.7599 122.143 62.1096 122.485 62.4105 122.626C62.2697 122.927 62.1654 123.379 61.875 123.503C61.635 123.614 61.2592 123.385 60.6696 123.153Z" fill="white" fill-opacity="0.1"/>
<path opacity="0.41" d="M45.2262 201.299C45.5881 201.692 45.9638 201.922 46.0248 202.174C46.0735 202.376 45.7049 202.838 45.5414 202.825C45.2648 202.785 44.8891 202.555 44.8282 202.303C44.729 202.113 45.0211 201.776 45.2262 201.299Z" fill="white" fill-opacity="0.1"/>
<path opacity="0.41" d="M7.70819 40.7164C7.32738 41.1287 7.14832 41.4923 6.89613 41.5532C6.69439 41.602 6.40733 41.2977 6.15684 41.1446C6.30984 40.8941 6.42628 40.4923 6.66628 40.381C6.85584 40.2818 7.18114 40.5235 7.70819 40.7164Z" fill="white" fill-opacity="0.1"/>
<path opacity="0.41" d="M37.8587 209.912C38.2395 209.5 38.4186 209.136 38.6708 209.075C38.8725 209.027 39.3735 209.333 39.3596 209.496C39.3701 209.76 39.1406 210.136 38.8502 210.26C38.6606 210.359 38.3353 210.117 37.8587 209.912Z" fill="white" fill-opacity="0.1"/>
<path opacity="0.41" d="M58.0284 173.864C57.6161 173.483 57.1899 173.266 57.2038 173.102C57.1933 172.838 57.4976 172.551 57.6889 172.238C57.9394 172.391 58.3534 172.558 58.4648 172.798C58.4631 173.011 58.2214 173.337 58.0284 173.864Z" fill="white" fill-opacity="0.1"/>
<path opacity="0.41" d="M4.50705 232.277C4.91936 232.657 5.34554 232.875 5.34385 233.089C5.35434 233.353 4.99959 233.652 4.79615 233.915C4.53346 233.712 4.13165 233.595 4.07072 233.343C4.00979 233.091 4.25148 232.765 4.50705 232.277Z" fill="white" fill-opacity="0.1"/>
<path opacity="0.41" d="M14.1432 46.5818C14.606 46.9505 15.0199 47.1174 15.0183 47.3313C15.0288 47.5957 14.7366 47.9332 14.5332 48.1959C14.2827 48.0428 13.8304 47.9386 13.7695 47.6864C13.6703 47.4968 13.9503 47.1089 14.1432 46.5818Z" fill="white" fill-opacity="0.1"/>
<path opacity="0.41" d="M36.7519 66.5824C37.1642 66.9632 37.5903 67.1805 37.5887 67.3944C37.5991 67.6588 37.2444 67.958 37.0914 68.2085C36.8287 68.0051 36.4269 67.8886 36.366 67.6365C36.2668 67.4469 36.5589 67.1094 36.7519 66.5824Z" fill="white" fill-opacity="0.1"/>
<path opacity="0.41" d="M18.2129 224.268C18.6252 224.648 19.0514 224.866 19.0497 225.08C19.0602 225.344 18.7054 225.643 18.5524 225.894C18.2897 225.69 17.8879 225.574 17.827 225.322C17.7278 225.132 18.0199 224.795 18.2129 224.268Z" fill="white" fill-opacity="0.1"/>
<path opacity="0.41" d="M52.497 187.425C52.1162 187.837 51.8988 188.263 51.6849 188.262C51.4205 188.272 51.1213 187.917 50.8708 187.764C51.0742 187.502 51.1907 187.1 51.4429 187.039C51.6324 186.94 51.9699 187.232 52.497 187.425Z" fill="white" fill-opacity="0.1"/>
<path opacity="0.41" d="M62.9699 158.524C63.3508 158.111 63.542 157.798 63.7942 157.737C63.9959 157.689 64.5091 158.045 64.4952 158.209C64.5057 158.473 64.2258 158.861 63.9858 158.972C63.784 159.021 63.4466 158.729 62.9699 158.524Z" fill="white" fill-opacity="0.1"/>
<path opacity="0.41" d="M44.1871 73.2735C44.5994 73.6543 44.963 73.8333 45.0239 74.0855C45.0727 74.2873 44.7684 74.5743 44.6154 74.8248C44.3649 74.6718 43.9631 74.5554 43.8517 74.3154C43.7525 74.1258 43.9942 73.8005 44.1871 73.2735Z" fill="white" fill-opacity="0.1"/>
<path opacity="0.41" d="M63.3629 150.208C63.7752 150.589 64.2014 150.806 64.1997 151.02C64.2102 151.284 63.8554 151.584 63.652 151.846C63.3893 151.643 62.9875 151.526 62.9266 151.274C62.8274 151.085 63.1195 150.747 63.3629 150.208Z" fill="white" fill-opacity="0.1"/>
<path opacity="0.41" d="M62.8134 143.294C63.2257 143.675 63.6519 143.892 63.638 144.056C63.6485 144.32 63.3442 144.607 63.153 144.92C62.9025 144.767 62.4885 144.601 62.3771 144.361C62.3788 144.147 62.6205 143.821 62.8134 143.294Z" fill="white" fill-opacity="0.1"/>
<path opacity="0.41" d="M31.2545 217.486C31.6353 217.074 31.8143 216.711 32.0665 216.65C32.2683 216.601 32.7693 216.907 32.7554 217.07C32.7659 217.335 32.5364 217.711 32.2459 217.834C32.0686 217.984 31.7311 217.692 31.2545 217.486Z" fill="white" fill-opacity="0.1"/>
<path opacity="0.41" d="M22.8432 54.0884C22.4624 54.5007 22.2955 54.9147 22.0938 54.9634C21.8294 54.9739 21.5423 54.6696 21.2292 54.4783C21.3822 54.2278 21.5491 53.8138 21.7387 53.7147C21.9908 53.6537 22.3161 53.8954 22.8432 54.0884Z" fill="white" fill-opacity="0.1"/>
<path opacity="0.41" d="M53.3357 87.7182C52.9549 88.1305 52.7758 88.494 52.5236 88.5549C52.3219 88.6037 52.0348 88.2994 51.7843 88.1464C51.9373 87.8959 52.0538 87.4941 52.2938 87.3827C52.4712 87.2331 52.8087 87.5252 53.3357 87.7182Z" fill="white" fill-opacity="0.1"/>
<path opacity="0.41" d="M62.3272 115.653C61.9464 116.065 61.7795 116.479 61.5778 116.528C61.3134 116.539 61.0263 116.234 60.7132 116.043C60.8662 115.793 61.0331 115.379 61.2227 115.279C61.4627 115.168 61.8002 115.46 62.3272 115.653Z" fill="white" fill-opacity="0.1"/>
<path opacity="0.41" d="M60.614 107.9C61.0263 108.28 61.3777 108.409 61.4386 108.661C61.4874 108.863 61.183 109.15 61.0422 109.451C60.7917 109.298 60.3899 109.182 60.2281 108.954C60.1794 108.752 60.4089 108.376 60.614 107.9Z" fill="white" fill-opacity="0.1"/>
<path opacity="0.41" d="M29.8439 53.6781C29.5013 54.0278 29.31 54.3409 29.0578 54.4019C28.8561 54.4506 28.4055 54.1324 28.4194 53.9689C28.4089 53.7045 28.6506 53.3792 28.8906 53.2679C29.0924 53.2191 29.4177 53.4608 29.8439 53.6781Z" fill="white" fill-opacity="0.1"/>
<path opacity="0.41" d="M52.8568 194.437C52.5143 194.787 52.3352 195.151 52.1212 195.149C51.9195 195.198 51.4689 194.88 51.4828 194.716C51.4723 194.452 51.714 194.126 51.954 194.015C52.0549 193.991 52.3802 194.232 52.8568 194.437Z" fill="white" fill-opacity="0.1"/>
<path opacity="0.41" d="M12.4088 232.503C12.1289 232.891 12.0002 233.242 11.8489 233.279C11.5845 233.289 11.3219 233.086 11.0714 232.933C11.2244 232.682 11.3026 232.343 11.5304 232.181C11.6695 232.094 11.9948 232.336 12.4088 232.503Z" fill="white" fill-opacity="0.1"/>
<path opacity="0.41" d="M57.449 180.303C57.7289 179.915 57.8958 179.501 58.0593 179.515C58.3237 179.504 58.5986 179.758 58.8369 179.861C58.7343 180.099 58.6178 180.501 58.4665 180.537C58.2648 180.586 57.9517 180.395 57.449 180.303Z" fill="white" fill-opacity="0.1"/>
<path opacity="0.41" d="M35.5782 60.6201C35.9207 60.2705 36.112 59.9573 36.3642 59.8964C36.5659 59.8477 37.0165 60.1659 37.0026 60.3294C37.0131 60.5937 36.7714 60.919 36.5314 61.0304C36.3923 61.1174 36.0548 60.8253 35.5782 60.6201Z" fill="white" fill-opacity="0.1"/>
<path opacity="0.41" d="M64.1175 164.599C64.5054 164.879 64.9194 165.046 64.9055 165.209C64.916 165.474 64.6622 165.748 64.5596 165.987C64.3213 165.884 63.9195 165.768 63.8829 165.616C63.7837 165.427 63.975 165.114 64.1175 164.599Z" fill="white" fill-opacity="0.1"/>
<path opacity="0.41" d="M25.5774 225.585C25.2399 225.292 24.8381 225.176 24.8398 224.962C24.8293 224.698 25.0831 224.423 25.2362 224.172C25.4866 224.325 25.838 224.454 25.9372 224.643C25.9859 224.845 25.7443 225.171 25.5774 225.585Z" fill="white" fill-opacity="0.1"/>
<path opacity="0.41" d="M51.8486 80.017C52.1861 80.3091 52.5879 80.4256 52.5862 80.6395C52.5967 80.9039 52.3428 81.1787 52.1898 81.4292C51.9393 81.2762 51.5879 81.1476 51.4888 80.958C51.3774 80.718 51.6817 80.431 51.8486 80.017Z" fill="white" fill-opacity="0.1"/>
<path opacity="0.41" d="M60.1915 100.849C60.5412 101.191 60.8543 101.382 60.9152 101.635C60.964 101.836 60.6458 102.287 60.4823 102.273C60.2179 102.283 59.8926 102.042 59.7812 101.802C59.7325 101.6 59.9742 101.275 60.1915 100.849Z" fill="white" fill-opacity="0.1"/>
<path opacity="0.41" d="M21.3805 46.4879C21.7058 46.7296 22.0189 46.9209 22.0555 47.0722C22.0538 47.2861 21.7877 47.5105 21.6852 47.7489C21.4973 47.6341 21.1459 47.5055 21.1094 47.3542C20.998 47.1142 21.2014 46.8515 21.3805 46.4879Z" fill="white" fill-opacity="0.1"/>
<path opacity="0.41" d="M-0.793409 33.5889C-0.506354 33.8932 -0.15498 34.0218 -0.168858 34.1853C-0.17055 34.3993 -0.436617 34.6237 -0.601807 34.8238C-0.801865 34.6586 -1.09061 34.5682 -1.13936 34.3664C-1.22635 34.2273 -0.972477 33.9524 -0.793409 33.5889Z" fill="white" fill-opacity="0.1"/>
<path opacity="0.41" d="M31.8039 224.4C32.0578 224.125 32.1986 223.824 32.3621 223.838C32.5761 223.84 32.7379 224.068 32.9884 224.221C32.8736 224.409 32.7328 224.71 32.5815 224.746C32.3797 224.795 32.1675 224.579 31.8039 224.4Z" fill="white" fill-opacity="0.1"/>
<path opacity="0.41" d="M57.9097 187.291C58.1514 186.966 58.3426 186.653 58.5061 186.667C58.7201 186.668 58.9445 186.934 59.1828 187.037C59.0176 187.237 58.9272 187.526 58.7377 187.625C58.5359 187.674 58.2732 187.47 57.9097 187.291Z" fill="white" fill-opacity="0.1"/>
<path opacity="0.41" d="M45.621 208.677C45.8959 208.931 46.1968 209.072 46.1829 209.235C46.1812 209.449 45.9656 209.662 45.8004 209.862C45.6125 209.747 45.3116 209.606 45.275 209.455C45.2385 209.304 45.4419 209.041 45.621 208.677Z" fill="white" fill-opacity="0.1"/>
<path opacity="0.41" d="M13.806 39.8837C14.0931 40.1881 14.4062 40.3793 14.3801 40.4924C14.3784 40.7063 14.1124 40.9307 13.9472 41.1308C13.7471 40.9656 13.4584 40.8752 13.4097 40.6735C13.3609 40.4717 13.627 40.2473 13.806 39.8837Z" fill="white" fill-opacity="0.1"/>
<path opacity="0.41" d="M39.756 216.66C39.5021 216.935 39.3613 217.236 39.1978 217.222C38.9839 217.221 38.7716 217.005 38.5716 216.84C38.6863 216.652 38.8271 216.351 38.9784 216.314C39.1924 216.316 39.4551 216.519 39.756 216.66Z" fill="white" fill-opacity="0.1"/>
<path opacity="0.41" d="M6.29419 33.3177C6.56906 33.5715 6.86999 33.7124 6.90655 33.8637C6.90486 34.0776 6.68923 34.2899 6.52404 34.4899C6.33617 34.3752 6.04742 34.2848 5.99868 34.083C5.94993 33.8813 6.16556 33.669 6.29419 33.3177Z" fill="white" fill-opacity="0.1"/>
<path opacity="0.41" d="M64.7905 171.803C65.0775 172.107 65.3906 172.298 65.3646 172.412C65.3629 172.625 65.0968 172.85 64.9316 173.05C64.7316 172.885 64.4306 172.744 64.3941 172.593C64.3575 172.441 64.6114 172.166 64.7905 171.803Z" fill="white" fill-opacity="0.1"/>
<path opacity="0.41" d="M4.86524 239.504C5.15229 239.808 5.46541 239.999 5.43935 240.112C5.43766 240.326 5.17159 240.551 5.0064 240.751C4.80635 240.585 4.50541 240.445 4.46885 240.293C4.47055 240.079 4.68617 239.867 4.86524 239.504Z" fill="white" fill-opacity="0.1"/>
<path opacity="0.41" d="M44.7666 66.8345C44.5249 67.1599 44.3963 67.5112 44.2328 67.4974C44.0189 67.4957 43.7562 67.2922 43.5561 67.127C43.6709 66.9392 43.7491 66.6 43.9508 66.5512C44.1021 66.5147 44.4152 66.7059 44.7666 66.8345Z" fill="white" fill-opacity="0.1"/>
<path opacity="0.41" d="M18.6337 231.533C18.9207 231.837 19.2721 231.965 19.2582 232.129C19.2565 232.343 18.9905 232.567 18.8253 232.767C18.6252 232.602 18.3365 232.512 18.2877 232.31C18.1885 232.12 18.4546 231.896 18.6337 231.533Z" fill="white" fill-opacity="0.1"/>
<path opacity="0.41" d="M70.3358 158.078C70.5897 157.804 70.7809 157.49 70.894 157.516C71.1079 157.518 71.2819 157.796 71.4698 157.911C71.355 158.099 71.202 158.35 71.0507 158.386C70.9116 158.473 70.6993 158.257 70.3358 158.078Z" fill="white" fill-opacity="0.1"/>
<path opacity="0.41" d="M52.2386 73.677C51.9969 74.0023 51.856 74.3032 51.7552 74.3276C51.5412 74.3259 51.329 74.1103 51.1411 73.9955C51.2559 73.8076 51.3462 73.5189 51.4976 73.4823C51.6245 73.3449 51.8872 73.5483 52.2386 73.677Z" fill="white" fill-opacity="0.1"/>
<path opacity="0.41" d="M70.5619 150.177C70.8367 150.431 71.1499 150.622 71.1238 150.735C71.1221 150.949 70.8439 151.123 70.7291 151.311C70.5412 151.196 70.2907 151.043 70.2542 150.892C70.2054 150.69 70.4211 150.478 70.5619 150.177Z" fill="white" fill-opacity="0.1"/>
<path opacity="0.41" d="M51.8288 201.892C52.0705 201.567 52.2114 201.266 52.3244 201.292C52.5384 201.294 52.7506 201.51 52.9385 201.624C52.8237 201.812 52.7333 202.101 52.5316 202.15C52.4429 202.225 52.1802 202.021 51.8288 201.892Z" fill="white" fill-opacity="0.1"/>
<path opacity="0.41" d="M70.002 142.999C70.3273 143.24 70.6404 143.432 70.677 143.583C70.6753 143.797 70.4092 144.021 70.3066 144.26C70.1187 144.145 69.7674 144.016 69.7308 143.865C69.6316 143.675 69.8351 143.413 70.002 142.999Z" fill="white" fill-opacity="0.1"/>
<path opacity="0.41" d="M69.4664 135.921C69.7917 136.163 70.1431 136.292 70.1292 136.455C70.1275 136.669 69.9241 136.932 69.7589 137.132C69.571 137.017 69.2318 136.939 69.1831 136.737C69.0961 136.598 69.2873 136.285 69.4664 135.921Z" fill="white" fill-opacity="0.1"/>
<path opacity="0.41" d="M60.7206 94.4215C60.4162 94.7086 60.225 95.0217 60.1119 94.9956C59.898 94.9939 59.6736 94.7279 59.4735 94.5627C59.6387 94.3626 59.7291 94.0739 59.9308 94.0251C60.1326 93.9764 60.357 94.2425 60.7206 94.4215Z" fill="white" fill-opacity="0.1"/>
<path opacity="0.41" d="M69.2075 128.884C69.545 129.176 69.8459 129.317 69.832 129.481C69.8303 129.695 69.5643 129.919 69.4113 130.17C69.2112 130.004 68.9224 129.914 68.8737 129.712C68.8371 129.561 69.0406 129.298 69.2075 128.884Z" fill="white" fill-opacity="0.1"/>
<path opacity="0.41" d="M59.2961 86.7585C59.571 87.0124 59.9223 87.141 59.8963 87.254C59.8946 87.468 59.6789 87.6802 59.5642 87.8681C59.3763 87.7533 59.0876 87.663 59.0388 87.4612C59.0145 87.3603 59.1675 87.1098 59.2961 86.7585Z" fill="white" fill-opacity="0.1"/>
<path opacity="0.41" d="M68.7223 121.795C69.0094 122.099 69.3608 122.228 69.3469 122.391C69.3452 122.605 69.0791 122.83 68.914 123.03C68.7139 122.865 68.4251 122.774 68.3764 122.573C68.2894 122.433 68.5433 122.159 68.7223 121.795Z" fill="white" fill-opacity="0.1"/>
<path opacity="0.41" d="M68.1485 114.781C68.4234 115.034 68.7748 115.163 68.7487 115.276C68.747 115.49 68.5314 115.702 68.4166 115.89C68.2288 115.775 67.94 115.685 67.8913 115.483C67.8043 115.344 68.0199 115.132 68.1485 114.781Z" fill="white" fill-opacity="0.1"/>
<path opacity="0.41" d="M67.3053 108.418C67.5591 108.143 67.7 107.842 67.8635 107.856C68.0774 107.858 68.2392 108.086 68.4897 108.239C68.3749 108.427 68.2341 108.728 68.0828 108.764C67.8689 108.762 67.6566 108.547 67.3053 108.418Z" fill="white" fill-opacity="0.1"/>
</g>
</g>
<defs>
<clipPath id="clip0_46_981">
<rect width="225.249" height="105.282" fill="white" transform="translate(-7.09857 243.675) rotate(-103.583)"/>
</clipPath>
</defs>
</svg>
