<svg width="55" height="55" viewBox="0 0 55 55" fill="none" xmlns="http://www.w3.org/2000/svg">
<g clip-path="url(#clip0_46_978)">
<path d="M36.4401 53.2342C50.6609 48.2811 58.1739 32.7376 53.2207 18.5168C48.2676 4.29604 32.7241 -3.21691 18.5033 1.7362C4.28253 6.6893 -3.23041 22.2328 1.7227 36.4536C6.6758 50.6744 22.2193 58.1873 36.4401 53.2342Z" stroke="url(#paint0_linear_46_978)" stroke-miterlimit="10"/>
<path d="M27.9854 46.9378C38.6623 46.9378 47.3177 38.2824 47.3177 27.6055C47.3177 16.9286 38.6623 8.27319 27.9854 8.27319C17.3084 8.27319 8.65308 16.9286 8.65308 27.6055C8.65308 38.2824 17.3084 46.9378 27.9854 46.9378Z" fill="url(#paint1_radial_46_978)"/>
</g>
<defs>
<linearGradient id="paint0_linear_46_978" x1="1.52883" y1="36.5386" x2="53.4566" y2="18.4521" gradientUnits="userSpaceOnUse">
<stop offset="0.00558659" stop-color="#3C3B42"/>
<stop offset="0.1004" stop-color="#36343B"/>
<stop offset="0.5279" stop-color="#1D181D"/>
<stop offset="1" stop-color="#110B10"/>
</linearGradient>
<radialGradient id="paint1_radial_46_978" cx="0" cy="0" r="1" gradientUnits="userSpaceOnUse" gradientTransform="translate(14.2022 0.999095) scale(51.2356 51.2356)">
<stop offset="0.00558659" stop-color="#3C3B42"/>
<stop offset="0.1004" stop-color="#36343B"/>
<stop offset="0.5279" stop-color="#1D181D"/>
<stop offset="1" stop-color="#0D0B11"/>
</radialGradient>
<clipPath id="clip0_46_978">
<rect width="55" height="55" fill="white"/>
</clipPath>
</defs>
</svg>
