<svg width="34" height="53" viewBox="0 0 34 53" fill="none" xmlns="http://www.w3.org/2000/svg">
<path d="M33.8461 42.1872V0H16.9231H0V42.1872H12.1635L12.0478 50.6016H0V52.8611H16.9231H33.8461V50.6016H22.2735V42.1872H33.8461ZM1.41213 1.2429H32.4992V40.7736H1.41213V1.2429ZM20.625 50.6016H13.75V42.1872H20.625V50.6016Z" fill="#F4F0EA"/>
<path d="M5.28833 28.9717H29.6152L29.6154 30.4966H17.4519H5.28833V28.9717Z" fill="#F4F0EA"/>
<path d="M5.28833 35.071H23.2691V36.5959H14.2788H5.28833V35.071Z" fill="#F4F0EA"/>
<path d="M26.4421 35.071H29.6152V36.5959H26.4423L26.4421 35.071Z" fill="#F4F0EA"/>
<path d="M11.2043 24.1101L17.6893 20.9105L24.1744 24.1101L22.9346 17.3268L28.2319 12.4813L20.9158 11.4838L17.6893 5.34912L14.4629 11.4838L7.14673 12.4813L12.4441 17.3268L11.2043 24.1101ZM16.7025 14.4872L17.6893 12.6109L18.6762 14.4872L20.781 14.7742L19.2613 16.1643L19.6309 18.186L17.6893 17.2281L15.7478 18.186L16.1174 16.1643L14.5976 14.7742L16.7025 14.4872Z" fill="#F4F0EA"/>
</svg>
