<svg width="54" height="53" viewBox="0 0 54 53" fill="none" xmlns="http://www.w3.org/2000/svg">
<path d="M49.7409 24.0278H48V20.3391C48 19.4839 47.4279 19.2222 46.5455 19.2222H34V9.95621V1.54866C34 0.693389 33.6524 0 32.7701 0H1.59767C0.715331 0 0 0.693389 0 1.54866V35.8258C0 36.681 0.715331 37.3744 1.59767 37.3744H32.7701C33.6524 37.3744 34 36.681 34 35.8258V30.7555H46.5C47.3823 30.7555 48 30.4864 48 29.6311V25.68H49.7409C50.6219 25.68 52.3066 25.68 52.6533 27.1217V32.4078C52.6533 33.2618 50.6219 34.4723 49.7409 34.4723L40 34.437C37.357 34.437 36 35.6126 36 38.1745V40.5772L33.7642 40.4718C32.8818 40.4718 32.5 41.2706 32.5 42.1259V51.7057C32.5 52.561 32.8818 52.8611 33.7642 52.8611H40.1548C41.0372 52.8611 41.5 52.1677 41.5 51.3124V41.8083C41.5 40.953 41.0372 40.4718 40.1548 40.4718H37.5V37.3204C37.5 36.4663 38.6189 35.8787 39.5 35.8787L49.7409 35.9062C52.3839 35.9062 54 35.2397 54 32.6778V27.8722C54 25.3103 52.3839 24.0278 49.7409 24.0278ZM32.7701 8.03399H26.5V1.30622H32.7701V8.03399ZM25 1.30622V8.03399H1.5V1.30622H25ZM32.5 35.9062H1.5V9.29199H32.7701V19.2222H27.3735C26.4911 19.2222 26 19.4839 26 20.3391V29.6311C26 30.4864 26.4911 30.7555 27.3735 30.7555H32.5V35.9062ZM46.5455 29.485H27.3735V20.4938H46.5455V29.485ZM40.1548 51.7057H33.7642V41.8083H40.1548V51.7057Z" fill="#F4F0EA"/>
<path d="M21.0001 13.9202H8.00006C8 14.8813 8 14.2375 8 14.8813C8 15.3618 8 15.3618 8 15.3618H14.4561H21.0001C21.0001 15.3618 21.0001 14.8813 21.0001 14.4007V13.9202Z" fill="#F4F0EA"/>
<path d="M21.0001 20.1672H8.00006C8 21.1285 8 20.4846 8 21.1285C8 21.6091 8 21.6091 8 21.6091H14.4561H21.0001C21.0001 21.6091 21.0001 21.1285 21.0001 20.6479V20.1672Z" fill="#F4F0EA"/>
<path d="M21.0001 25.9341H8.00006C8 26.895 8 26.2513 8 26.895C8 27.3755 8 27.3755 8 27.3755H14.4561H21.0001C21.0001 27.3755 21.0001 26.895 21.0001 26.4146V25.9341Z" fill="#F4F0EA"/>
</svg>
