<svg width="45" height="53" viewBox="0 0 45 53" fill="none" xmlns="http://www.w3.org/2000/svg">
<path d="M30.9894 3.55151H13.0626C12.0207 3.55151 11.1731 4.36617 11.1731 5.36755V8.38904C11.1731 9.39042 12.0211 10.2051 13.0626 10.2051H30.9894C32.0313 10.2051 32.879 9.39042 32.879 8.38904V5.36755C32.879 4.36617 32.0313 3.55151 30.9894 3.55151ZM31.2676 8.38904C31.2676 8.53624 31.1426 8.65642 30.9894 8.65642H13.0626C12.9095 8.65642 12.7844 8.53624 12.7844 8.38904V5.36755C12.7844 5.21995 12.9095 5.10017 13.0626 5.10017H30.9894C31.143 5.10017 31.2676 5.21995 31.2676 5.36755V8.38904Z" fill="#F4F0EA"/>
<path d="M42.1627 47.8896H41.7754C41.7754 47.8848 41.7762 47.8804 41.7762 47.8755V46.5362C41.7762 45.5348 40.9286 44.7201 39.8862 44.7201H38.8754V38.3758C38.8754 37.9479 38.5145 37.6015 38.0697 37.6015C37.6245 37.6015 37.2641 37.9479 37.2641 38.3758V44.7201H22.8318V16.8119H37.2641V34.7211C37.2641 35.149 37.6245 35.4955 38.0697 35.4955C38.5145 35.4955 38.8754 35.149 38.8754 34.7211V16.6986C39.5975 16.4433 40.1145 15.7774 40.1145 14.9958V1.81605C40.1145 0.814662 39.2669 0 38.225 0H5.82722C4.78531 0 3.93768 0.814662 3.93768 1.81605V4.5738C3.93768 5.0017 4.29855 5.34814 4.74335 5.34814C5.18814 5.34814 5.54901 5.0017 5.54901 4.5738V1.81605C5.54901 1.66844 5.67406 1.54866 5.82722 1.54866H38.225C38.3786 1.54866 38.5032 1.66885 38.5032 1.81605V14.9954C38.5032 15.143 38.3786 15.2632 38.225 15.2632H5.82722C5.67406 15.2632 5.54901 15.143 5.54901 14.9954V8.22849C5.54901 7.80059 5.18814 7.45416 4.74335 7.45416C4.29855 7.45416 3.93768 7.80059 3.93768 8.22849V14.9958C3.93768 15.7774 4.45507 16.4433 5.17723 16.6986V44.7201H4.16595C3.12405 44.7201 2.27642 45.5348 2.27642 46.5362V47.8751C2.27642 47.88 2.27684 47.8848 2.27684 47.8896H1.88953C0.847626 47.8896 0 48.7043 0 49.7057V51.0446C0 52.0464 0.847626 52.8611 1.88953 52.8611H42.1631C43.205 52.8611 44.0526 52.046 44.0526 51.0446V49.7057C44.0526 48.7043 43.205 47.8896 42.1627 47.8896ZM3.88775 47.8751V46.5362C3.88775 46.3886 4.01237 46.2688 4.16595 46.2688H14.324C14.7692 46.2688 15.1297 45.9219 15.1297 45.4944C15.1297 45.0665 14.7692 44.7201 14.324 44.7201H6.78856V16.8119H21.2204V44.7201H18.1266C17.6814 44.7201 17.3209 45.0669 17.3209 45.4944C17.3209 45.9219 17.6814 46.2688 18.1266 46.2688H39.8862C40.0398 46.2688 40.1649 46.389 40.1649 46.5362V47.8755C40.1649 47.8808 40.1632 47.8848 40.1628 47.8896H3.88901C3.88859 47.8848 3.88775 47.8804 3.88775 47.8751ZM42.4413 51.045C42.4413 51.1926 42.3162 51.3124 42.1627 51.3124H1.88953C1.73595 51.3124 1.61133 51.1922 1.61133 51.045V49.7057C1.61133 49.5585 1.73595 49.4383 1.88953 49.4383H42.1627C42.3162 49.4383 42.4413 49.5585 42.4413 49.7057V51.045Z" fill="#F4F0EA"/>
<path d="M8.86768 12.5531C8.86768 12.9806 9.22855 13.3274 9.67334 13.3274H12.7886C13.2338 13.3274 13.5942 12.9806 13.5942 12.5531C13.5942 12.1252 13.2338 11.7788 12.7886 11.7788H9.67334C9.22855 11.7788 8.86768 12.1252 8.86768 12.5531Z" fill="#F4F0EA"/>
<path d="M30.458 12.5531C30.458 12.9806 30.8189 13.3274 31.2637 13.3274H34.3789C34.8237 13.3274 35.1846 12.9806 35.1846 12.5531C35.1846 12.1252 34.8237 11.7788 34.3789 11.7788H31.2637C30.8189 11.7788 30.458 12.1252 30.458 12.5531Z" fill="#F4F0EA"/>
<path d="M17.6218 11.7788C17.177 11.7788 16.8162 12.1252 16.8162 12.5531C16.8162 12.9806 17.177 13.3274 17.6218 13.3274H26.4304C26.8752 13.3274 27.2361 12.9806 27.2361 12.5531C27.2361 12.1252 26.8752 11.7788 26.4304 11.7788H17.6218Z" fill="#F4F0EA"/>
<path d="M14.1713 19.9285C11.7409 19.9285 9.76367 21.8288 9.76367 24.1648C9.76367 26.5007 11.7409 28.4011 14.1713 28.4011C16.6017 28.4011 18.579 26.5007 18.579 24.1648C18.579 21.8288 16.6017 19.9285 14.1713 19.9285ZM14.1713 26.8524C12.6297 26.8524 11.375 25.6465 11.375 24.1648C11.375 22.6826 12.6297 21.4772 14.1713 21.4772C15.7134 21.4772 16.9677 22.6826 16.9677 24.1648C16.9677 25.6465 15.7134 26.8524 14.1713 26.8524Z" fill="#F4F0EA"/>
<path d="M29.8808 28.4011C32.3112 28.4011 34.2885 26.5007 34.2885 24.1648C34.2885 21.8288 32.3112 19.9285 29.8808 19.9285C27.4504 19.9285 25.4731 21.8288 25.4731 24.1648C25.4731 26.5007 27.4504 28.4011 29.8808 28.4011ZM29.8808 21.4772C31.4229 21.4772 32.6771 22.6826 32.6771 24.1648C32.6771 25.6465 31.4229 26.8524 29.8808 26.8524C28.3387 26.8524 27.0845 25.6465 27.0845 24.1648C27.0845 22.6826 28.3391 21.4772 29.8808 21.4772Z" fill="#F4F0EA"/>
<path d="M24.571 31.5181V33.4844C24.571 33.9119 24.9315 34.2588 25.3767 34.2588C25.8215 34.2588 26.1824 33.9119 26.1824 33.4844V31.5181C26.1824 31.0905 25.8215 30.7437 25.3767 30.7437C24.9315 30.7437 24.571 31.0905 24.571 31.5181Z" fill="#F4F0EA"/>
<path d="M17.8701 31.5181V33.4844C17.8701 33.9119 18.2306 34.2588 18.6758 34.2588C19.1206 34.2588 19.4814 33.9119 19.4814 33.4844V31.5181C19.4814 31.0905 19.1206 30.7437 18.6758 30.7437C18.2306 30.7437 17.8701 31.0905 17.8701 31.5181Z" fill="#F4F0EA"/>
</svg>
