<svg width="55" height="55" viewBox="0 0 55 55" fill="none" xmlns="http://www.w3.org/2000/svg">
<g clip-path="url(#clip0_303_3474)">
<path d="M53.3836 18.5698L47.9871 13.1733C47.5677 12.7538 46.8877 12.7538 46.4679 13.1733C46.0484 13.5927 46.0484 14.2729 46.4679 14.6924L51.8643 20.0891C52.5019 20.7266 52.853 21.5742 52.853 22.4759C52.853 23.3776 52.502 24.2252 51.8643 24.8628L42.2596 34.4675C41.2112 35.516 39.6237 35.7591 38.3096 35.0724L35.2373 33.4672C33.0865 32.3437 30.4889 32.7413 28.773 34.4571L12.0828 51.1473C10.9837 52.2462 9.5227 52.8516 7.96852 52.8516C6.41423 52.8516 4.95308 52.2463 3.85415 51.1473C2.75522 50.0483 2.1499 48.5872 2.1499 47.033C2.1499 45.4788 2.75522 44.0176 3.85415 42.9187L20.5444 26.2283C22.2601 24.5126 22.6579 21.9148 21.5343 19.7642L19.9291 16.692C19.2424 15.3778 19.4855 13.7904 20.534 12.7418L30.1387 3.13715C30.7762 2.4996 31.624 2.14844 32.5256 2.14844C33.4272 2.14844 34.275 2.4996 34.9124 3.13704L39.915 8.13968C40.3347 8.55927 41.0147 8.55916 41.4343 8.13968C41.8538 7.7202 41.8538 7.04 41.4343 6.62052L36.4317 1.61799C35.3883 0.5746 34.0012 0 32.5256 0C31.0499 0 29.6628 0.5746 28.6195 1.61799L19.0148 11.2228C17.2991 12.9385 16.9013 15.5363 18.0249 17.6869L19.6301 20.7592C20.3168 22.0733 20.0737 23.6607 19.0252 24.7092L2.33499 41.3995C0.830225 42.9042 0.00146484 44.9049 0.00146484 47.033C0.00146484 49.1611 0.830332 51.1617 2.33499 52.6665C3.83965 54.1712 5.84038 55 7.96852 55C10.0965 55 12.0973 54.1712 13.6019 52.6665L30.2923 35.9762C31.3407 34.9277 32.9283 34.6847 34.2424 35.3713L37.3147 36.9765C39.4656 38.1005 42.063 37.7024 43.7789 35.9866L53.3836 26.3818C55.5374 24.228 55.5374 20.7236 53.3836 18.5698Z" fill="#F4F0EA"/>
<path d="M44.8682 10.0546C44.6684 9.85481 44.3913 9.73987 44.1088 9.73987C43.8262 9.73987 43.5491 9.85481 43.3494 10.0546C43.1495 10.2544 43.0345 10.5316 43.0345 10.8141C43.0345 11.0966 43.1496 11.3738 43.3494 11.5736C43.5491 11.7734 43.8262 11.8883 44.1088 11.8883C44.3913 11.8883 44.6683 11.7734 44.8682 11.5736C45.0682 11.3738 45.183 11.0966 45.183 10.8141C45.183 10.5316 45.068 10.2544 44.8682 10.0546Z" fill="#F4F0EA"/>
<path d="M10.5558 44.4457C9.86506 43.755 8.94671 43.3746 7.96992 43.3746C6.99313 43.3746 6.07478 43.755 5.38406 44.4457C4.69323 45.1364 4.31274 46.0548 4.31274 47.0316C4.31274 48.0084 4.69323 48.9268 5.38396 49.6175C6.07457 50.3083 6.99303 50.6888 7.96992 50.6888C8.94671 50.6888 9.86506 50.3083 10.5558 49.6176C11.2465 48.9268 11.6269 48.0085 11.6269 47.0316C11.6269 46.0548 11.2465 45.1366 10.5558 44.4457ZM9.03662 48.0984C9.03662 48.0984 9.03662 48.0984 9.03662 48.0985C8.75163 48.3834 8.37286 48.5403 7.96992 48.5403C7.56687 48.5403 7.188 48.3834 6.90301 48.0984C6.61813 47.8134 6.46118 47.4346 6.46118 47.0316C6.46118 46.6287 6.61812 46.2498 6.90312 45.9649C7.19724 45.6708 7.58353 45.5237 7.96981 45.5237C8.3561 45.5237 8.7425 45.6708 9.03662 45.965C9.62486 46.5531 9.62486 47.5102 9.03662 48.0984Z" fill="#F4F0EA"/>
<path d="M46.0155 17.9129C44.8818 16.7794 43.221 16.3503 41.3383 16.7049C41.1072 16.7487 40.8725 16.6773 40.7098 16.5146L38.4869 14.2916C38.3242 14.1289 38.2531 13.8939 38.2965 13.6632C38.6512 11.7806 38.2223 10.1195 37.0886 8.98582C35.9567 7.85402 34.2989 7.42412 32.4199 7.77539C30.6893 8.09905 28.9502 9.06327 27.5228 10.4906C26.0956 11.9179 25.1314 13.6571 24.8078 15.3876C24.4565 17.2663 24.8863 18.9244 26.0182 20.0563C27.0138 21.0517 28.4574 21.5119 30.0823 21.3519C30.5739 21.3031 31.0528 21.4731 31.3968 21.8171L33.1844 23.6048C33.5284 23.9486 33.6979 24.4278 33.6496 24.9193C33.4899 26.5447 33.9499 27.988 34.9452 28.9834C35.8197 29.8578 37.008 30.3132 38.3697 30.3132C38.7704 30.3132 39.1865 30.2736 39.6138 30.1937C41.3444 29.8701 43.0835 28.9058 44.5109 27.4786C45.9381 26.0513 46.9023 24.3121 47.2259 22.5816C47.5772 20.7029 47.1474 19.0448 46.0155 17.9129ZM42.9917 25.9594C41.5736 27.3775 39.8113 28.1643 38.3783 28.1641C37.6116 28.1641 36.9389 27.9387 36.4644 27.4642C35.7825 26.7823 35.7201 25.8182 35.7879 25.1294C35.8993 23.9953 35.5041 22.886 34.7037 22.0855L32.9161 20.2979C32.2046 19.5864 31.2493 19.1952 30.2494 19.1952C30.1243 19.1952 29.9983 19.2014 29.8722 19.2138C29.1834 19.2813 28.2195 19.219 27.5376 18.5371C26.1762 17.1759 26.8653 14.1868 29.0423 12.0099C31.2192 9.83316 34.2086 9.14394 35.5697 10.5051C36.186 11.1215 36.4047 12.1018 36.1854 13.2656C36.0106 14.1945 36.3032 15.146 36.9679 15.8109L39.1909 18.0339C39.8558 18.6989 40.8075 18.9912 41.7361 18.8163C42.9 18.5974 43.8802 18.8158 44.4965 19.4322C45.8578 20.7934 45.1687 23.7825 42.9917 25.9594Z" fill="#F4F0EA"/>
<path d="M22.9419 29.3381C22.5222 28.9187 21.8422 28.9187 21.4226 29.3381L13.5647 37.196C13.1453 37.6156 13.1453 38.2958 13.5647 38.7153C13.7745 38.925 14.0493 39.0299 14.3243 39.0299C14.5993 39.0299 14.8741 38.925 15.084 38.7153L22.9419 30.8574C23.3614 30.4378 23.3614 29.7576 22.9419 29.3381Z" fill="#F4F0EA"/>
<path d="M12.6126 39.6666C12.4129 39.4666 12.1369 39.3518 11.8533 39.3518C11.5708 39.3518 11.2937 39.4668 11.0938 39.6666C10.8939 39.8664 10.7791 40.1435 10.7791 40.426C10.7791 40.7095 10.894 40.9857 11.0938 41.1854C11.2947 41.3863 11.5708 41.5002 11.8533 41.5002C12.1358 41.5002 12.4129 41.3864 12.6126 41.1854C12.8135 40.9857 12.9275 40.7085 12.9275 40.426C12.9275 40.1435 12.8135 39.8674 12.6126 39.6666Z" fill="#F4F0EA"/>
</g>
<defs>
<clipPath id="clip0_303_3474">
<rect width="55" height="55" fill="white"/>
</clipPath>
</defs>
</svg>
