<svg width="55" height="55" viewBox="0 0 55 55" fill="none" xmlns="http://www.w3.org/2000/svg">
<g clip-path="url(#clip0_303_3507)">
<path d="M50.4168 8.70829H42.1668V5.95829C42.1668 5.45207 41.7563 5.04163 41.2501 5.04163H4.58346C4.07723 5.04163 3.66679 5.45207 3.66679 5.95829V37.125C3.66992 39.6552 5.71989 41.7052 8.25012 41.7083V44.4583H0.916789C0.410563 44.4583 0.00012207 44.8687 0.00012207 45.375C0.00325521 47.9052 2.05322 49.9552 4.58346 49.9583H43.0835C45.6137 49.9552 47.6637 47.9052 47.6668 45.375C47.6668 44.8687 47.2563 44.4583 46.7501 44.4583H37.5835V41.7083C40.1137 41.7052 42.1637 39.6552 42.1668 37.125V30.7083H50.4168C52.947 30.7052 54.997 28.6552 55.0001 26.125V13.2916C54.997 10.7614 52.947 8.71143 50.4168 8.70829ZM42.1668 16.0416H46.7501C47.2563 16.0421 47.6663 16.4521 47.6668 16.9583V22.4583C47.6663 22.9645 47.2563 23.3745 46.7501 23.375H42.1668V16.0416ZM5.50012 6.87496H40.3335V8.70829H5.50012V6.87496ZM43.0835 48.125H4.58346C3.41838 48.1236 2.37996 47.3896 1.99011 46.2916H45.6768C45.2869 47.3896 44.2485 48.1236 43.0835 48.125ZM35.7501 44.4583H10.0835V41.7083H35.7501V44.4583ZM40.3335 37.125C40.3317 38.6432 39.1017 39.8732 37.5835 39.875H8.25012C6.73189 39.8732 5.50191 38.6432 5.50012 37.125V10.5416H40.3335V37.125ZM53.1668 26.125C53.165 27.6432 51.935 28.8732 50.4168 28.875H42.1668V25.2083H46.7501C48.2684 25.2065 49.4983 23.9765 49.5001 22.4583V16.9583C49.4983 15.4401 48.2684 14.2101 46.7501 14.2083H42.1668V10.5416H50.4168C51.935 10.5434 53.165 11.7734 53.1668 13.2916V26.125Z" fill="#F4F0EA"/>
<path d="M10.0834 14.2083C9.57719 14.2083 9.16675 14.6187 9.16675 15.1249V16.9583C9.16675 17.4645 9.57719 17.8749 10.0834 17.8749C10.5896 17.8749 11.0001 17.4645 11.0001 16.9583V15.1249C11.0001 14.6187 10.5896 14.2083 10.0834 14.2083Z" fill="#F4F0EA"/>
<path d="M10.0834 19.7083C9.57719 19.7083 9.16675 20.1187 9.16675 20.6249V27.9583C9.16675 28.4645 9.57719 28.8749 10.0834 28.8749C10.5896 28.8749 11.0001 28.4645 11.0001 27.9583V20.6249C11.0001 20.1187 10.5896 19.7083 10.0834 19.7083Z" fill="#F4F0EA"/>
</g>
<defs>
<clipPath id="clip0_303_3507">
<rect width="55" height="55" fill="white"/>
</clipPath>
</defs>
</svg>
