<svg width="55" height="53" viewBox="0 0 55 53" fill="none" xmlns="http://www.w3.org/2000/svg">
<path d="M52.4575 43.5084C51.7498 41.3236 50.5005 39.3365 48.8177 37.7168L13.376 3.67838C12.8549 3.17835 12.0101 3.17835 11.4894 3.67838L11.2914 3.86858L8.49067 1.14421C7.73863 0.412435 6.71246 0 5.64147 0C4.57048 0 3.54431 0.412435 2.79227 1.14421L1.14905 2.74389C-0.390465 4.25048 -0.381606 6.66553 1.16833 8.1621L3.98469 10.867L2.94862 11.851C1.68585 13.0503 0.972896 14.6835 0.968206 16.3888C0.962994 18.0941 1.66604 19.7308 2.92152 20.9371L13.5996 31.1919C14.1208 31.6924 14.9656 31.6924 15.4868 31.1919C16.0074 30.6918 16.0074 29.8805 15.4862 29.38L4.80865 19.1247C3.2806 17.6576 3.24152 15.2901 4.72006 13.7775L20.6926 29.1177L23.6096 31.9196L25.4972 33.7316L39.232 46.9225C40.9179 48.5392 42.9875 49.7384 45.2623 50.4186L53.271 52.8037C53.7437 52.9443 54.2592 52.8222 54.6094 52.4858C54.9596 52.1495 55.0868 51.6544 54.9403 51.2L52.4575 43.5084ZM3.04869 4.54379L4.69139 2.9441C4.94207 2.69985 5.28447 2.5627 5.64147 2.5627C5.99847 2.5627 6.34087 2.69985 6.59155 2.9441L9.40426 5.68049L5.88225 9.06405L3.05494 6.34969C2.53847 5.85117 2.53534 5.04582 3.04869 4.54379ZM6.62126 11.9786L12.4327 6.39674L26.5922 19.9956L20.7802 25.5775L6.62126 11.9786ZM22.6673 27.3894L28.4788 21.8075L31.3092 24.5259L25.4972 30.1077L22.6673 27.3894ZM27.3844 31.9196L33.1964 26.3378L46.9306 39.5287C47.0692 39.6623 47.2042 39.7994 47.3355 39.9396L41.5464 45.4995C41.401 45.3728 41.2577 45.2432 41.1196 45.1105L27.3844 31.9196ZM46.0529 47.9706C45.2498 47.7308 44.4754 47.411 43.7416 47.0156L48.9141 42.0478C49.3258 42.7521 49.6594 43.4963 49.909 44.2677L51.6419 49.6348L46.0529 47.9706Z" fill="#F4F0EA"/>
</svg>
