<svg width="55" height="55" viewBox="0 0 55 55" fill="none" xmlns="http://www.w3.org/2000/svg">
<g clip-path="url(#clip0_303_3566)">
<path d="M50.432 7.9153H38.9887V6.04955C38.9887 2.71382 36.2749 0 32.9392 0H22.0613C18.7256 0 16.0118 2.71382 16.0118 6.04955V7.9153H4.56851C3.72045 7.9153 3.04199 8.59375 3.04199 9.44182C3.04199 10.2899 3.72045 10.9683 4.56851 10.9683H7.32756V46.8359C7.32756 51.3363 10.9912 55 15.4916 55H39.5089C44.0093 55 47.673 51.3363 47.673 46.8359V10.9683H50.432C51.2801 10.9683 51.9585 10.2899 51.9585 9.44182C51.9585 8.59375 51.2801 7.9153 50.432 7.9153ZM19.0648 6.04955C19.0648 4.39864 20.4104 3.05304 22.0613 3.05304H32.9392C34.5901 3.05304 35.9357 4.39864 35.9357 6.04955V7.9153H19.0648V6.04955ZM44.6199 46.8359C44.6199 49.6515 42.3245 51.947 39.5089 51.947H15.4916C12.676 51.947 10.3806 49.6515 10.3806 46.8359V10.9683H44.6312V46.8359H44.6199Z" fill="#F4F0EA"/>
<path d="M27.5003 46.4741C28.3483 46.4741 29.0268 45.7957 29.0268 44.9476V17.9677C29.0268 17.1197 28.3483 16.4412 27.5003 16.4412C26.6522 16.4412 25.9738 17.1197 25.9738 17.9677V44.9363C25.9738 45.7844 26.6522 46.4741 27.5003 46.4741Z" fill="#F4F0EA"/>
<path d="M17.5384 44.7893C18.3864 44.7893 19.0649 44.1108 19.0649 43.2628V19.6413C19.0649 18.7932 18.3864 18.1147 17.5384 18.1147C16.6903 18.1147 16.0118 18.7932 16.0118 19.6413V43.2628C16.0118 44.1108 16.7016 44.7893 17.5384 44.7893Z" fill="#F4F0EA"/>
<path d="M37.4622 44.7893C38.3103 44.7893 38.9887 44.1108 38.9887 43.2628V19.6413C38.9887 18.7932 38.3103 18.1147 37.4622 18.1147C36.6141 18.1147 35.9357 18.7932 35.9357 19.6413V43.2628C35.9357 44.1108 36.6141 44.7893 37.4622 44.7893Z" fill="#F4F0EA"/>
</g>
<defs>
<clipPath id="clip0_303_3566">
<rect width="55" height="55" fill="white" transform="translate(0.000244141)"/>
</clipPath>
</defs>
</svg>
