<svg width="55" height="53" viewBox="0 0 55 53" fill="none" xmlns="http://www.w3.org/2000/svg">
<path d="M38.2426 31.4648V16.7887C38.2426 12.3893 35.1877 8.8103 31.4329 8.8103H23.5676C19.8132 8.8103 16.7583 12.3893 16.7583 16.7887V31.4648C16.7583 38.4049 21.577 44.0505 27.5004 44.0505C33.4234 44.0505 38.2426 38.4049 38.2426 31.4648ZM36.0939 16.7887V18.8126H30.6324V17.0571C30.6324 15.4759 29.7736 14.1254 28.5746 13.6105V11.3274H31.4329C34.0032 11.3274 36.0939 13.7775 36.0939 16.7887ZM26.517 17.0571C26.517 16.422 26.9582 15.9055 27.5004 15.9055C28.0422 15.9055 28.4841 16.422 28.4841 17.0571V20.0712C28.4841 20.7065 28.0422 21.2232 27.5004 21.2232C26.9582 21.2232 26.517 20.7065 26.517 20.0712V17.0571ZM23.5676 11.3274H26.4262V13.6105C25.2268 14.1254 24.3684 15.4759 24.3684 17.0571V18.8126H18.9067V16.7887C18.9067 13.7775 20.9975 11.3274 23.5676 11.3274ZM18.9067 31.4648V21.3297H24.5583C24.9976 22.7347 26.151 23.7403 27.5004 23.7403C28.8502 23.7403 30.0027 22.7347 30.4424 21.3297H36.0939V31.4648C36.0939 37.0166 32.2389 41.5335 27.5004 41.5335C22.7616 41.5335 18.9067 37.0166 18.9067 31.4648Z" fill="#F4F0EA"/>
<path d="M50.7031 49.0845C51.2963 49.0845 51.7776 48.5212 51.7776 47.8259C51.7776 47.1311 51.2963 46.5674 50.7031 46.5674H47.3013C46.7076 46.5674 46.2272 47.1311 46.2272 47.8259C46.2272 48.5212 46.7076 49.0845 47.3013 49.0845H50.7031Z" fill="#F4F0EA"/>
<path d="M44.1522 49.0845C44.7454 49.0845 45.2266 48.5212 45.2266 47.8259C45.2266 47.1311 44.7454 46.5674 44.1522 46.5674H44.1227C43.5295 46.5674 43.0483 47.1311 43.0483 47.8259C43.0483 48.5212 43.5295 49.0845 44.1227 49.0845H44.1522Z" fill="#F4F0EA"/>
<path d="M8.78363 2.51782H8.8122C9.40591 2.51782 9.88635 1.95367 9.88635 1.25861C9.88635 0.56355 9.40591 0 8.8122 0H8.78363C8.18991 0 7.70947 0.56355 7.70947 1.25861C7.70947 1.95367 8.18991 2.51782 8.78363 2.51782Z" fill="#F4F0EA"/>
<path d="M50.4882 0H13.1056C12.5122 0 12.0314 0.563521 12.0314 1.25854C12.0314 1.95357 12.5122 2.51769 13.1056 2.51769H50.4882C51.7917 2.51769 52.8518 3.7597 52.8518 5.28629V47.5748C52.8518 49.101 51.7917 50.3436 50.4882 50.3436H4.51202C3.20854 50.3436 2.14865 49.101 2.14865 47.5748V5.28629C2.14865 3.7597 3.20854 2.51769 4.51202 2.51769H5.6974C6.29061 2.51769 6.77158 1.95357 6.77158 1.25854C6.77158 0.563521 6.29061 0 5.6974 0H4.51202C2.02419 0 0.00012207 2.37147 0.00012207 5.28629V47.5748C0.00012207 50.4896 2.02419 52.8611 4.51202 52.8611H50.4882C52.9762 52.8611 55.0001 50.4896 55.0001 47.5748V5.28629C55.0001 2.37147 52.9762 0 50.4882 0Z" fill="#F4F0EA"/>
</svg>
