<svg width="55" height="55" viewBox="0 0 55 55" fill="none" xmlns="http://www.w3.org/2000/svg">
<path d="M13.5352 19.3359C12.9443 19.3359 12.4609 19.8193 12.4609 20.4102C12.4609 21.001 12.9443 21.4844 13.5352 21.4844C14.126 21.4844 14.6094 21.001 14.6094 20.4102C14.6094 19.8193 14.126 19.3359 13.5352 19.3359Z" fill="#F4F0EA"/>
<path d="M35.0195 4.29688H29.6484C29.6484 1.92285 27.7256 0 25.3516 0C22.9775 0 21.0547 1.92285 21.0547 4.29688H4.94141C3.16895 4.29688 1.71875 5.74707 1.71875 7.51953V51.7773C1.71875 53.5498 3.16895 55 4.94141 55H35.0195C36.792 55 38.2422 53.5498 38.2422 51.7773V7.51953C38.2422 5.74707 36.792 4.29688 35.0195 4.29688ZM23.2031 4.29688C23.2031 3.11523 24.1699 2.14844 25.3516 2.14844C26.5332 2.14844 27.5 3.11523 27.5 4.29688V43.7529C26.3613 42.7324 24.8574 42.1094 23.2031 42.1094V4.29688ZM22.1289 44.2578H23.2031C25.5771 44.2578 27.5 46.1807 27.5 48.5547C27.5 51.0469 25.3086 52.8516 22.8916 52.8516C22.1719 52.8516 11.0215 52.8516 10.3125 52.8516V6.44531H21.0547V43.1836C21.0547 43.7744 21.5381 44.2578 22.1289 44.2578ZM3.86719 51.7773V7.51953C3.86719 6.92871 4.35059 6.44531 4.94141 6.44531H8.16406V52.8516H4.94141C4.35059 52.8516 3.86719 52.3682 3.86719 51.7773ZM36.0938 51.7773C36.0938 52.3682 35.6104 52.8516 35.0195 52.8516H27.9189C29.0146 51.6914 29.6484 50.2197 29.6484 48.5547V6.44531H35.0195C35.6104 6.44531 36.0938 6.92871 36.0938 7.51953V51.7773Z" fill="#F4F0EA"/>
<path d="M13.5352 8.59375C12.9443 8.59375 12.4609 9.07715 12.4609 9.66797V16.1133C12.4609 16.7041 12.9443 17.1875 13.5352 17.1875C14.126 17.1875 14.6094 16.7041 14.6094 16.1133V9.66797C14.6094 9.07715 14.126 8.59375 13.5352 8.59375Z" fill="#F4F0EA"/>
<path d="M47.9102 4.29688C44.9453 4.29688 42.5391 6.70312 42.5391 9.66797V45.332C42.5391 45.4932 42.582 45.665 42.6572 45.8154L46.9541 54.4092C47.1367 54.7744 47.5127 55 47.9102 55C48.3076 55 48.6943 54.7744 48.8662 54.4092L53.1631 45.8154C53.2383 45.6758 53.2812 45.5146 53.2812 45.332V9.66797C53.2812 6.70312 50.875 4.29688 47.9102 4.29688ZM44.6875 44.2578V18.2617H46.8359V44.2578H44.6875ZM44.6875 16.1133V13.9648H51.1328V16.1133H44.6875ZM48.9844 18.2617H51.1328V44.2578H48.9844V18.2617ZM47.9102 6.44531C49.6826 6.44531 51.1328 7.89551 51.1328 9.66797V11.8164H44.6875V9.66797C44.6875 7.89551 46.1377 6.44531 47.9102 6.44531ZM47.9102 51.5195L45.3535 46.4062H50.4668L47.9102 51.5195Z" fill="#F4F0EA"/>
</svg>
