<svg width="55" height="55" viewBox="0 0 55 55" fill="none" xmlns="http://www.w3.org/2000/svg">
<g clip-path="url(#clip0_303_3956)">
<path d="M44.4727 15.9844C45.0635 15.9844 45.5469 15.501 45.5469 14.9102V3.22266C45.5469 1.4502 44.0967 0 42.3242 0H3.22266C1.4502 0 0 1.4502 0 3.22266V51.7773C0 53.5498 1.4502 55 3.22266 55H42.3242C44.0967 55 45.5469 53.5498 45.5469 51.7773V43.8604C45.5469 43.2695 45.0635 42.7861 44.4727 42.7861C43.8818 42.7861 43.3984 43.2695 43.3984 43.8604V51.7773C43.3984 52.3682 42.915 52.8516 42.3242 52.8516H3.22266C2.63184 52.8516 2.14844 52.3682 2.14844 51.7773V3.22266C2.14844 2.63184 2.63184 2.14844 3.22266 2.14844H42.3242C42.915 2.14844 43.3984 2.63184 43.3984 3.22266V14.9102C43.3984 15.501 43.8818 15.9844 44.4727 15.9844Z" fill="#F4F0EA"/>
<path d="M22.7734 5.80078C17.3271 5.80078 12.8906 10.2373 12.8906 15.6836C12.8906 18.5088 14.083 21.0654 15.9951 22.8701C16.0273 22.9131 16.0703 22.9453 16.1133 22.9775C17.875 24.5889 20.2168 25.5664 22.7734 25.5664C25.3301 25.5664 27.6826 24.5781 29.4336 22.9775C29.4766 22.9453 29.5088 22.9131 29.5518 22.8701C31.4639 21.0654 32.6562 18.5088 32.6562 15.6836C32.6562 10.2373 28.2197 5.80078 22.7734 5.80078ZM22.7734 23.418C21.0225 23.418 19.4004 22.8271 18.1006 21.8389C19.0459 20.1631 20.8076 19.1211 22.7734 19.1211C24.7393 19.1211 26.501 20.1631 27.4463 21.8389C26.1465 22.8271 24.5244 23.418 22.7734 23.418ZM21.0547 15.2539V14.5557C21.0547 13.6104 21.8281 12.8369 22.7734 12.8369C23.7188 12.8369 24.4922 13.6104 24.4922 14.5557V15.2539C24.4922 16.1992 23.7188 16.9727 22.7734 16.9727C21.8281 16.9727 21.0547 16.1992 21.0547 15.2539ZM28.9932 20.2705C28.1982 19.0996 27.1025 18.1865 25.8242 17.6172C26.3291 16.9619 26.6299 16.1455 26.6299 15.2539V14.5557C26.6299 12.418 24.9004 10.6885 22.7627 10.6885C20.625 10.6885 18.8955 12.418 18.8955 14.5557V15.2539C18.8955 16.1455 19.1963 16.9619 19.7012 17.6172C18.4229 18.1865 17.3271 19.0996 16.5322 20.2705C15.5869 18.9814 15.0176 17.4023 15.0176 15.6836C15.0176 11.4189 18.4873 7.94922 22.752 7.94922C27.0166 7.94922 30.4863 11.4189 30.4863 15.6836C30.5078 17.4023 29.9492 18.9814 28.9932 20.2705Z" fill="#F4F0EA"/>
<path d="M28.5742 47.0508H22.7734C22.1826 47.0508 21.6992 47.5342 21.6992 48.125C21.6992 48.7158 22.1826 49.1992 22.7734 49.1992H28.5742C29.165 49.1992 29.6484 48.7158 29.6484 48.125C29.6484 47.5342 29.165 47.0508 28.5742 47.0508Z" fill="#F4F0EA"/>
<path d="M28.5742 41.0352H13.3203C12.7295 41.0352 12.2461 41.5186 12.2461 42.1094C12.2461 42.7002 12.7295 43.1836 13.3203 43.1836H28.5742C29.165 43.1836 29.6484 42.7002 29.6484 42.1094C29.6484 41.5186 29.165 41.0352 28.5742 41.0352Z" fill="#F4F0EA"/>
<path d="M28.5742 35.0195H13.3203C12.7295 35.0195 12.2461 35.5029 12.2461 36.0938C12.2461 36.6846 12.7295 37.168 13.3203 37.168H28.5742C29.165 37.168 29.6484 36.6846 29.6484 36.0938C29.6484 35.5029 29.165 35.0195 28.5742 35.0195Z" fill="#F4F0EA"/>
<path d="M9.49609 29.3154C9.29199 29.1113 9.02344 29.0039 8.7334 29.0039C8.4541 29.0039 8.1748 29.1221 7.9707 29.3154C7.7666 29.5195 7.65918 29.7881 7.65918 30.0781C7.65918 30.3682 7.77734 30.6367 7.9707 30.8408C8.1748 31.0449 8.44336 31.1523 8.7334 31.1523C9.0127 31.1523 9.29199 31.0342 9.49609 30.8408C9.7002 30.6367 9.80762 30.3682 9.80762 30.0781C9.80762 29.7881 9.68945 29.5195 9.49609 29.3154Z" fill="#F4F0EA"/>
<path d="M9.49609 35.3311C9.29199 35.127 9.02344 35.0195 8.7334 35.0195C8.4541 35.0195 8.1748 35.1377 7.9707 35.3311C7.7666 35.5352 7.65918 35.8037 7.65918 36.0938C7.65918 36.3838 7.77734 36.6523 7.9707 36.8564C8.1748 37.0605 8.44336 37.168 8.7334 37.168C9.0127 37.168 9.29199 37.0498 9.49609 36.8564C9.7002 36.6523 9.80762 36.3838 9.80762 36.0938C9.80762 35.8037 9.68945 35.5352 9.49609 35.3311Z" fill="#F4F0EA"/>
<path d="M9.49609 41.3467C9.29199 41.1426 9.02344 41.0352 8.7334 41.0352C8.4541 41.0352 8.1748 41.1533 7.9707 41.3467C7.7666 41.5508 7.65918 41.8193 7.65918 42.1094C7.65918 42.3994 7.77734 42.668 7.9707 42.8721C8.1748 43.0762 8.44336 43.1836 8.7334 43.1836C9.0127 43.1836 9.29199 43.0654 9.49609 42.8721C9.7002 42.668 9.80762 42.3994 9.80762 42.1094C9.80762 41.8193 9.68945 41.5508 9.49609 41.3467Z" fill="#F4F0EA"/>
<path d="M28.5742 29.0039H13.3203C12.7295 29.0039 12.2461 29.4873 12.2461 30.0781C12.2461 30.6689 12.7295 31.1523 13.3203 31.1523H28.5742C29.165 31.1523 29.6484 30.6689 29.6484 30.0781C29.6484 29.4873 29.165 29.0039 28.5742 29.0039Z" fill="#F4F0EA"/>
<path d="M52.7441 13.9972C51.7021 13.3956 50.4882 13.2345 49.3173 13.546C48.1572 13.8576 47.1796 14.6095 46.5781 15.6515L33.0644 39.0695C32.9892 39.1984 32.9462 39.338 32.9247 39.4884L31.9687 48.007C31.9257 48.4259 32.1298 48.8449 32.495 49.0597C32.6669 49.1564 32.8495 49.1994 33.0322 49.1994C33.2577 49.1994 33.4833 49.1242 33.6659 48.9953L40.5732 43.9142C40.6913 43.8283 40.788 43.7101 40.8632 43.5812L54.3769 20.1632C55.6445 18.004 54.9032 15.2433 52.7441 13.9972ZM34.3857 45.8048L34.8798 41.3576L37.9843 43.1515L34.3857 45.8048ZM39.5527 41.5724L35.4599 39.2091L46.3095 20.421L50.4023 22.7843L39.5527 41.5724ZM52.54 19.089L51.4765 20.9259L47.3837 18.5626L48.4472 16.7257C48.7587 16.1779 49.2743 15.7912 49.8866 15.6193C50.4989 15.4581 51.1327 15.5441 51.6806 15.8556C52.2284 16.1671 52.6152 16.6828 52.787 17.2951C52.9374 17.9074 52.8515 18.5412 52.54 19.089Z" fill="#F4F0EA"/>
</g>
<defs>
<clipPath id="clip0_303_3956">
<rect width="55" height="55" fill="white"/>
</clipPath>
</defs>
</svg>
