<svg width="55" height="53" viewBox="0 0 55 53" fill="none" xmlns="http://www.w3.org/2000/svg">
<path d="M54.9753 51.8903V23.9518C54.9753 23.9311 54.9635 23.9105 54.9635 23.8898C54.9635 23.8588 54.9635 23.8278 54.9516 23.7968C54.9398 23.7659 54.9279 23.7349 54.9161 23.7039C54.9042 23.6626 54.8805 23.6213 54.8568 23.5799C54.845 23.549 54.8331 23.518 54.8094 23.4973C54.8094 23.487 54.7976 23.4767 54.7976 23.4767C54.7857 23.456 54.762 23.4457 54.7383 23.425C54.7027 23.394 54.6672 23.363 54.6316 23.3321C54.6079 23.3114 54.5961 23.2907 54.5724 23.2804L49.287 19.996V0.826279C49.287 0.371826 48.8604 0 48.3389 0H6.64823C6.1268 0 5.70018 0.371826 5.70018 0.826279V19.996L0.474027 23.2391C0.450326 23.2494 0.438475 23.2598 0.426625 23.2701L0.414774 23.2804C0.402923 23.2804 0.402923 23.2907 0.391072 23.3011L0.379222 23.3114C0.331819 23.3424 0.284416 23.3837 0.237014 23.425C0.225163 23.4457 0.201462 23.4457 0.17776 23.4663C0.154059 23.487 0.154059 23.518 0.142208 23.549C0.106656 23.6006 0.0829548 23.6522 0.0592534 23.7039C0.035552 23.7555 0.0237012 23.8072 0.0237012 23.8691C0.0237012 23.9001 0 23.9208 0 23.9518V52.0349C0 52.0659 0.0118505 52.0866 0.0237012 52.1176C0.0355519 52.1692 0.0474027 52.2208 0.0592534 52.2725C0.0829548 52.3345 0.106656 52.3861 0.142208 52.4377C0.154059 52.4584 0.16591 52.4894 0.17776 52.51C0.189611 52.5204 0.213312 52.5307 0.225163 52.541C0.296267 52.6133 0.367371 52.6753 0.462177 52.7166C0.497729 52.7373 0.52143 52.7579 0.556982 52.7682C0.675489 52.8199 0.817697 52.8509 0.959905 52.8509H53.9562C53.9917 52.8509 54.0273 52.8612 54.0628 52.8612C54.3591 52.8612 54.6553 52.7373 54.8331 52.51C54.9872 52.3345 55.0346 52.1072 54.9753 51.8903ZM7.59629 1.65256H47.4027V27.0606L46.4547 27.6494V4.95767C46.4547 4.50322 46.028 4.1314 45.5066 4.1314C44.9852 4.1314 44.5586 3.75957 44.5586 3.30512C44.5586 2.85066 44.1319 2.47884 43.6105 2.47884H11.3885C10.8671 2.47884 10.4404 2.85066 10.4404 3.30512C10.4404 3.75957 10.0138 4.1314 9.4924 4.1314C8.97097 4.1314 8.54434 4.50322 8.54434 4.95767V27.67L7.59629 27.0813V1.65256ZM53.0792 50.4443L32.933 38.1018L53.0792 25.5527V50.4443ZM27.4936 39.4652L10.4049 28.8268C10.4167 28.7752 10.4404 28.7339 10.4404 28.6822V5.62903C11.2463 5.38114 11.8744 4.83373 12.1588 4.1314H42.8402C43.1246 4.83373 43.7527 5.38114 44.5586 5.62903V28.8371L27.4936 39.4652ZM22.066 38.1121L1.89611 50.4547V25.563L22.066 38.1121ZM23.7014 39.1346L26.9366 41.1487C26.9603 41.1694 26.9959 41.1694 27.0196 41.19C27.0551 41.2107 27.0788 41.221 27.1144 41.2313C27.2329 41.283 27.3632 41.314 27.4817 41.314C27.6121 41.314 27.7306 41.283 27.861 41.2313C27.8965 41.221 27.9202 41.2107 27.9439 41.19C27.9676 41.1797 28.0032 41.1694 28.0269 41.1487L31.2739 39.1243L51.0172 51.219H3.95813L23.7014 39.1346ZM52.4037 23.9518L49.2988 25.8832V22.0203L52.4037 23.9518ZM5.70018 25.8935L2.5953 23.9621L5.71203 22.0203V25.8935H5.70018Z" fill="#F4F0EA"/>
<path d="M20.8691 19.0045H34.1418C34.6632 19.0045 35.0898 18.6327 35.0898 18.1782V12.3943C35.0898 12.3737 35.078 12.3427 35.078 12.322C35.078 12.26 35.0543 12.2084 35.0424 12.1568C35.0187 12.1051 34.995 12.0535 34.9713 12.0018C34.9595 11.9812 34.9595 11.9502 34.9358 11.9295C34.9121 11.9089 34.8884 11.8985 34.8765 11.8779C34.8291 11.8366 34.7936 11.7953 34.7343 11.7539C34.6869 11.723 34.6395 11.692 34.5921 11.6713C34.5329 11.6507 34.4855 11.63 34.4262 11.6093C34.367 11.5887 34.2958 11.5784 34.2366 11.5784C34.2129 11.5784 34.1773 11.568 34.1536 11.568C34.1299 11.568 34.0944 11.5784 34.0707 11.5784C34.0114 11.5784 33.9403 11.599 33.8811 11.6093C33.8218 11.63 33.7626 11.6403 33.7033 11.6713C33.6796 11.6816 33.6441 11.6816 33.6204 11.7023L31.4991 12.9314L28.2402 9.39906C28.2165 9.3784 28.1809 9.36807 28.1572 9.33709C28.1335 9.31643 28.1217 9.28545 28.0861 9.26479C28.0624 9.24413 28.0387 9.24413 28.015 9.23381C27.9558 9.20282 27.9084 9.18216 27.8491 9.16151C27.7899 9.14085 27.7425 9.13052 27.6832 9.12019C27.6239 9.10986 27.5647 9.10986 27.4936 9.10986C27.4343 9.10986 27.3869 9.10986 27.3277 9.12019C27.2684 9.13052 27.2092 9.15118 27.1499 9.17183C27.0907 9.19249 27.0433 9.21315 26.984 9.24413C26.9603 9.25446 26.9366 9.26479 26.9129 9.27512C26.8892 9.29578 26.8774 9.32676 26.8418 9.34742C26.8181 9.36807 26.7825 9.3784 26.7588 9.40939L23.5118 12.952L21.3905 11.723C21.3668 11.7126 21.3313 11.7023 21.3076 11.692C21.2483 11.661 21.189 11.6507 21.1298 11.63C21.0705 11.6093 21.0113 11.599 20.9402 11.599C20.9165 11.599 20.8928 11.5887 20.8572 11.5887C20.8217 11.5887 20.798 11.599 20.7743 11.599C20.7032 11.6093 20.6439 11.6197 20.5728 11.63C20.5136 11.6403 20.4662 11.661 20.4188 11.6816C20.3595 11.7023 20.3121 11.7333 20.2647 11.7746C20.2173 11.8056 20.1699 11.8469 20.1343 11.8882C20.1106 11.9089 20.0869 11.9192 20.0751 11.9399C20.0632 11.9605 20.0514 11.9915 20.0395 12.0122C20.004 12.0638 19.9921 12.1051 19.9684 12.1671C19.9447 12.2187 19.9329 12.2807 19.9329 12.3323C19.9329 12.353 19.9092 12.3737 19.9092 12.4046V18.1886C19.921 18.6327 20.3477 19.0045 20.8691 19.0045ZM23.18 14.7285C23.2274 14.7595 23.2748 14.7699 23.3222 14.7905C23.3577 14.8008 23.3814 14.8215 23.417 14.8318C23.5118 14.8628 23.6066 14.8731 23.7014 14.8731C23.8317 14.8731 23.9621 14.8422 24.0806 14.8008C24.0925 14.8008 24.1043 14.7905 24.1162 14.7905C24.2347 14.7389 24.3295 14.6769 24.4124 14.5839C24.4243 14.5736 24.4361 14.5736 24.4361 14.5633L27.4936 11.2375L30.5629 14.5633C30.5748 14.5736 30.5866 14.5736 30.5866 14.5839C30.6696 14.6666 30.7762 14.7389 30.8829 14.7905C30.8947 14.8008 30.9066 14.8008 30.9184 14.8008C31.0369 14.8422 31.1673 14.8731 31.2976 14.8731C31.3924 14.8731 31.4873 14.8525 31.5821 14.8318C31.6176 14.8215 31.6413 14.8112 31.6769 14.7905C31.7243 14.7699 31.7835 14.7595 31.8191 14.7285L33.1819 13.9332V17.3416H21.8053V13.9332L23.18 14.7285Z" fill="#F4F0EA"/>
<path d="M36.9741 22.2993H18.013C17.4916 22.2993 17.0649 22.6711 17.0649 23.1256C17.0649 23.5801 17.4916 23.9519 18.013 23.9519H36.9741C37.4955 23.9519 37.9221 23.5801 37.9221 23.1256C37.9221 22.6711 37.5073 22.2993 36.9741 22.2993Z" fill="#F4F0EA"/>
<path d="M36.9741 25.6042H18.013C17.4916 25.6042 17.0649 25.9761 17.0649 26.4305C17.0649 26.885 17.4916 27.2568 18.013 27.2568H36.9741C37.4955 27.2568 37.9221 26.885 37.9221 26.4305C37.9221 25.9761 37.5073 25.6042 36.9741 25.6042Z" fill="#F4F0EA"/>
<path d="M31.2977 28.9094H23.7132C23.1918 28.9094 22.7651 29.2812 22.7651 29.7357C22.7651 30.1901 23.1918 30.5619 23.7132 30.5619H31.2977C31.8191 30.5619 32.2457 30.1901 32.2457 29.7357C32.2457 29.2812 31.8191 28.9094 31.2977 28.9094Z" fill="#F4F0EA"/>
</svg>
