<svg width="55" height="53" viewBox="0 0 55 53" fill="none" xmlns="http://www.w3.org/2000/svg">
<path d="M36.3405 21.1484V20.1673C38.9995 17.7303 38.9535 13.8269 36.2369 11.4415C33.5203 9.05609 29.1691 9.0974 26.51 11.5344C23.8855 13.9302 23.8855 17.7716 26.51 20.1673V21.1484H24.5416V22.9142H38.2973V21.1484H36.3405ZM35.0858 18.7836C34.9591 18.9075 34.8325 19.0211 34.6944 19.1347C34.4872 19.2999 34.3721 19.5374 34.3721 19.7853V21.138H32.4037V18.8559L35.0627 16.4705L33.6699 15.221L31.4137 17.245L29.1576 15.221L27.7647 16.4705L30.4238 18.8559V21.138H28.4554V19.7853C28.4554 19.5374 28.3403 19.2999 28.1331 19.1244C26.1071 17.5031 25.9345 14.715 27.7417 12.9079C29.5489 11.0904 32.6569 10.9355 34.6714 12.5568C36.7203 14.1883 36.893 16.9765 35.0858 18.7836Z" fill="#F4F0EA"/>
<path d="M54.0216 7.05295C54.5626 7.05295 55 6.66054 55 6.1752V2.64356C55 2.15822 54.5626 1.76582 54.0216 1.76582H8.84052C8.2995 1.76582 7.86208 2.15822 7.86208 2.64356V3.52131H5.89368V0.877746C5.89368 0.392404 5.45626 0 4.91524 0H0.978443C0.437422 0 0 0.392404 0 0.877746V51.9832C0 52.4686 0.437422 52.861 0.978443 52.861H4.90373C5.44475 52.861 5.88217 52.4686 5.88217 51.9832V40.5312H7.85057V41.409C7.85057 41.8943 8.28799 42.2867 8.82901 42.2867H54.01C54.5511 42.2867 54.9885 41.8943 54.9885 41.409V37.8876C54.9885 37.4023 54.5511 37.0099 54.01 37.0099H53.0316V7.05295H54.0216ZM3.92528 51.1055H1.95689V1.76582H3.92528V51.1055ZM7.85057 37.8876V38.7654H5.89368V5.28713H7.86208V6.16488C7.86208 6.65022 8.2995 7.04262 8.84052 7.04262H9.81896V36.9996H8.84052C8.2995 37.0099 7.85057 37.4023 7.85057 37.8876ZM53.0431 40.5312H9.81896V38.7654H53.0431V40.5312ZM11.7874 37.0099V7.05295H51.0747V37.0099H11.7874ZM9.81896 5.28713V3.52131H53.0431V5.28713H9.81896Z" fill="#F4F0EA"/>
<path d="M48.1278 25.5581H35.3621V27.324H48.1278V25.5581Z" fill="#F4F0EA"/>
<path d="M48.1279 29.0792H27.5V30.845H48.1279V29.0792Z" fill="#F4F0EA"/>
<path d="M44.2026 32.6005H27.5V34.3663H44.2026V32.6005Z" fill="#F4F0EA"/>
<path d="M33.3937 25.5581H31.4253V27.324H33.3937V25.5581Z" fill="#F4F0EA"/>
<path d="M23.5748 25.5581H15.7127C15.1717 25.5581 14.7343 25.9505 14.7343 26.4358V33.4887C14.7343 33.9741 15.1717 34.3665 15.7127 34.3665H23.5748C24.1158 34.3665 24.5532 33.9741 24.5532 33.4887V26.4358C24.5532 25.9505 24.1158 25.5581 23.5748 25.5581ZM22.5848 32.6007H16.6911V27.3136H22.5848V32.6007Z" fill="#F4F0EA"/>
</svg>
