<svg width="55" height="53" viewBox="0 0 55 53" fill="none" xmlns="http://www.w3.org/2000/svg">
<path d="M5.50001 30.8378H22.9131C23.9551 30.8068 24.7822 29.9602 24.75 28.9586V10.7662C24.7822 9.85762 24.1162 9.07293 23.1924 8.90773L5.77931 6.18196C5.27443 6.09936 4.74806 6.24391 4.36134 6.57431C3.92091 6.946 3.6631 7.4829 3.67384 8.05076V28.9483C3.63087 29.9602 4.45802 30.7965 5.50001 30.8378ZM5.50001 8.05076C5.50001 7.98881 5.5215 7.94752 5.50001 7.92687L22.8701 10.632C22.9023 10.6733 22.9238 10.7146 22.9131 10.7662V24.9939L17.1767 18.799C17.0049 18.6131 16.7685 18.5099 16.5215 18.4995C16.2744 18.4892 16.0273 18.5821 15.8447 18.7577L13.1162 21.3802L10.7637 18.799C10.5918 18.6131 10.3447 18.4995 10.0762 18.4995C9.81836 18.5099 9.57129 18.6131 9.38868 18.7886L5.48927 22.9599V8.05076H5.50001ZM5.50001 25.5927L10.0762 20.7091L15.8125 27.0072C16.1455 27.3686 16.7256 27.4099 17.1016 27.0898C17.4775 26.7698 17.5205 26.2122 17.1875 25.8509L14.3301 22.7121L16.457 20.6678L22.9131 27.6474V28.9483C22.9131 28.9896 22.9023 29.0309 22.8808 29.0722L5.54298 29.0825C5.51075 29.0412 5.48927 28.9999 5.50001 28.9483V25.5927Z" fill="#F4F0EA"/>
<path d="M50.2843 8.815L31.0342 11.4581C30.5615 11.5201 30.2178 11.9331 30.25 12.3874C30.2822 12.852 30.6797 13.203 31.1631 13.203C31.2061 13.203 31.249 13.203 31.292 13.1927L50.5421 10.5496C50.8643 10.5083 51.1436 10.3018 51.2618 10.0023C51.38 9.71325 51.337 9.37253 51.1329 9.12474C50.9395 8.8976 50.6065 8.7737 50.2843 8.815Z" fill="#F4F0EA"/>
<path d="M31.1631 18.4998C31.1954 18.4998 31.2168 18.4998 31.2491 18.4998L50.499 16.7342C51.0039 16.6825 51.3691 16.2592 51.3262 15.7739C51.2832 15.2886 50.832 14.9376 50.3271 14.9789L31.0772 16.7445C30.5938 16.7858 30.2286 17.1885 30.25 17.6634C30.2715 18.1281 30.6797 18.4998 31.1631 18.4998Z" fill="#F4F0EA"/>
<path d="M50.4131 22.0203H31.1631C30.6582 22.0203 30.25 22.4126 30.25 22.8979C30.25 23.3833 30.6582 23.7756 31.1631 23.7756H50.4131C50.918 23.7756 51.3262 23.3833 51.3262 22.8979C51.3262 22.4126 50.918 22.0203 50.4131 22.0203Z" fill="#F4F0EA"/>
<path d="M50.4131 27.3066H31.1631C30.6582 27.3066 30.25 27.699 30.25 28.1843C30.25 28.6696 30.6582 29.062 31.1631 29.062H50.4131C50.918 29.062 51.3262 28.6696 51.3262 28.1843C51.337 27.7093 50.918 27.3066 50.4131 27.3066Z" fill="#F4F0EA"/>
<path d="M54.0439 0.648178C53.4424 0.14226 52.6582 -0.0848865 51.8633 0.0286869L27.5 3.29134L3.12598 0.0286869C2.3418 -0.0745617 1.54688 0.152585 0.945312 0.648178C0.34375 1.1541 0 1.88716 0 2.66152V50.1972C0 50.9715 0.34375 51.7046 0.956055 52.2105C1.4502 52.6235 2.09473 52.861 2.75 52.861C2.87891 52.861 2.99707 52.8506 3.12598 52.8403L27.5 49.5673L51.874 52.83C52.0029 52.8506 52.1211 52.8506 52.25 52.8506C52.916 52.8506 53.5498 52.6235 54.0439 52.2002C54.6455 51.6943 55 50.9612 55 50.1868V2.66152C55 1.88716 54.6562 1.1541 54.0439 0.648178ZM2.87891 51.0954C2.62109 51.1367 2.35254 51.0541 2.15918 50.8889C1.95508 50.7134 1.83691 50.4656 1.83691 50.2075V37.9519L15.7266 37.3117C18.1436 37.1982 20.4209 38.4062 21.6025 40.4505L26.0391 47.998L2.87891 51.0954ZM26.5869 45.3341L23.1924 39.5729C21.667 36.9607 18.7451 35.4016 15.6299 35.5462L1.82617 36.1863V2.66152C1.82617 2.4034 1.94434 2.14528 2.14844 1.98008C2.30957 1.84586 2.52441 1.76326 2.73926 1.76326C2.78223 1.76326 2.8252 1.76326 2.86816 1.77359L26.5762 4.95364L26.5869 45.3341ZM53.1631 50.1972C53.1631 50.4553 53.0449 50.7134 52.8408 50.8786C52.6475 51.0438 52.3789 51.1264 52.1211 51.0851L28.9609 47.9876L33.3975 40.4402C34.5791 38.4062 36.8564 37.1878 39.2734 37.3014L53.1631 37.9416V50.1972ZM53.1631 36.1863L39.3594 35.5462C36.2441 35.4016 33.3223 36.9607 31.7969 39.5729L28.4023 45.3341V4.94332L52.1104 1.76326C52.3682 1.73229 52.6367 1.80456 52.8301 1.96976C53.0342 2.14528 53.1523 2.39308 53.1523 2.6512L53.1631 36.1863Z" fill="#F4F0EA"/>
<path d="M18.3369 17.6218C19.8516 17.6218 21.0869 16.4345 21.0869 14.9786C21.0869 13.5228 19.8516 12.3354 18.3369 12.3354C16.8223 12.3354 15.5869 13.5228 15.5869 14.9786C15.5869 16.4345 16.8115 17.6218 18.3369 17.6218ZM18.3369 14.0907C18.8418 14.0907 19.25 14.483 19.25 14.9683C19.25 15.4536 18.8418 15.8459 18.3369 15.8459C17.832 15.8459 17.4238 15.4536 17.4238 14.9683C17.4131 14.4934 17.832 14.0907 18.3369 14.0907Z" fill="#F4F0EA"/>
</svg>
