<svg width="55" height="55" viewBox="0 0 55 55" fill="none" xmlns="http://www.w3.org/2000/svg">
<path d="M41.4648 46.4062C42.0557 46.4062 42.5391 45.9229 42.5391 45.332C42.5391 44.7412 42.0557 44.2578 41.4648 44.2578C40.874 44.2578 40.3906 44.7412 40.3906 45.332C40.3906 45.9229 40.874 46.4062 41.4648 46.4062Z" fill="#F4F0EA"/>
<path d="M15.2754 54.9141C15.6729 55.0859 16.1348 54.9893 16.4463 54.6777L19.9805 51.1436L23.5146 54.6777C23.8262 54.9893 24.2881 55.0752 24.6855 54.9141C25.083 54.7529 25.3516 54.3555 25.3516 53.9258V50.7031H43.6133C45.3857 50.7031 46.8359 49.2529 46.8359 47.4805C46.8359 45.1602 46.8359 4.71582 46.8359 3.22266C46.8359 1.4502 45.3857 0 43.6133 0H11.3867C9.61426 0 8.16406 1.4502 8.16406 3.22266V45.332C8.16406 48.2969 10.5703 50.7031 13.5352 50.7031H14.6094V53.9258C14.6094 54.3555 14.8672 54.7529 15.2754 54.9141ZM23.2031 51.3369L20.7432 48.877C20.5283 48.6621 20.2598 48.5654 19.9805 48.5654C19.7012 48.5654 19.4326 48.6729 19.2178 48.877L16.7578 51.3369V46.4062H23.2031V51.3369ZM44.6875 3.22266V39.9609H16.7578V2.14844H43.6133C44.2041 2.14844 44.6875 2.63184 44.6875 3.22266ZM11.3867 2.14844H14.6094V39.9609H13.5352C12.332 39.9609 11.2148 40.3584 10.3125 41.0352V3.22266C10.3125 2.63184 10.7959 2.14844 11.3867 2.14844ZM13.5352 48.5547C11.7627 48.5547 10.3125 47.1045 10.3125 45.332C10.3125 43.5596 11.7627 42.1094 13.5352 42.1094H44.6875V47.4805C44.6875 48.0713 44.2041 48.5547 43.6133 48.5547H25.3516V46.4062H37.168C37.7588 46.4062 38.2422 45.9229 38.2422 45.332C38.2422 44.7412 37.7588 44.2578 37.168 44.2578C35.2236 44.2578 14.7168 44.2578 13.5352 44.2578C12.9443 44.2578 12.4609 44.7412 12.4609 45.332C12.4609 45.9229 12.9443 46.4062 13.5352 46.4062H14.6094V48.5547H13.5352Z" fill="#F4F0EA"/>
<path d="M22.1289 33.5156H39.3164C39.9072 33.5156 40.3906 33.0322 40.3906 32.4414C40.3906 31.8506 39.9072 31.3672 39.3164 31.3672H36.0938V18.9062C36.0938 18.7344 36.0508 18.5732 35.9756 18.4229L31.6787 9.8291C31.4961 9.46387 31.1201 9.23828 30.7227 9.23828C30.3252 9.23828 29.9385 9.46387 29.7666 9.8291L25.4697 18.4229C25.3945 18.5625 25.3516 18.7344 25.3516 18.9062V31.3672H22.1289C21.5381 31.3672 21.0547 31.8506 21.0547 32.4414C21.0547 33.0322 21.5381 33.5156 22.1289 33.5156ZM27.5 19.9805H29.6484V31.3672H27.5V19.9805ZM33.9453 19.9805V31.3672H31.7969V19.9805H33.9453ZM30.7227 12.7188L33.2793 17.832H28.166L30.7227 12.7188Z" fill="#F4F0EA"/>
</svg>
