<svg width="55" height="53" viewBox="0 0 55 53" fill="none" xmlns="http://www.w3.org/2000/svg">
<path d="M16.8948 37.4437H12.3114V39.6462H16.8948V37.4437Z" fill="#F4F0EA"/>
<path d="M19.1865 41.848H12.3114V44.0505H19.1865V41.848Z" fill="#F4F0EA"/>
<path d="M53.9692 47.0937L41.2503 34.8682V7.70894C41.2503 5.88431 39.7113 4.40512 37.8128 4.40512H14.7812C14.2503 1.89175 11.9384 0 9.1667 0C6.39498 0 4.08324 1.89175 3.55236 4.40512H3.43753C1.53904 4.40512 0 5.88431 0 7.70894V49.5573C0 51.3819 1.53904 52.8611 3.43753 52.8611H37.8128C39.7113 52.8611 41.2503 51.3819 41.2503 49.5573V44.4229L48.9997 51.8699C49.658 52.5055 50.553 52.8623 51.4862 52.8611C52.4188 52.861 53.3131 52.5046 53.9722 51.8703C55.3438 50.5506 55.3425 48.412 53.9692 47.0937ZM9.1667 2.20251C10.6633 2.20251 11.9358 3.122 12.4079 4.40502H5.92565C6.39756 3.122 7.67009 2.20251 9.1667 2.20251ZM38.9587 49.5573C38.9587 50.1655 38.4456 50.6586 37.8128 50.6586H3.43753C2.8047 50.6586 2.29165 50.1655 2.29165 49.5573V7.70894C2.29165 7.10073 2.8047 6.60763 3.43753 6.60763H12.6042V18.7216C12.6042 19.3298 12.0912 19.8229 11.4584 19.8229C10.8255 19.8229 10.3125 19.3298 10.3125 18.7216V8.81015H8.02093V18.7216C8.02093 20.5462 9.55998 22.0254 11.4585 22.0254C13.3569 22.0254 14.896 20.5462 14.896 18.7216V6.60763H37.8128C38.4456 6.60763 38.9587 7.10073 38.9587 7.70894V32.6655L35.5211 29.3612V9.91145C35.5211 9.30324 35.0081 8.81015 34.3753 8.81015H17.1876V11.0127H33.2294V27.399L26.8665 24.3481C26.5435 24.1925 26.163 24.1925 25.84 24.3481C25.7786 24.3776 25.7219 24.4126 25.6687 24.4507L25.6668 24.4484L22.4149 26.7896L20.5815 20.6225C20.5281 20.4422 20.4276 20.2779 20.2896 20.1453C19.8419 19.7153 19.1165 19.7155 18.6691 20.1456L15.5674 23.1267H6.87505C6.24223 23.1267 5.72918 23.6198 5.72918 24.228V47.3547C5.72918 47.963 6.24223 48.4561 6.87505 48.4561H34.3753C35.0081 48.4561 35.5211 47.963 35.5211 47.3547V38.9172L38.9587 42.2206V49.5573ZM30.0187 29.9117L28.9142 27.7906L31.1219 28.8515L30.0187 29.9117ZM33.2294 36.7148V46.2534H8.02093V25.3292H16.0419C16.345 25.3294 16.6359 25.2142 16.8509 25.0088L18.9134 23.0265L20.6688 28.9348C20.7072 29.0645 20.7701 29.1864 20.8543 29.2942C21.2341 29.7807 21.9524 29.8791 22.4585 29.514L25.9414 27.0035L28.6793 32.2672L28.6822 32.2659C28.7357 32.368 28.806 32.4639 28.8947 32.5492L33.2294 36.7148ZM31.325 31.7706L33.0563 30.1067L48.1931 44.6545L46.4617 46.3185L31.325 31.7706ZM52.3513 50.315C51.8731 50.7745 51.098 50.7745 50.6199 50.315L48.0822 47.8759L49.8135 46.2119L52.3512 48.6509C52.8294 49.1104 52.8294 49.8554 52.3513 50.315Z" fill="#F4F0EA"/>
</svg>
