<svg width="55" height="55" viewBox="0 0 55 55" fill="none" xmlns="http://www.w3.org/2000/svg">
<g clip-path="url(#clip0_303_4112)">
<path d="M20.1667 0C16.1184 0.00458333 12.8379 3.2851 12.8333 7.33333V40.3333H0.916667C0.410437 40.3333 0 40.7438 0 41.25V47.6667C0.00458333 51.7149 3.2851 54.9954 7.33333 55H43.0833V54.9432C46.7476 54.4762 49.4951 51.3606 49.5 47.6667V7.33333C49.5036 4.29722 51.9639 1.83689 55 1.83333V0H20.1667ZM7.33333 53.1667C4.29722 53.1631 1.83689 50.7028 1.83333 47.6667V42.1667H34.8333V47.6667C34.8325 49.7726 35.7391 51.7768 37.3212 53.1667H7.33333ZM47.6667 7.33333V47.6667C47.6667 50.7043 45.2043 53.1667 42.1667 53.1667C39.1291 53.1667 36.6667 50.7043 36.6667 47.6667V41.25C36.6667 40.7438 36.2562 40.3333 35.75 40.3333H14.6667V7.33333C14.6702 4.29722 17.1306 1.83689 20.1667 1.83333H50.1655C48.5786 3.22071 47.6678 5.22546 47.6667 7.33333Z" fill="#F4F0EA"/>
<path d="M40.3333 3.66663H22V5.49996H40.3333V3.66663Z" fill="#F4F0EA"/>
<path d="M45.8333 7.33337H16.5V9.16671H45.8333V7.33337Z" fill="#F4F0EA"/>
<path d="M27.5 12.8334H18.3334V14.6667H27.5V12.8334Z" fill="#F4F0EA"/>
<path d="M25.6667 16.5H18.3334V18.3333H25.6667V16.5Z" fill="#F4F0EA"/>
<path d="M29.3334 20.1666H18.3334V22H29.3334V20.1666Z" fill="#F4F0EA"/>
<path d="M23.8334 23.8333H18.3334V25.6666H23.8334V23.8333Z" fill="#F4F0EA"/>
<path d="M27.5 27.5H18.3334V29.3333H27.5V27.5Z" fill="#F4F0EA"/>
<path d="M44 12.8334H40.3334V14.6667H44V12.8334Z" fill="#F4F0EA"/>
<path d="M44 16.5H40.3334V18.3333H44V16.5Z" fill="#F4F0EA"/>
<path d="M44 20.1666H40.3334V22H44V20.1666Z" fill="#F4F0EA"/>
<path d="M44 23.8333H40.3334V25.6666H44V23.8333Z" fill="#F4F0EA"/>
<path d="M44 27.5H40.3334V29.3333H44V27.5Z" fill="#F4F0EA"/>
<path d="M45.8333 40.3334V39.4167C45.8333 37.8979 44.6021 36.6667 43.0833 36.6667V34.8334H41.25V36.6667C39.7312 36.6667 38.5 37.8979 38.5 39.4167V41.25C38.5 42.7688 39.7312 44 41.25 44H43.0833C43.5896 44 44 44.4105 44 44.9167V46.75C44 47.2563 43.5896 47.6667 43.0833 47.6667H41.25C40.7438 47.6667 40.3333 47.2563 40.3333 46.75V45.8334H38.5V46.75C38.5 48.2688 39.7312 49.5 41.25 49.5V51.3334H43.0833V49.5C44.6021 49.5 45.8333 48.2688 45.8333 46.75V44.9167C45.8333 43.3979 44.6021 42.1667 43.0833 42.1667H41.25C40.7438 42.1667 40.3333 41.7563 40.3333 41.25V39.4167C40.3333 38.9105 40.7438 38.5 41.25 38.5H43.0833C43.5896 38.5 44 38.9105 44 39.4167V40.3334H45.8333Z" fill="#F4F0EA"/>
<path d="M33.0001 36.6666H18.3334V38.5H33.0001V36.6666Z" fill="#F4F0EA"/>
<path d="M33.0001 33H18.3334V34.8333H33.0001V33Z" fill="#F4F0EA"/>
</g>
<defs>
<clipPath id="clip0_303_4112">
<rect width="55" height="55" fill="white"/>
</clipPath>
</defs>
</svg>
