<svg width="55" height="53" viewBox="0 0 55 53" fill="none" xmlns="http://www.w3.org/2000/svg">
<path d="M41.3498 48.8874C40.6976 50.4152 39.3279 51.5921 37.632 52.2528C36.0014 52.8928 34.0838 53.058 32.2315 52.6038L5.02001 45.3465C3.08938 44.8303 1.60227 43.7464 0.7674 42.4043C-0.0674674 41.0623 -0.26314 39.4725 0.389101 37.9447L11.138 12.7558C11.6729 11.517 12.6773 10.4743 14.0601 9.75172L26.9875 1.23499C27.8223 0.656885 29.2181 0.223306 30.3008 0.0787801C31.4879 -0.0760695 32.7141 -0.00380633 33.8621 0.305893L43.5805 2.88672C44.8719 3.23771 45.9677 3.83646 46.8025 4.60039C47.6504 5.37464 48.2244 6.32438 48.4723 7.33606L52.2292 20.3125C52.4248 20.8699 52.5031 21.448 52.477 22.0055C52.4509 22.5939 52.3205 23.1617 52.0987 23.6985L50.3898 27.7143C51.4987 28.0136 52.6988 28.282 53.9772 28.4988C54.6816 28.6227 55.1251 29.1699 54.9686 29.7273C54.812 30.2848 54.1207 30.6358 53.4162 30.5119C52.0335 30.2641 50.7551 29.9854 49.555 29.6654L41.3498 48.8874ZM19.878 36.1071C19.878 35.6322 19.5519 35.2812 18.991 35.1264L12.1947 33.3198C11.5163 33.134 10.7728 33.4334 10.538 33.9702C10.3032 34.507 10.6815 35.0954 11.3598 35.2812L18.117 37.0775C18.2605 37.1188 18.404 37.1394 18.5605 37.1394C19.291 37.1394 19.878 36.613 19.878 36.1071ZM28.6963 37.7072C27.8876 37.5214 27.0266 38.0376 27.0266 38.6983C27.0266 39.1628 27.3266 39.4932 27.8615 39.6583C27.8876 39.6687 27.9136 39.679 27.9528 39.679L34.6578 41.4649C35.3361 41.6507 36.0797 41.3514 36.3145 40.8145C36.5493 40.2777 36.171 39.6893 35.4927 39.5035L28.6963 37.7072ZM23.4262 36.3858C22.7088 36.3858 22.1217 36.8504 22.1217 37.4182C22.1217 37.986 22.7088 38.4505 23.4262 38.4505C24.1437 38.4505 24.7307 37.986 24.7307 37.4182C24.7307 36.8504 24.1437 36.3858 23.4262 36.3858ZM32.5837 12.8797C32.5967 12.3119 33.1968 11.8577 33.9143 11.868C34.6317 11.8783 35.2057 12.3532 35.1926 12.921C35.1926 12.9313 35.1405 14.2114 35.7144 16.0593C35.7536 16.0489 35.7927 16.0283 35.8318 16.018C36.8363 15.6257 37.6581 14.9237 38.0364 14.0256C38.4278 13.1171 38.3104 12.1674 37.8147 11.3725C37.3189 10.5776 36.4319 9.92721 35.297 9.62784C34.1491 9.31814 32.9489 9.41105 31.9445 9.80333C30.94 10.1956 30.1182 10.8976 29.7399 11.7957C29.3486 12.7042 29.466 13.6539 29.9617 14.4488C30.4574 15.2437 31.3444 15.8941 32.4793 16.1935C32.688 16.2554 32.9098 16.2967 33.1316 16.3277C32.5185 14.294 32.5837 12.9003 32.5837 12.8797ZM36.5232 18.0413C38.0234 21.0144 41.1933 24.6379 47.9244 26.971L49.5941 23.0378C49.7376 22.6868 49.8289 22.3255 49.842 21.9539C49.855 21.5925 49.8028 21.2209 49.6724 20.8493L45.9024 7.80061C45.7459 7.10895 45.3937 6.48955 44.8067 5.96306C44.2718 5.46755 43.5674 5.08558 42.7325 4.85847L33.0142 2.27764C32.2706 2.0815 31.4749 2.02988 30.7052 2.13312C30.5096 2.15376 29.0485 2.59767 28.605 2.85575L15.5341 11.4654C14.634 11.9299 13.9557 12.6216 13.6165 13.4165L2.86761 38.6054C2.45018 39.5964 2.56758 40.6287 3.11547 41.4856C3.6503 42.3527 4.61562 43.0547 5.85488 43.385L32.8185 50.5907C34.0708 50.9211 35.3753 50.8281 36.458 50.3946C37.5538 49.9713 38.4408 49.2074 38.8582 48.2267L47.0765 28.9324C39.1583 26.2484 35.5579 21.9332 33.9273 18.4439C31.2662 18.4543 28.8007 17.2671 27.6006 15.3573C25.8917 12.6113 27.3005 9.28717 30.7705 7.93481C34.2404 6.58246 38.4408 7.69738 40.1497 10.4434C40.9454 11.7131 41.128 13.2203 40.5149 14.6656C39.9018 16.1212 38.5973 17.2361 36.9928 17.8658C36.8363 17.9278 36.6798 17.9897 36.5232 18.0413ZM16.1472 24.0908L39.4322 30.2951C40.1105 30.4809 40.8541 30.1815 41.0889 29.6447C41.3237 29.1079 40.9454 28.5195 40.2671 28.3337L16.9821 22.1294C16.3038 21.9435 15.5602 22.2429 15.3254 22.7797C15.0906 23.3165 15.4559 23.905 16.1472 24.0908ZM13.76 29.6757L37.045 35.88C37.7233 36.0658 38.4669 35.7664 38.7017 35.2296C38.9365 34.6928 38.5582 34.1044 37.8799 33.9186L14.5949 27.7143C13.9166 27.5284 13.173 27.8278 12.9382 28.3646C12.7034 28.9014 13.0687 29.5002 13.76 29.6757Z" fill="#F4F0EA"/>
</svg>
