<svg width="55" height="55" viewBox="0 0 55 55" fill="none" xmlns="http://www.w3.org/2000/svg">
<g clip-path="url(#clip0_303_4170)">
<path d="M41.8612 3.32605H34.0317V4.91278H41.8612C42.4618 4.91289 42.9504 5.40144 42.9504 6.00214C42.9504 6.17681 42.9103 6.34353 42.831 6.49757L44.242 7.22321C44.435 6.84788 44.5371 6.4256 44.5371 6.00214C44.5372 4.52649 43.3367 3.32605 41.8612 3.32605Z" fill="#F4F0EA"/>
<path d="M31.7429 3.32617H29.7716V4.9129H31.7429V3.32617Z" fill="#F4F0EA"/>
<path d="M37.8826 17.5242H9.8501V19.1109H37.8826V17.5242Z" fill="#F4F0EA"/>
<path d="M37.8826 46.4474H9.8501V48.0341H37.8826V46.4474Z" fill="#F4F0EA"/>
<path d="M47.2034 18.0386L46.0814 19.1605L47.0679 20.1472L43.8099 23.4052L44.9319 24.5272L49.3119 20.1472L47.2034 18.0386Z" fill="#F4F0EA"/>
<path d="M42.8173 24.3988L41.7604 25.4557L42.8823 26.5776L43.9391 25.5207L42.8173 24.3988Z" fill="#F4F0EA"/>
<path d="M53.7191 13.3883L53.1321 12.8013C51.427 11.0961 48.6522 11.0961 46.947 12.8013L46.3732 13.3751L45.2512 14.497L42.3431 17.4051V11.3662C45.0882 11.1214 47.2478 8.80985 47.2478 6.00216C47.2478 3.03193 44.8312 0.615356 41.8611 0.615356H5.38669C2.41657 0.615356 0 3.03182 0 6.00205V48.8909H4.59338V54.3846H42.3433V30.9494L52.0234 21.2692L52.8712 20.4213L53.1452 20.1473L53.719 19.5736C54.5451 18.7475 55 17.6493 55 16.4811C55 15.3129 54.5453 14.2143 53.7191 13.3883ZM9.20072 2.20209H41.8612C43.9566 2.20209 45.6611 3.90678 45.6611 6.00216C45.6611 8.09753 43.9565 9.80211 41.8612 9.80211H9.20072C10.172 8.82725 10.7735 7.48362 10.7735 6.00216C10.7735 4.52048 10.1721 3.17695 9.20072 2.20209ZM4.59338 9.802V47.3042H1.58673V6.00205C1.58673 3.90667 3.29153 2.20198 5.3868 2.20198C7.48207 2.20198 9.18676 3.90678 9.18676 6.00205C9.18676 8.09743 7.48196 9.802 5.3868 9.802H4.59338ZM40.7567 52.7979H6.18V11.3888H40.7566V18.9918L37.3167 22.4315H9.84977V24.0183H35.7302L32.4092 27.3392H9.84977V28.926H30.8226L27.5017 32.2468H9.84977V33.8336H25.9151L25.6383 34.1104L24.7358 37.1545H9.84977V38.7412H24.2655L23.281 42.0622H9.84977V43.6489H37.8819V42.0622H28.4312L32.4104 40.8827L34.5516 38.7415H37.8818V37.1547H36.1384L40.7567 32.5364V52.7979ZM26.7232 36.0324L30.4881 39.7972L25.137 41.3835L26.7232 36.0324ZM31.9917 39.057L27.4635 34.5288L46.3732 15.619L50.9014 20.1472L31.9917 39.057ZM52.5973 18.4514L52.0235 19.0252L47.4954 14.497L48.0691 13.9233C49.1557 12.8367 50.9236 12.8367 52.0103 13.9233L52.5973 14.5102C53.1237 15.0366 53.4136 15.7364 53.4136 16.4808C53.4135 17.2252 53.1236 17.9251 52.5973 18.4514Z" fill="#F4F0EA"/>
</g>
<defs>
<clipPath id="clip0_303_4170">
<rect width="55" height="55" fill="white"/>
</clipPath>
</defs>
</svg>
